<svg width="118" height="121" xmlns="http://www.w3.org/2000/svg" xmlns:xlink="http://www.w3.org/1999/xlink"><defs><path d="M33.33 0h51.34c11.59 0 15.792 1.207 20.029 3.473s7.562 5.591 9.828 9.828c2.266 4.237 3.473 8.44 3.473 20.03v51.338c0 11.59-1.207 15.793-3.473 20.03-2.266 4.237-5.591 7.562-9.828 9.828-4.237 2.266-8.44 3.473-20.03 3.473H33.331c-11.59 0-15.793-1.207-20.03-3.473-4.237-2.266-7.562-5.591-9.828-9.828C1.207 100.462 0 96.259 0 84.669V33.331C0 21.74 1.207 17.538 3.473 13.3 5.739 9.064 9.064 5.739 13.3 3.473 17.538 1.207 21.741 0 33.331 0z" id="a"/><path d="M44.847 89.329c-1.858-2.214-3.422-4.82-4.69-7.775-2.202-5.143-3.047-10.079-3.248-13.096l-2.442-33.546c.248-.01.488-.014.723-.014 9.21 0 9.743 7.345 9.743 7.345l.378 4.315 11.794-.424-1.036-7.484s-.712-6.338-2.721-9.833c-1.932-3.36-5.86-5.255-10.877-5.255-2.032 0-4.243.311-6.571.962-4.34 1.214-8.127 4.928-9.421 7.651-5.452 11.477 4.996 14.688 4.996 14.688s.616 10.106.575 10.106c-17.203-3.448-16.033-18.156-16.033-18.156-.13-5.518 5.573-18.237 21.03-21.837 2.908-.678 5.525-.976 7.893-.976 6.09 0 10.531 1.974 14.02 4.54 6.051 4.451 7.465 13.73 7.465 13.73l7.782 37.637c-.757.108-1.48.158-2.174.158-3.494 0-6.193-1.272-8.126-2.749-2.232-1.706-3.732-4.21-4.265-6.983l-1.332-6.246-12.144.347.438 5.285c.165 2.326.464 4.448.87 6.395.81 3.764 2.153 7.402 4.52 10.654 4.023 5.525 11.446 8.762 18.678 8.762 7.844 0 15.465-3.809 18.277-12.634 2.58-8.099-1.58-17.134-10.539-19.8-.983-.292-3.472-.74-3.472-.74l-2.08-9.502c9.39.31 19.902 5.479 25.14 14.03 4.453 7.271 5.108 16.296 2.373 24.267-3.987 11.632-15.933 18.472-28.115 18.834-.326.01-.652.015-.976.015-10.233 0-19.822-4.794-26.433-12.671z" id="d"/><linearGradient x1="100%" y1="0%" x2="37.24%" y2="74.367%" id="b"><stop stop-color="#09F3F3" offset="0%"/><stop stop-color="#09F3F3" stop-opacity="0" offset="100%"/></linearGradient><filter x="-19.2%" y="-11%" width="138.4%" height="144.2%" filterUnits="objectBoundingBox" id="c"><feOffset dy="12" in="SourceAlpha" result="shadowOffsetOuter1"/><feGaussianBlur stdDeviation="3.5" in="shadowOffsetOuter1" result="shadowBlurOuter1"/><feColorMatrix values="0 0 0 0 0 0 0 0 0 0 0 0 0 0 0 0 0 0 0.09 0" in="shadowBlurOuter1"/></filter></defs><g fill="none" fill-rule="evenodd"><use fill="#3060BF" xlink:href="#a"/><use fill-opacity=".39" fill="url(#b)" xlink:href="#a"/><use fill="#000" filter="url(#c)" xlink:href="#d"/><use fill="#FFF" xlink:href="#d"/></g></svg>