<svg width="76" height="18" xmlns="http://www.w3.org/2000/svg"><path d="M9.43.967L.375 2.923A.49.49 0 000 3.344v12.261l.001.009a.492.492 0 00.373.421l9.057 1.956c.205.044.373-.085.373-.288V6.71H4.951v1.984h3.64v.615a.925.925 0 01-.286.683.948.948 0 01-.693.282H4.951v4.07h-1.9v-8.25c0-.267.094-.495.284-.683a.952.952 0 01.693-.281h5.776V1.255c0-.202-.168-.332-.373-.288zm30.524 9.092c.018-.464.153-.821.407-1.072.253-.25.58-.375.979-.375.433 0 .77.125 1.003.375.218.233.346.59.38 1.072h-2.77zm1.33-3.002c-1.032 0-1.838.331-2.418.992-.56.643-.841 1.537-.841 2.68 0 1.197.29 2.116.869 2.759.58.66 1.386.992 2.418.992.85 0 1.558-.206 2.118-.617.561-.394.942-.965 1.14-1.715h-1.357c-.216 0-.385.046-.503.135-.116.089-.186.16-.202.213l-.15.148a.397.397 0 01-.15.094c-.217.126-.479.187-.787.187-.47 0-.826-.144-1.06-.43-.254-.267-.389-.678-.407-1.232h4.698a.447.447 0 00.028-.187v-.295c0-1.18-.29-2.099-.87-2.76-.597-.641-1.439-.964-2.526-.964zm19.392.162c-.47 0-.76.216-.87.643L58.8 12.148l-.978-4.929h-1.928l-1.032 4.93-1.14-4.93h-1.848l1.982 7.126h1.903l1.113-5.089 1.115 5.089h1.9l1.985-7.126h-1.196zm-13.462 2.84c.019-.464.153-.821.408-1.072.253-.25.58-.375.978-.375.434 0 .77.125 1.004.375.218.233.345.59.38 1.072h-2.77zm1.33-3.002c-1.03 0-1.837.331-2.417.992-.561.643-.841 1.537-.841 2.68 0 1.197.29 2.116.869 2.759.58.66 1.386.992 2.417.992.851 0 1.558-.206 2.12-.617.56-.394.94-.965 1.14-1.715h-1.359c-.215 0-.384.046-.503.135-.116.089-.185.16-.201.213l-.151.148a.395.395 0 01-.148.094c-.218.126-.48.187-.788.187-.471 0-.826-.144-1.06-.43-.255-.267-.39-.678-.408-1.232h4.699a.451.451 0 00.028-.187v-.295c0-1.18-.29-2.099-.87-2.76-.598-.641-1.44-.964-2.526-.964zm25.288.162c-.47 0-.76.216-.87.643l-1.277 4.394-1.467-5.037h-2.091l2.527 7.099c.127.374.086.646-.123.818-.209.169-.494.254-.856.254h-.517v1.474c.056 0 .124.005.204.011a.97.97 0 01.204.042h.38c.742 0 1.278-.108 1.605-.323.324-.249.596-.67.814-1.257l2.77-8.118h-1.303zm-7.655 4.207c0 .5-.144.891-.433 1.177-.29.286-.689.43-1.197.43-.308 0-.542-.071-.707-.215-.162-.16-.243-.375-.243-.643 0-.196.063-.393.19-.59.143-.14.38-.258.707-.347l.624-.134c.452-.108.806-.222 1.059-.348v.67zm.976-3.859c-.505-.34-1.266-.51-2.281-.51-.904 0-1.602.206-2.09.615a2.054 2.054 0 00-.761 1.367h1.82a.727.727 0 01.433-.4c.2-.07.427-.107.679-.107.237 0 .494.04.774.12.28.08.422.255.422.522 0 .359-.398.59-1.196.697a5.182 5.182 0 00-.433.067 1.62 1.62 0 01-.327.04c-.686.108-1.254.323-1.697.643-.443.322-.665.857-.665 1.607 0 .805.243 1.38.732 1.728.489.35 1.06.524 1.71.524.328 0 .703-.023 1.13-.066a3.413 3.413 0 001.208-.364c.361-.178.674-.469.936-.87s.394-.961.394-1.674v-2.44c0-.642-.262-1.143-.788-1.499zm-31.324-.16a3.392 3.392 0 00-1.208.59 2.916 2.916 0 00-.855 1.138c-.209.474-.313 1.059-.313 1.753v3.457h1.901v-3.67c0-.536.127-.93.38-1.179s.642-.374 1.168-.374h.626V7.219h-.273c-.49 0-.965.062-1.426.188zm-10.423.267a4.14 4.14 0 00-2.2-.614 5.487 5.487 0 00-1.154.173 2.404 2.404 0 00-.965.496A2.591 2.591 0 0020 7.194a5.561 5.561 0 00-1.221-.134 4.25 4.25 0 00-2.133.67c-.642.41-.965 1.222-.965 2.436v4.179h1.901V9.79c0-.427.128-.74.38-.937.253-.197.543-.295.87-.295.327 0 .621.098.883.295.262.197.394.51.394.937v4.554h1.876V9.79c0-.427.132-.74.393-.937.262-.197.557-.295.884-.295.324 0 .619.098.88.295.263.197.395.51.395.937v3.644c0 .267.085.485.257.656.174.17.394.254.668.254h.95v-4.179c0-1.25-.336-2.08-1.006-2.492zM13.963 5.13h-.978v9.215h1.901v-8.33a.83.83 0 00-.271-.631.921.921 0 00-.652-.254zm-2.534 0h-.978v1.475h1.9v-.563a.872.872 0 00-.27-.645.896.896 0 00-.652-.267zm0 2.09h-.978v7.125h1.9V8.129a.87.87 0 00-.27-.642.897.897 0 00-.652-.268zm17.87-.51h4.888V5.13h-5.811a.951.951 0 00-.693.281.925.925 0 00-.285.684v8.25h1.9v-4.071h2.662a.948.948 0 00.693-.282.925.925 0 00.285-.683v-.615h-3.64V6.71z" fill="#FFF" fill-rule="evenodd"/></svg>