<svg width="335" height="66" xmlns="http://www.w3.org/2000/svg"><g fill="none" fill-rule="evenodd"><path d="M.26 54V12.01h16.612c4.183 0 7.285 1.026 9.305 3.076 2.02 2.051 3.03 4.43 3.03 7.137 0 4.758-2.481 7.916-7.444 9.475 2.953.759 5.147 2.112 6.583 4.06 1.435 1.949 2.153 4.153 2.153 6.614 0 3.302-1.113 6.065-3.338 8.29C24.936 52.887 21.506 54 16.871 54H.262zm5.076-23.994h9.136c3.794 0 6.327-.723 7.598-2.169 1.272-1.446 1.908-3.143 1.908-5.09 0-1.929-.682-3.487-2.046-4.677-1.364-1.19-3.4-1.784-6.106-1.784H5.336v13.72zm0 19.38h11.259c2.748 0 4.87-.667 6.367-2 1.497-1.333 2.246-3.066 2.246-5.199a8.791 8.791 0 00-1.015-4.168c-.677-1.281-1.63-2.27-2.861-2.968-1.23-.697-3.066-1.046-5.506-1.046H5.336v15.38zM63.368 54h-4.337v-5.937c-2.215 4.512-5.517 6.768-9.906 6.768-3.178 0-5.675-1.046-7.49-3.138-1.815-2.092-2.722-5.066-2.722-8.921V22.931h4.83v19.841c0 3.076.64 5.194 1.922 6.352 1.282 1.159 2.691 1.738 4.23 1.738a7.21 7.21 0 004.23-1.322c1.26-.882 2.312-2.138 3.152-3.769.841-1.63 1.262-3.41 1.262-5.337V22.931h4.83V54zm15.643-41.99v5.353h-5.199V12.01h5.199zm-.154 10.92V54h-4.83V22.93h4.83zM94.315 54h-4.83V12.01h4.83V54zm24.748-3.322v3.814c-1.702.226-3.179.339-4.43.339-6.009 0-9.013-3.138-9.013-9.414V26.714h-5.506v-3.783h5.506l.215-7.814 4.492-.43v8.244h6.952v3.783h-6.952v19.503c0 3.2 1.66 4.8 4.983 4.8 1.107 0 2.358-.114 3.753-.34zM142.442 54h-2.338V12.01h4.83V28.1c2.214-4.02 5.27-6.03 9.167-6.03 3.568 0 6.557 1.405 8.967 4.215 2.41 2.81 3.614 6.89 3.614 12.243 0 4.614-1.184 8.485-3.553 11.612-2.369 3.128-5.45 4.692-9.244 4.692-4.224 0-7.465-1.99-9.72-5.968L142.442 54zm2.492-12.182c.225 3.18 1.204 5.486 2.937 6.922 1.733 1.435 3.564 2.153 5.491 2.153 2.461 0 4.445-1.066 5.953-3.2 1.507-2.132 2.26-5.054 2.26-8.766 0-4-.727-7.142-2.183-9.429-1.456-2.286-3.476-3.43-6.06-3.43-2.03 0-3.861.816-5.491 2.446-1.63 1.63-2.6 3.737-2.907 6.321v6.983zm50.326-18.887L182.8 57.63c-1.804 5.004-4.686 7.506-8.644 7.506-1.25 0-2.635-.216-4.153-.646v-3.784c1.251.287 2.328.43 3.23.43 1.538 0 2.825-.44 3.861-1.322 1.036-.882 2.066-3.015 3.092-6.398L169.45 22.93h4.922l8.305 23.348L191.2 22.93h4.06z" fill="#000"/><path d="M274.19.862h3.656v63.879h-3.656zm-9.666 8.614h-14.91V25.97H237.21V9.476h-14.911V55h14.91V38.176h12.404V55h14.911zm54.381 21.772l14.317-21.772h-17.814l-6.4 12.206-6.465-12.206h-17.814l14.383 21.772L283.937 55h17.814l7.258-14.515L316.266 55h17.814z" fill="#111"/></g></svg>