<?xml version="1.0" encoding="UTF-8"?>
<svg width="82px" height="82px" viewBox="0 0 82 82" version="1.1" xmlns="http://www.w3.org/2000/svg" xmlns:xlink="http://www.w3.org/1999/xlink">
    <!-- Generator: Sketch 52.2 (67145) - http://www.bohemiancoding.com/sketch -->
    <title>Fill 1</title>
    <desc>Created with Sketch.</desc>
    <g id="-Stock" stroke="none" stroke-width="1" fill="none" fill-rule="evenodd">
        <g id="Artboard-3" transform="translate(-19.000000, -19.000000)" fill="#FFFFFF">
            <path d="M46.4999535,88.9182529 C44.72871,86.8074561 43.2381722,84.3228162 42.0292771,81.5048216 C39.9303429,76.6015379 39.1243682,71.894893 38.9332152,69.0184601 L36.6052455,37.0324665 C36.840974,37.0230192 37.0697418,37.0185654 37.2944938,37.0185654 C46.074009,37.0185654 46.5818762,44.0227937 46.5818762,44.0227937 L46.9422289,48.136418 L58.1857163,47.7322085 L57.1984943,40.5965279 C57.1984943,40.5965279 56.5196872,34.55336 54.6040082,31.2208924 C52.7624879,28.0173129 49.0172021,26.2103143 44.2355675,26.2103143 C42.2983369,26.2103143 40.1903002,26.5072295 37.9708914,27.1279171 C33.8328586,28.2854813 30.2233075,31.8259244 28.989782,34.4229872 C23.7922426,45.3660648 33.75281,48.4277998 33.75281,48.4277998 C33.75281,48.4277998 34.3397887,58.0636409 34.301103,58.0636409 C17.9013052,54.7759805 19.0159625,40.7522734 19.0159625,40.7522734 C18.8929446,35.4905321 24.3287559,23.363438 39.063997,19.9302891 C41.8367856,19.2842288 44.3312779,19 46.5888369,19 C52.3951744,19 56.6285159,20.8817672 59.9545503,23.3287529 C65.723139,27.5728849 67.0705799,36.4193367 67.0705799,36.4193367 L74.4892683,72.3063904 C73.7681612,72.4099058 73.0778421,72.4575472 72.4167046,72.4575472 C69.0855835,72.4575472 66.5127827,71.2445139 64.6705931,69.8365963 C62.5420757,68.2095013 61.1121768,65.8223035 60.6043096,63.1784091 L59.334508,57.2225613 L47.75744,57.5537566 L48.1752189,62.5922716 C48.3325051,64.8103627 48.6178959,66.8338394 49.0050208,68.689694 C49.7772626,72.2785884 51.0572377,75.7480418 53.3139935,78.8485107 C57.1489659,84.117 64.2247035,87.2027582 71.1190599,87.2026232 C78.597584,87.2023533 85.8624666,83.571216 88.5428913,75.1565059 C91.0025798,67.4344178 87.0376288,58.8199647 78.4965192,56.2781012 C77.5590934,55.9991359 75.1862804,55.5714431 75.1862804,55.5714431 L73.2042065,46.5122922 C82.154394,46.8073179 92.1762696,51.7359743 97.1690023,59.8892641 C101.414659,66.8225027 102.039119,75.4277784 99.4320496,83.0278613 C95.6310778,94.1188566 84.2427533,100.640058 72.6291413,100.986099 C72.3184509,100.995411 72.0082959,101 71.6986763,101 C61.9437188,101 52.8029138,96.4288564 46.4999535,88.9182529 Z" id="Fill-1"></path>
        </g>
    </g>
</svg>