<svg width="82" height="82" xmlns="http://www.w3.org/2000/svg"><path d="M27.5 69.918c-1.771-2.11-3.262-4.595-4.47-7.413-2.1-4.903-2.906-9.61-3.097-12.487l-2.328-31.986c.236-.009.465-.013.69-.013 8.779 0 9.287 7.004 9.287 7.004l.36 4.113 11.244-.404-.988-7.135s-.678-6.044-2.594-9.376c-1.842-3.204-5.587-5.01-10.368-5.01-1.938 0-4.046.296-6.265.917-4.138 1.157-7.748 4.698-8.981 7.295-5.198 10.943 4.763 14.005 4.763 14.005s.587 9.636.548 9.636C-1.099 35.776.016 21.752.016 21.752-.107 16.491 5.329 4.363 20.064.93 22.837.284 25.331 0 27.589 0c5.806 0 10.04 1.882 13.366 4.329 5.768 4.244 7.116 13.09 7.116 13.09l7.418 35.887c-.72.104-1.411.152-2.072.152-3.331 0-5.904-1.213-7.746-2.621-2.129-1.627-3.559-4.015-4.067-6.659l-1.27-5.955-11.577.33.418 5.04c.158 2.217.443 4.24.83 6.097.772 3.589 2.052 7.058 4.309 10.159 3.835 5.268 10.91 8.354 17.805 8.354 7.479 0 14.743-3.632 17.424-12.046 2.46-7.723-1.505-16.337-10.046-18.879-.938-.279-3.31-.707-3.31-.707l-1.983-9.059c8.95.295 18.972 5.224 23.965 13.377 4.246 6.934 4.87 15.539 2.263 23.139-3.8 11.09-15.19 17.612-26.803 17.958-.31.01-.62.014-.93.014-9.755 0-18.896-4.571-25.199-12.082z" fill="#FFF" fill-rule="evenodd"/></svg>