<svg width="22" height="22" xmlns="http://www.w3.org/2000/svg"><path d="M19.16 21.196H3.007a2.423 2.423 0 01-2.423-2.424V2.62A2.423 2.423 0 013.006.196H19.16a2.423 2.423 0 012.422 2.423v16.153a2.423 2.423 0 01-2.422 2.424zM11.084 6.657a4.038 4.038 0 100 8.077 4.038 4.038 0 000-8.077zm8.078-3.23a.808.808 0 00-.809-.808H15.93a.808.808 0 00-.807.807V5.85c0 .446.361.807.807.807h2.423a.808.808 0 00.809-.807V3.426zm0 5.653h-1.829c.134.517.212 1.057.212 1.616a6.461 6.461 0 11-12.922 0c0-.559.079-1.1.212-1.616H3.006v8.885c0 .446.361.807.808.807h14.538a.808.808 0 00.809-.807V9.08z" fill="#007DA3" fill-rule="evenodd"/></svg>