<svg width="20" height="21" xmlns="http://www.w3.org/2000/svg"><path d="M19.867 18.016l-6.257-6.268a7.399 7.399 0 001.25-4.134 7.4 7.4 0 00-2.177-5.263A7.375 7.375 0 007.43.17c-1.985 0-3.85.774-5.254 2.18A7.4 7.4 0 000 7.614a7.4 7.4 0 002.176 5.262 7.374 7.374 0 005.254 2.18 7.367 7.367 0 004.168-1.28l6.25 6.262c.211.212.6.166.867-.102l1.05-1.052c.268-.268.313-.657.102-.868zM7.43 13.04c-2.987 0-5.417-2.434-5.417-5.426 0-2.993 2.43-5.427 5.417-5.427 2.987 0 5.417 2.434 5.417 5.427 0 2.992-2.43 5.426-5.417 5.426z" fill="#222" fill-rule="evenodd"/></svg>