<svg width="39" height="31" xmlns="http://www.w3.org/2000/svg"><path d="M11.991 30.784A22.35 22.35 0 010 27.315c.612.071 1.235.108 1.866.108 3.665 0 7.038-1.235 9.715-3.306-3.423-.062-6.312-2.295-7.307-5.363a7.91 7.91 0 003.532-.132c-3.578-.71-6.275-3.83-6.275-7.572l.001-.097a7.868 7.868 0 003.543.966c-2.099-1.385-3.48-3.748-3.48-6.427a7.61 7.61 0 011.06-3.882 22.305 22.305 0 0016.123 8.068 7.657 7.657 0 01-.203-1.76c0-4.265 3.502-7.722 7.823-7.722a7.86 7.86 0 015.71 2.439A15.79 15.79 0 0037.074.76a7.764 7.764 0 01-3.44 4.272 15.8 15.8 0 004.493-1.216 15.787 15.787 0 01-3.903 3.997c.015.332.022.665.022 1 0 10.204-7.868 21.97-22.256 21.97" fill="#00ACED" fill-rule="evenodd"/></svg>