<svg width="25" height="21" xmlns="http://www.w3.org/2000/svg"><path d="M7.759 20.667A14.35 14.35 0 010 18.398c.396.047.799.07 1.207.07 2.372 0 4.554-.806 6.287-2.16A5.065 5.065 0 012.765 12.8a5.067 5.067 0 002.286-.087 5.055 5.055 0 01-4.06-4.95V7.7a5.05 5.05 0 002.293.632A5.043 5.043 0 011.717 1.59 14.382 14.382 0 0012.15 6.866a5.057 5.057 0 014.93-6.2 5.06 5.06 0 013.695 1.595 10.152 10.152 0 003.214-1.225 5.066 5.066 0 01-2.225 2.793c1.024-.122 2-.393 2.907-.795a10.273 10.273 0 01-2.526 2.614c.01.216.015.434.015.653 0 6.672-5.091 14.366-14.401 14.366" fill="#007DA3" fill-rule="evenodd"/></svg>