<svg width="23" height="30" xmlns="http://www.w3.org/2000/svg"><g fill="#F2AE79" fill-rule="evenodd"><path d="M3.572 15.94l4.063-4.669 4.016 4.009 4.569-3.834 1.266 3.42 1.588-1.648 1.158.743 2.131-1.431C21.136 7.035 17.52.153 11.566.153 5.938.153 1.862 7.476.67 13.043l2.902 2.896z"/><path d="M22.614 13.838l-2.366 1.589-.989-.635-2.245 2.332-1.34-3.62-4.095 3.436-3.88-3.874-4.064 4.668-3.218-3.212c-.036.29-.066.574-.083.845-.717 11.19 6.03 14.565 11.232 14.565 5.07 0 12.033-3.706 11.232-14.565a18.093 18.093 0 00-.184-1.53z"/></g></svg>