<svg width="178" height="30" xmlns="http://www.w3.org/2000/svg" xmlns:xlink="http://www.w3.org/1999/xlink"><defs><path id="a" d="M0 0h50v10H0z"/></defs><g fill="none" fill-rule="evenodd"><path d="M22.36 29V1.028h-6.3v11.13H7.03V1.028H.73V29h6.3V17.744h9.03V29h6.3zM42.436 1.028h-8.4L25.51 29h6.552l1.512-5.46h9.366L44.452 29h6.552L42.436 1.028zm-4.2 5.544l3.192 11.718h-6.426l3.234-11.718zm32.928.042V1.028H49.828v5.586h7.518V29h6.3V6.614h7.518zm8.484 3.57c0-2.436.798-3.864 3.906-3.864 2.016 0 4.788.252 7.224.672l.882-5.502C88.888.902 86.368.608 83.554.608c-7.056 0-10.206 3.486-10.206 8.568v11.676c0 5.082 3.15 8.568 10.206 8.568 2.814 0 5.334-.294 8.106-.882l-.882-5.502c-2.436.42-5.208.672-7.224.672-3.108 0-3.906-1.428-3.906-3.864v-9.66zM117.49 29V1.028h-6.3v11.13h-9.03V1.028h-6.3V29h6.3V17.744h9.03V29h6.3z" fill="#FFB100"/><path d="M126.62 12.884c0 .63.486 1.116 1.116 1.116h4.716c2.808 0 4.662-1.206 4.662-3.456v-.036c0-1.71-1.026-2.556-2.502-3.06.936-.486 1.8-1.296 1.8-2.808v-.036c0-.846-.288-1.53-.846-2.088-.72-.72-1.854-1.116-3.294-1.116h-4.536c-.63 0-1.116.486-1.116 1.116v10.368zm2.178-6.174V3.362h3.186c1.422 0 2.214.612 2.214 1.602V5c0 1.152-.954 1.71-2.376 1.71h-3.024zm0 5.328V8.582h3.51c1.746 0 2.592.63 2.592 1.692v.036c0 1.134-.918 1.728-2.43 1.728h-3.672zm9.954 1.026c0 .576.45 1.026 1.026 1.026.468 0 .846-.252 1.026-.702l1.062-2.43h6.12l1.026 2.358c.198.468.558.774 1.08.774.594 0 1.044-.468 1.044-1.062a.964.964 0 00-.126-.468l-4.68-10.44c-.252-.558-.684-.9-1.314-.9h-.108c-.63 0-1.08.342-1.332.9l-4.68 10.44c-.09.18-.144.342-.144.504zm3.96-4.068l2.214-5.094 2.214 5.094h-4.428zm16.128 5.22c2.034 0 3.384-.648 4.572-1.692.198-.18.36-.45.36-.792 0-.558-.486-1.026-1.044-1.026-.27 0-.504.108-.666.252-.918.774-1.818 1.206-3.15 1.206-2.412 0-4.158-1.998-4.158-4.464v-.036c0-2.466 1.764-4.446 4.158-4.446 1.206 0 2.142.432 3.006 1.134.144.108.36.216.666.216.612 0 1.098-.468 1.098-1.08 0-.396-.198-.702-.432-.882-1.098-.846-2.376-1.422-4.32-1.422-3.816 0-6.498 2.934-6.498 6.516v.036c0 3.618 2.736 6.48 6.408 6.48zm7.434-1.224c0 .612.486 1.098 1.116 1.098a1.09 1.09 0 001.098-1.098v-2.61l2.052-1.98 4.05 5.166c.234.306.504.522.936.522.63 0 1.116-.468 1.116-1.08 0-.342-.126-.558-.306-.792l-4.248-5.274 3.924-3.78c.252-.234.396-.486.396-.828 0-.54-.414-1.026-1.026-1.026-.396 0-.666.144-.918.414l-5.976 6.012V2.408a1.09 1.09 0 00-1.098-1.098c-.63 0-1.116.486-1.116 1.098v10.584z" fill="#FFF"/><g transform="translate(128 19)"><mask id="b" fill="#fff"><use xlink:href="#a"/></mask><path d="M48.271 1.041v3.017a3.017 3.017 0 01-3.022 3.016H1.935" stroke="#FFF" stroke-width="2" mask="url(#b)"/></g><path fill="#FFF" d="M126.5 25.5l5 4v-8z"/></g></svg>