<?xml version="1.0" encoding="UTF-8" standalone="no"?>
<svg width="12px" height="15px" viewBox="0 0 12 15" version="1.1" xmlns="http://www.w3.org/2000/svg" xmlns:xlink="http://www.w3.org/1999/xlink">
    <!-- Generator: Sketch 3.7.2 (28276) - http://www.bohemiancoding.com/sketch -->
    <title>Page 1</title>
    <desc>Created with Sketch.</desc>
    <defs></defs>
    <g id="HATCHback" stroke="none" stroke-width="1" fill="none" fill-rule="evenodd">
        <g transform="translate(-942.000000, -1331.000000)" id="DONATION" fill="#999999">
            <g transform="translate(840.000000, 699.000000)">
                <g id="CC" transform="translate(54.000000, 185.000000)">
                    <g id="CC-INFO" transform="translate(4.000000, 380.000000)">
                        <g id="SECURITY" transform="translate(1.000000, 54.000000)">
                            <path d="M53.7508,19.4788 L52.9382,19.4788 C52.8344,19.4788 52.7296,19.3952 52.7296,19.2704 L52.7296,17.3538 C52.7296,15.1452 51.0212,13.2704 48.8132,13.1874 C46.5008,13.1038 44.5836,14.9578 44.5836,17.2704 L44.5836,19.2914 C44.5836,19.3952 44.5,19.5 44.375,19.5 L43.5626,19.5 C43.25,19.5 43,19.75 43,20.0624 L43,27.4374 C43,27.75 43.25,28 43.5626,28 L53.729,28 C54.0414,28 54.2914,27.75 54.2914,27.4374 L54.2914,20.0414 C54.3132,19.7288 54.0632,19.4788 53.7508,19.4788 L53.7508,19.4788 Z M45.8548,17.2704 C45.8548,15.6664 47.1882,14.3742 48.8132,14.4578 C50.3344,14.5414 51.5008,15.8328 51.5008,17.3538 L51.5008,19.2914 C51.5008,19.3952 51.4172,19.5 51.2922,19.5 L46.0422,19.5 C45.9382,19.5 45.8336,19.4164 45.8336,19.2914 L45.8336,17.2704 L45.8548,17.2704 Z" id="Page-1"></path>
                        </g>
                    </g>
                </g>
            </g>
        </g>
    </g>
</svg>