<svg width="426" height="93" xmlns="http://www.w3.org/2000/svg"><path d="M51.254 17.892c-.252-.144-.468-.324-.504-.576l.18-.216c-.144 0-.18-.144-.18-.252-1.008 0-1.944-.036-2.952-.18a.963.963 0 01-.396-.072l.576-4.14c.108-2.016.36-4.032.612-6.048.036-.468-.144-.864-.036-1.26.036-.324.144-.972.144-1.116 0-.252.072-1.872-.288-2.664-.108-.432-.684-.972-.864-.972-.252 0 .072.072-.18.072s-.288-.18-.324-.288c-.144.108-.252 0-.396 0-.252 0-.36-.108-.612-.108-.036 0-.108.036-.18.108l-.036.036c0 .396-.036.972-.216 1.26-.54.972-1.26 1.764-1.656 2.376a75.626 75.626 0 00-1.656 3.24c-1.548 2.988-2.988 6.696-4.536 9.972-.684.252-1.116.252-1.8.288-.468.252-1.368.504-1.62.504a.578.578 0 01-.396-.18c-.108.144-.468.432-.468.612s.648 1.296.828 1.548c.432.324 1.188.72 1.728 1.116-.324.72-.612 1.368-.828 1.98-.432 1.044-.792 2.232-.792 2.556 0 .252.108.756.396.9.252.18.576.216.684.396l.18-.18c.108.144.144.036.252.036 0-.216.072-.396.18-.54.108.108.036.252.18.252.144-.612.36-1.224.648-1.8.108-.288.36-.504.468-.612.756-1.296 1.152-2.484 1.692-3.492.144-.144 3.204-1.008 3.708-1.008h1.332l-.072 4.68c0 .432-.144.9-.036 1.332 0 1.404-.432 2.7.468 3.996.324.18.864.324 1.044.504.036-.144.144-.252.324-.288.144 0 .144-.108.252-.108 0-.252.036-.612.144-.864.756-1.548.18-2.268.468-3.708.288-1.296.108-2.88.216-4.032.036-.108.108-.036.216-.18-.108-.288-.216-.468-.072-.72.108-.324.18-.792.324-1.08.396-.036.72-.108.864-.144 1.008-.288 2.268-.648 2.988-.936zm-7.092-1.116c-1.44.288-2.268-.072-3.168-.072 1.152-2.34 2.232-5.472 3.78-7.884l-.612 7.956zm28.476 7.056c-.468.252-1.476.576-1.656.576-1.26.144-1.368-.288-1.476-1.26-.036-.144-.036-.468-.036-.972s0-.9.036-1.152c0-1.008.396-3.132.396-3.348-.036-.18-.18-.36-.072-.396-.324-.252-.252-.612-.504-.9-.252-.288-.432-.432-.612-.54-.144-.144-.432-.072-.468-.108-.144-.108-.468-.432-.648-.468-.324-.108-.684 0-.792-.036l-4.68 5.688c-.432 0-.396.18-.648.432-.036-.036-.036-.072-.036-.108v-.036c.036-.432 0-1.044.396-1.152.108-1.296.468-3.672.468-3.924-.036-.324-.36-1.116-.54-1.44-.468-.54-1.44-.9-1.836-1.008-.576-.108-1.116-.108-1.368 0-1.044 1.512-3.276 4.5-3.456 4.5-.288.036-.36.252-.396.252-.072-.612.756-2.232.864-2.952.144-.396.252-.936.36-1.548.108-.648.18-1.044.144-1.188 0-.18-.36-1.152-.9-1.26a.385.385 0 01-.108-.18.818.818 0 00-.648-.18c-.252 0-.576.18-.828.216-.612 1.404-.792 1.944-.792 2.988-.036.144-.144.18-.18.216-.108.54-.36 1.26-.468 1.656-.108.576-.72 2.16-1.296 3.996-.576 1.836-1.152 3.924-1.008 5.076.036.54.072 1.116.468 1.368.288.288.9.72 1.08.684.288 0 .864-.396 1.044-.54.432-.432.828-1.224 1.296-1.656v-.288l.792-.936c.108-.18.144-.396.18-.504 1.152-1.476 2.448-3.312 3.6-4.5 0 .18.108.252.144.396l-.108.144c0 .108.18.108.072.288-.072 1.08-1.008 3.816-.828 5.472.108.648 1.98 1.872 2.736 1.764.252 0 .864-.324 1.26-.576.144-.036 0-.108.108-.252.684-.396 1.152-1.116 1.62-1.692.72-1.044 1.98-2.376 2.376-2.952.288-.396.396-.72.684-1.044.252.468.18.864.216 1.188.288 1.332.396 2.736 1.152 3.564.468.468 1.476 1.188 1.656 1.188.252-.036-.072-.144.108-.18.252 0 .972.324 1.224.324.288-.036.9-.396 1.44-.648.072-.072.108-.18.072-.324.144-.144.324-.252.432-.432-.18-.072-.252-.18-.18-.36.036-.252.324-.612.144-.936zm-7.272-1.872l-.18-.108.216-.324h.108l-.144.432zm22.968 1.116c-.216.108-4.212 1.98-4.752 1.98-.288 0-.684.18-1.08.036 0-.324-.108-.936-.108-1.116 0-.216.396-3.816.792-5.724.288-1.368 1.044-3.744 1.044-3.996 0-.288-.108 0-.108-.144.144-.144-.036-.648-.144-.828-.288-.324-1.152-.72-1.584-.72-.18 0 .072.108-.216.108-.252 0-.072-.288-.324-.288-.468 0-.18.252-.612.72-.18 0-.396-.072-.576-.072-.18 0-.36-.108-.612-.324h-.288a1.197 1.197 0 01-.432.504c-.18.144-.432.072-.756.216-.108.108.036.216-.072.324-.324.288-.72.756-1.044.9-.468.324-1.188 1.044-1.44 1.368-1.224 1.62-4.14 6.552-4.14 8.748 0 .18.252.792.288 1.08.684.576 1.08 1.332 2.268 1.332.18 0 .576-.144.756-.144 1.08 0 2.916-2.7 3.312-3.276.432-.72.828-1.224 1.224-1.908.108.684.108 1.404.108 1.836 0 .252 1.332 3.24 2.808 3.24h1.512c.324 0 1.548-1.116 2.304-1.224-.108 0-.288-.216-.288-.252.54-.396 1.08-.864 1.368-1.188-.108-.18-.036-.324.144-.504.108-.252.54-.396.648-.684zm-8.676-6.264c-1.044 1.728-2.016 3.744-3.168 5.148l-.216-.252c.864-1.692 1.98-3.636 3.168-5.076 0 .108-.144.252 0 .396l.216-.216zm21.888 7.524c-2.34-.972-4.464-1.404-7.092-1.404l-3.276.612c-.144 0-.216.108-.324-.036 3.276-3.384 4.14-4.752 5.868-6.768.324-.432.972-1.944.972-2.484 0-.18-.36-.828-.396-1.116-.288-.324-1.008-.612-1.26-1.008-.288-.036-.576-.144-.72-.144-.252 0-3.132.648-4.5 1.116-.864.252-2.196.936-2.88 1.368-.396.18-.36.54-.36.936 0 .216.288 1.584 1.008 1.584.216 0 .432-.072.684-.18.18-.108.288-.288.324-.324.324-.108.684-.432.936-.432s-.072.108.18.108c.18 0 .324-.396.468-.432l1.8-.504c.612-.216 1.008-.324 1.116-.324 0 0-.036.072.072.072h.036c-.612 1.26-2.484 3.06-3.6 4.068-1.044 1.116-2.16 2.088-3.06 3.24-.576.576-1.764 1.764-1.764 2.7 0 .324.036.324.144.504.108 1.476 1.116 2.34 2.268 2.34.18 0 1.116-.18 1.548-.324.828-.18 1.548-.468 2.088-.648.18 0 .324-.216.468-.324 1.872-.432 3.816-.684 5.796-.972.684-.108 1.368.036 1.548.036.18 0 1.332-.288 1.8-.468-.144-.108-.108-.18.108-.216v-.576zm3.456-16.344c-.432-.396-.18-.9-.36-1.08-.108-.252-.432-.432-.684-.756-.9.108-1.08.504-2.7.396.18.324.072.936.216 1.224.18.612.504 1.512 1.044 1.8.108.108.072.144.108.252.396.18.9.504 1.44.468 1.728-.108.324-1.404.936-2.304zm1.296 12.888c-1.188 1.188-2.88 2.52-4.572 3.276-.252-.864.072-1.332.504-2.808.108-.324.18-.972.324-1.296.252-.396.432-1.044.54-1.872.108-.864.252-1.512.36-1.944.036-.288.18-.504.18-.684-.036-.468-.324-.9-.864-1.296-.504-.396-.972-.612-1.44-.576-.288.036-.54.18-.828.18-.252.252-.288.54-.432.648-.036.252-.036.396-.036.504-.468.972-.864 2.232-1.188 3.78l-.396 1.512c-.18.684-.288 1.944-.252 2.376.108 1.584 1.368 4.608 3.78 4.428.252 0 1.008-.216 1.44-.468.288-.144.216-.396.216-.504.432-.54 1.296-1.332 1.872-1.656-.036-.252 0-.468.108-.612.144-.108.396-.324.432-.504-.108-.144-.252-.108-.36-.144.792-.684.144-1.944.612-2.34zm14.868 1.728c-.54.288-1.08.828-1.332.864h-.144l.036-.072c-.036-.036 0-.072.072-.072h.036c-.612.252-1.872 1.26-2.484 1.26-.18.036-.36 0-.468-.072-.036-.72-.18-1.404-.072-1.98-.108-1.476.18-4.356.072-4.608-.108-.972.108-.324-.756-2.016-.036 0-.216-.036-.216-.144.036-.036.072-.072.072-.108v-.036c-.288-.252-.756-.72-.936-.72-.252.036-.324.144-.504.252-.108-.18-.18-.36-.432-.54-.432.252-.828.144-1.152.288-.72.288-1.584 1.764-2.124 2.304a4.109 4.109 0 01.216-1.584c.108-.144.216-.252.216-.504.144-.72.216-1.656.324-2.268.108-.324.324-.576.288-.828l-.036-.396c-.144.036-.108.072-.216.072h-.036c-.144-.18 0-.432 0-.612-.396-.108-.648-.324-.9-.504.036.18.036.468-.108.612-.252-.324-.468-.54-.648-.792-.288.108-.684.504-1.008.792 0 .288.036.612.036.756-.972 2.556-1.98 5.436-2.664 7.416-.144.54-.108 1.188-.252 1.728a7.362 7.362 0 01-.468 1.116c-.036.72-.324 1.908-.324 2.088a.94.94 0 00.36.648c.144.144.288 1.944 1.188 1.836.252 0-.072-.108.216-.108.18-.036.36.324.612.324.18-.036.972-.828 1.296-1.26.468-.576.828-1.224 1.152-1.836-.036-.144-.036-.216 0-.252 1.008-1.188 2.16-2.844 3.132-3.96.108.036-.036.144.072.18.036 1.044.036 2.448.216 3.168.144 1.116.648 2.304 1.188 3.348.108.36 1.8 1.224 2.196 1.224.252 0 .972.108 1.44.072.108-.18.396-.684.648-.792.288-.324.936-.576 1.116-.9.036-.288.324-.432.504-.612-.144-.18-.036-.396-.144-.576.252-.18.144-.468.288-.612.036.036.072 0 .144-.072l.036-.036a.678.678 0 01-.288-.072c.108-.144.216-.216.324-.324.036-.036-.144-.216-.036-.324.036-.252.108-.504.252-.756zm-6.228-7.236l-.036-.18.252-.036.036.18-.252.036zm13.572 5.724l-.684.828.036.072.684-.9h-.036zm-.936 1.044l-.396.432.108.036.396-.36-.108-.108zm5.472-6.228c-.036-.612-.756-1.26-.72-1.404a7.627 7.627 0 00-1.116-.504c-.252-.036-.504-.324-.648-.36-.108-.288-.252-.36-.144-.648-.18-.252-.684-.936-.864-.936-3.168.18-4.284 3.348-7.056 7.092-.828 1.224-2.376 4.212-2.268 5.904.036.576 0 .792.396 1.512l.108.18c.18.18.288.36.432.504.432.18 1.224.468 1.404.468.252 0 .648-.144.936-.288 0-.108-.108-.18-.108-.288.468-.468 1.044-1.08 1.332-1.332.72-.864 1.584-1.764 2.34-2.736.216-1.044 1.188-1.764 1.692-2.664.108.144 0 .396-.144.576.324-.396.468-.648.576-.756-.108.108-.144.252-.288.252.144-.324.288-.612.432-.72.036.036.036.036.036.072l.036.036c-1.44 6.948-3.096 12.456-3.24 18.684 0 .396-.036 1.008-.036 1.152 0 .252.144 1.26.324 1.944.036.468.468.972.756 1.44.144.036.468.18.576.324.252.18.576.396.72.396.18-.036.072-.144.18-.288.468.18.792.252 1.008.216l-.072-1.26c-.288-.324-.396-.54-.684-.792a.484.484 0 01-.252.216l-.144.108h-.144v-.036c0-.324-.144-.756-.144-.936-.036-.468.252-1.152.288-1.62.108-.252 0-.648 0-.828.288-2.052.936-4.752 1.224-6.336.036-.144-.036-.288-.036-.396a104.046 104.046 0 001.584-7.236c.54-2.124 1.08-4.212 1.368-6.264.108-.828.36-2.268.36-2.448zm-4.14.504c0 .468-2.448 3.888-2.556 3.996-.72.828-1.836 2.016-2.808 3.024.612-1.26 1.44-3.24 2.196-4.572.18-.432.828-.936 1.116-1.548.252-.54.9-1.512 1.368-1.944-.108.252-.144.432-.036.612l.144-.18.036.432c.108 0 .216.072.324.18.144-.144.072-.288.216-.288v.288zm37.296-1.98c-2.268.18-4.068.324-5.688.612-.324.036-.648.216-.9.216-.288 0-.072-.18-.324-.18-.324 0-.576.036-.756.108-.324 0-.468.072-.72-.072v-.18c.288-1.044.576-2.196.72-3.168.72-2.268 1.476-4.644 2.196-7.092 0-.18-.036-.36-.108-.612.252-.468.432-1.332.432-1.512 0-.324-.684-1.404-.684-1.728v-.18s.036 0 .108-.036c-.144 0-.144.036-.396.036s-.504-.576-.792-.576c-.108 0-.468.108-.612.252-.72.468-.756 1.656-1.008 2.376-.324.9-.612 1.908-.792 2.664-.432 1.62-.972 3.24-1.368 4.824-.396 1.548-.828 4.932-1.224 6.012-.036.252-.324.54-.504.54-.288 0-.036-.108-.324-.108-.18 0-.288.108-.432.144 0 .036-.072.144-.18.252 0 .54-.18 1.26-.18 1.44 0 .216 1.008 1.404 1.008 1.656.036 1.764-.252 3.168-.108 3.708.144.9-.036 1.8 1.08 2.808.144.144.18.576.432.576.18 0 .468-.072.576-.072 0-.324.432-.576.432-.828 0-.18-.36-1.548-.36-1.8s.396-2.52.684-3.708c.288-.18.72-.54 1.044-.576l.288-.432c.576-.252 1.512-.576 1.656-.576.288 0 .18.072.288.072 0-.108-.108-.18 0-.216.864-.288 1.764-.648 2.484-.792 0-.216.036-.324.144-.324.144.108-.072.18.108.18.252 0 .684-.576.828-.828.72-.144 1.584-.324 1.836-.936-.144-.108-.288-.144-.288-.288.324-.18.828-.396 1.224-.576-.396-.324-.036-.252.072-.576-.108 0-.18-.036-.18-.144.144-.144.288-.216.288-.36zm11.736 8.712c-.324.144-.72.324-1.044.36-.648.108-2.52 1.08-2.772 1.08-.252 0-.18-.144-.612 0-.18-.324-.216-.792-.216-.972l.612-5.076c0-1.008-.18-1.908-1.476-2.808-.324-.18-.864-.108-1.152-.144-.18-.036-.36-.396-.54-.396-.324 0-2.7 2.664-2.88 2.916-.288.324-.9.792-1.188 1.116-.252.252-.576.864-.9.864L170.846 6.3c.18-.396.288-1.044.288-1.296 0-.324-.072-1.368-.36-1.908-.036 0-.108-.072-.18-.216-.288 0-.648-.288-.936-.288-.972 0-1.116.648-1.656 1.764-.576 1.512-1.656 3.996-2.124 5.436.108.18.108.36.036.576-.396.9-.864 2.304-1.044 3.276-.036.072-.108.144-.216.252-.036.288-.288.684-.288 1.008 0 .036-.54 1.368-1.008 2.916-.252.756-.468 1.728-.648 2.952s-.288 2.016-.288 2.412c0 .288.18 1.116.18 1.656.324.324.36.756.54 1.044.252.396.468.612.648 1.008.324-.18.648-.396.828-.396.252 0 .108.036.252.036-.072 0-.108 0-.108-.036v-.036c.936-.828 1.8-2.016 2.592-3.492s1.692-2.556 2.736-3.24l.072.504c-.144.828-.144 1.548-.108 2.304.036.756.18 1.548.432 2.34.144.288.468.684.576.972.18.252.324.648.432.828.18.108 1.188.864 1.368.864.288 0 1.008.108 1.26.108.288 0 .972-.504 1.26-.648-.036 0-.108-.036-.216-.144.54-.396.756-.792 1.044-.936.108-.18.072-.54.216-.648.144-.288.504-.324.684-.504.252-.252.324-.792.612-.936-.288.144-.612.108-.9.288-.036-.036-.072-.036-.072-.072v-.072c.54-.324.936-.576 1.188-.828zm5.58-15.156c-.432-.396-.18-.9-.36-1.08-.108-.252-.432-.432-.684-.756-.9.108-1.08.504-2.7.396.18.324.072.936.216 1.224.18.612.504 1.512 1.044 1.8.108.108.072.144.108.252.396.18.9.504 1.44.468 1.728-.108.324-1.404.936-2.304zm1.296 12.888c-1.188 1.188-2.88 2.52-4.572 3.276-.252-.864.072-1.332.504-2.808.108-.324.18-.972.324-1.296.252-.396.432-1.044.54-1.872.108-.864.252-1.512.36-1.944.036-.288.18-.504.18-.684-.036-.468-.324-.9-.864-1.296-.504-.396-.972-.612-1.44-.576-.288.036-.54.18-.828.18-.252.252-.288.54-.432.648-.036.252-.036.396-.036.504-.468.972-.864 2.232-1.188 3.78l-.396 1.512c-.18.684-.288 1.944-.252 2.376.108 1.584 1.368 4.608 3.78 4.428.252 0 1.008-.216 1.44-.468.288-.144.216-.396.216-.504.432-.54 1.296-1.332 1.872-1.656-.036-.252 0-.468.108-.612.144-.108.396-.324.432-.504-.108-.144-.252-.108-.36-.144.792-.684.144-1.944.612-2.34zm14.868 1.728c-.54.288-1.08.828-1.332.864h-.144l.036-.072c-.036-.036 0-.072.072-.072h.036c-.612.252-1.872 1.26-2.484 1.26-.18.036-.36 0-.468-.072-.036-.72-.18-1.404-.072-1.98-.108-1.476.18-4.356.072-4.608-.108-.972.108-.324-.756-2.016-.036 0-.216-.036-.216-.144.036-.036.072-.072.072-.108v-.036c-.288-.252-.756-.72-.936-.72-.252.036-.324.144-.504.252-.108-.18-.18-.36-.432-.54-.432.252-.828.144-1.152.288-.72.288-1.584 1.764-2.124 2.304a4.109 4.109 0 01.216-1.584c.108-.144.216-.252.216-.504.144-.72.216-1.656.324-2.268.108-.324.324-.576.288-.828l-.036-.396c-.144.036-.108.072-.216.072h-.036c-.144-.18 0-.432 0-.612-.396-.108-.648-.324-.9-.504.036.18.036.468-.108.612-.252-.324-.468-.54-.648-.792-.288.108-.684.504-1.008.792 0 .288.036.612.036.756-.972 2.556-1.98 5.436-2.664 7.416-.144.54-.108 1.188-.252 1.728a7.362 7.362 0 01-.468 1.116c-.036.72-.324 1.908-.324 2.088a.94.94 0 00.36.648c.144.144.288 1.944 1.188 1.836.252 0-.072-.108.216-.108.18-.036.36.324.612.324.18-.036.972-.828 1.296-1.26.468-.576.828-1.224 1.152-1.836-.036-.144-.036-.216 0-.252 1.008-1.188 2.16-2.844 3.132-3.96.108.036-.036.144.072.18.036 1.044.036 2.448.216 3.168.144 1.116.648 2.304 1.188 3.348.108.36 1.8 1.224 2.196 1.224.252 0 .972.108 1.44.072.108-.18.396-.684.648-.792.288-.324.936-.576 1.116-.9.036-.288.324-.432.504-.612-.144-.18-.036-.396-.144-.576.252-.18.144-.468.288-.612.036.036.072 0 .144-.072l.036-.036a.678.678 0 01-.288-.072c.108-.144.216-.216.324-.324.036-.036-.144-.216-.036-.324.036-.252.108-.504.252-.756zm-6.228-7.236l-.036-.18.252-.036.036.18-.252.036zm13.572 5.724l-.684.828.036.072.684-.9h-.036zm-.936 1.044l-.396.432.108.036.396-.36-.108-.108zm5.472-6.228c-.036-.612-.756-1.26-.72-1.404a7.627 7.627 0 00-1.116-.504c-.252-.036-.504-.324-.648-.36-.108-.288-.252-.36-.144-.648-.18-.252-.684-.936-.864-.936-3.168.18-4.284 3.348-7.056 7.092-.828 1.224-2.376 4.212-2.268 5.904.036.576 0 .792.396 1.512l.108.18c.18.18.288.36.432.504.432.18 1.224.468 1.404.468.252 0 .648-.144.936-.288 0-.108-.108-.18-.108-.288.468-.468 1.044-1.08 1.332-1.332.72-.864 1.584-1.764 2.34-2.736.216-1.044 1.188-1.764 1.692-2.664.108.144 0 .396-.144.576.324-.396.468-.648.576-.756-.108.108-.144.252-.288.252.144-.324.288-.612.432-.72.036.036.036.036.036.072l.036.036c-1.44 6.948-3.096 12.456-3.24 18.684 0 .396-.036 1.008-.036 1.152 0 .252.144 1.26.324 1.944.036.468.468.972.756 1.44.144.036.468.18.576.324.252.18.576.396.72.396.18-.036.072-.144.18-.288.468.18.792.252 1.008.216l-.072-1.26c-.288-.324-.396-.54-.684-.792a.484.484 0 01-.252.216l-.144.108h-.144v-.036c0-.324-.144-.756-.144-.936-.036-.468.252-1.152.288-1.62.108-.252 0-.648 0-.828.288-2.052.936-4.752 1.224-6.336.036-.144-.036-.288-.036-.396a104.046 104.046 0 001.584-7.236c.54-2.124 1.08-4.212 1.368-6.264.108-.828.36-2.268.36-2.448zm-4.14.504c0 .468-2.448 3.888-2.556 3.996-.72.828-1.836 2.016-2.808 3.024.612-1.26 1.44-3.24 2.196-4.572.18-.432.828-.936 1.116-1.548.252-.54.9-1.512 1.368-1.944-.108.252-.144.432-.036.612l.144-.18.036.432c.108 0 .216.072.324.18.144-.144.072-.288.216-.288v.288zm15.66-3.744c0-.252-.288-.828-.576-1.008 0-.144 0-.252-.036-.396-.36-.36-.9-.756-1.584-1.152-.684-.432-1.296-.612-1.872-.54-.144-.108-.108-.144-.396-.144-.9 0-1.008 3.204-1.008 3.636-.108.756-.216 1.188-.216 1.656 0 .18.108.396.108.576 0 .576-.252 1.26-.252 1.8 0 1.62.18 5.328-.684 7.38-.18.54-.468 1.152-.9 1.548-.72-.468-.72-1.404-1.116-2.088a.497.497 0 00-.396.216l-.144-.144c.18-.396-.216-.684-.36-.972.036-.18 0-.396-.144-.648.324-.324.18-.252 0-.432 0-.324.108-.576-.036-.576-.144-.144-.216-.108-.324-.252.036-.252.18-.54.144-.72a.678.678 0 01-.288.072c-.432.612-.756 1.764-.756 2.196 0 1.476 1.62 4.248 2.772 4.932.144 0 1.008 1.008 1.656 1.008.288 0 .18-.144.288-.036.144.036.072.144.36.144 2.124 0 2.52-3.384 2.7-4.716.468-2.736.18-5.544.504-8.244a.43.43 0 01.288-.324c.324.324.9.576 1.08.576.252 0 .612-.108.756-.252.324-.684.396-1.944.288-2.664.108-.108.144-.18.144-.432zm-8.604 10.656h-.144v.54h.144v-.54zm42.48-.18c-.324.144-.72.324-1.044.36-.648.108-2.52 1.08-2.772 1.08-.252 0-.18-.144-.612 0-.18-.324-.216-.792-.216-.972l.612-5.076c0-1.008-.18-1.908-1.476-2.808-.324-.18-.864-.108-1.152-.144-.18-.036-.36-.396-.54-.396-.324 0-2.7 2.664-2.88 2.916-.288.324-.9.792-1.188 1.116-.252.252-.576.864-.9.864L249.866 6.3c.18-.396.288-1.044.288-1.296 0-.324-.072-1.368-.36-1.908-.036 0-.108-.072-.18-.216-.288 0-.648-.288-.936-.288-.972 0-1.116.648-1.656 1.764-.576 1.512-1.656 3.996-2.124 5.436.108.18.108.36.036.576-.396.9-.864 2.304-1.044 3.276-.036.072-.108.144-.216.252-.036.288-.288.684-.288 1.008 0 .036-.54 1.368-1.008 2.916-.252.756-.468 1.728-.648 2.952s-.288 2.016-.288 2.412c0 .288.18 1.116.18 1.656.324.324.36.756.54 1.044.252.396.468.612.648 1.008.324-.18.648-.396.828-.396.252 0 .108.036.252.036-.072 0-.108 0-.108-.036v-.036c.936-.828 1.8-2.016 2.592-3.492s1.692-2.556 2.736-3.24l.072.504c-.144.828-.144 1.548-.108 2.304.036.756.18 1.548.432 2.34.144.288.468.684.576.972.18.252.324.648.432.828.18.108 1.188.864 1.368.864.288 0 1.008.108 1.26.108.288 0 .972-.504 1.26-.648-.036 0-.108-.036-.216-.144.54-.396.756-.792 1.044-.936.108-.18.072-.54.216-.648.144-.288.504-.324.684-.504.252-.252.324-.792.612-.936-.288.144-.612.108-.9.288-.036-.036-.072-.036-.072-.072v-.072c.54-.324.936-.576 1.188-.828zm15.228-.072c-.216.108-4.212 1.98-4.752 1.98-.288 0-.684.18-1.08.036 0-.324-.108-.936-.108-1.116 0-.216.396-3.816.792-5.724.288-1.368 1.044-3.744 1.044-3.996 0-.288-.108 0-.108-.144.144-.144-.036-.648-.144-.828-.288-.324-1.152-.72-1.584-.72-.18 0 .072.108-.216.108-.252 0-.072-.288-.324-.288-.468 0-.18.252-.612.72-.18 0-.396-.072-.576-.072-.18 0-.36-.108-.612-.324h-.288a1.197 1.197 0 01-.432.504c-.18.144-.432.072-.756.216-.108.108.036.216-.072.324-.324.288-.72.756-1.044.9-.468.324-1.188 1.044-1.44 1.368-1.224 1.62-4.14 6.552-4.14 8.748 0 .18.252.792.288 1.08.684.576 1.08 1.332 2.268 1.332.18 0 .576-.144.756-.144 1.08 0 2.916-2.7 3.312-3.276.432-.72.828-1.224 1.224-1.908.108.684.108 1.404.108 1.836 0 .252 1.332 3.24 2.808 3.24h1.512c.324 0 1.548-1.116 2.304-1.224-.108 0-.288-.216-.288-.252.54-.396 1.08-.864 1.368-1.188-.108-.18-.036-.324.144-.504.108-.252.54-.396.648-.684zm-8.676-6.264c-1.044 1.728-2.016 3.744-3.168 5.148l-.216-.252c.864-1.692 1.98-3.636 3.168-5.076 0 .108-.144.252 0 .396l.216-.216zm19.62.792c0-.828-.216-2.088-1.332-2.628-.18-.144-.54-.504-.792-.648-.612-.144-1.584-.396-1.872-.396-1.008 0-3.096 2.052-3.528 2.772-.036-.036-.072-.036-.072-.072v-.072c.18-.396.612-.792.792-1.044-.036 0-.144.036-.18.036h-.144l-.18-.144c.468-1.476 1.08-4.32 1.08-4.464 0-.324-.324-1.692-.432-2.34-.54-.396-1.08-.972-1.26-.972-.252 0-.252.288-.432.288-.288 0-.216-.108-.36-.108.144.252.18.432.108.576-.54 2.124-1.332 4.644-2.052 6.768.108.288.108.756 0 .936-.288.756-.54 1.512-.72 2.268-.036.324.144.612.036.9-.612 2.988-1.26 6.192-1.872 8.82-.468.144-.792 1.332-.936 1.656-.144.396 0 .9-.144 1.08-.144.144-.252.252-.252.396-.036.576.108.972.072 1.296-.108.252-.216.54-.36.72.396.324.648.612.972.936-.036.144 0 .252 0 .288.18.036.396.36.576.36.288 0 .18-.216.468-.216.252 0-.072.216.18.216h.252c.288-.324.54-.972.576-1.296.324-1.476.468-2.988.936-4.392.18-.612.54-1.512.648-2.088.396-1.836 1.116-4.86 1.62-5.832.18-.54.684-1.044.864-1.44.144.144-.144.216.108.216.216 0 .972-1.548 1.512-1.908.972-.828 1.8-1.224 2.484-1.116-.324 1.692-1.26 3.852-3.132 5.4-.432.324-.936.972-1.188.972-.18 0-.36-.144-.396-.144.18 0 .252.072.252.252-.324.18-.612.54-.612.72 0 .144.972 1.728 1.476 2.412h.288c.252 0 .288-.072.432.072v.072c.18 0 .756.036.936-.072 2.808-1.548 5.58-6.12 5.58-9.036zm13.896 0c0-.828-.216-2.088-1.332-2.628-.18-.144-.54-.504-.792-.648-.612-.144-1.584-.396-1.872-.396-1.008 0-3.096 2.052-3.528 2.772-.036-.036-.072-.036-.072-.072v-.072c.18-.396.612-.792.792-1.044-.036 0-.144.036-.18.036h-.144l-.18-.144c.468-1.476 1.08-4.32 1.08-4.464 0-.324-.324-1.692-.432-2.34-.54-.396-1.08-.972-1.26-.972-.252 0-.252.288-.432.288-.288 0-.216-.108-.36-.108.144.252.18.432.108.576-.54 2.124-1.332 4.644-2.052 6.768.108.288.108.756 0 .936-.288.756-.54 1.512-.72 2.268-.036.324.144.612.036.9-.612 2.988-1.26 6.192-1.872 8.82-.468.144-.792 1.332-.936 1.656-.144.396 0 .9-.144 1.08-.144.144-.252.252-.252.396-.036.576.108.972.072 1.296-.108.252-.216.54-.36.72.396.324.648.612.972.936-.036.144 0 .252 0 .288.18.036.396.36.576.36.288 0 .18-.216.468-.216.252 0-.072.216.18.216h.252c.288-.324.54-.972.576-1.296.324-1.476.468-2.988.936-4.392.18-.612.54-1.512.648-2.088.396-1.836 1.116-4.86 1.62-5.832.18-.54.684-1.044.864-1.44.144.144-.144.216.108.216.216 0 .972-1.548 1.512-1.908.972-.828 1.8-1.224 2.484-1.116-.324 1.692-1.26 3.852-3.132 5.4-.432.324-.936.972-1.188.972-.18 0-.36-.144-.396-.144.18 0 .252.072.252.252-.324.18-.612.54-.612.72 0 .144.972 1.728 1.476 2.412h.288c.252 0 .288-.072.432.072v.072c.18 0 .756.036.936-.072 2.808-1.548 5.58-6.12 5.58-9.036zm10.26 6.264a.516.516 0 01-.36-.144c-.72.18-1.62.504-2.592.792-.576-.252-.864.108-1.26.108-.252 0-.792.036-1.044-.108-.432-.18-1.08-.612-1.08-.9 0-.324 2.052-2.376 3.096-3.636.612-.756 1.368-1.836 1.656-2.412.288-.9.684-2.7.684-2.916 0-.936-.72-.144-.72-1.656-.144-.144-.252-.324-.432-.324-.252 0 .036.108-.252.108-.252 0-.144-.36-.252-.684-.324-.108-.828-.432-1.008-.432-.288 0 .072.108-.216.108-.108 0-.144-.036-.144-.108 0-.036.036-.036.072-.072.108.396-.648.612-.972.756-.72.432-.792.792-1.332 1.26-.252.468-.684 1.008-.936 1.332-.54.864-.9 1.692-1.188 2.268-.54 1.116-1.08 2.52-1.224 3.204-.144.576-.468 1.332-.288 2.772.684 2.88.36 1.98 1.008 2.556.9.972 1.188 1.224 2.232 1.476l.396.54c.108-.72 1.152 0 1.584 0 .108 0 .144-.036.144-.072v-.108c.396-.036.936-.36 1.332-.396-.144 0-.324-.036-.144-.144.54 0 .972-.072 1.404-.216 0-.576.324-1.368.936-1.224.144-.324.252-.684.396-.864-.252-.072-.396-.18-.396-.36.324-.108.504-.36.9-.504zm15.588-1.26c-.54.288-1.08.828-1.332.864h-.144l.036-.072c-.036-.036 0-.072.072-.072h.036c-.612.252-1.872 1.26-2.484 1.26-.18.036-.36 0-.468-.072-.036-.72-.18-1.404-.072-1.98-.108-1.476.18-4.356.072-4.608-.108-.972.108-.324-.756-2.016-.036 0-.216-.036-.216-.144.036-.036.072-.072.072-.108v-.036c-.288-.252-.756-.72-.936-.72-.252.036-.324.144-.504.252-.108-.18-.18-.36-.432-.54-.432.252-.828.144-1.152.288-.72.288-1.584 1.764-2.124 2.304a4.109 4.109 0 01.216-1.584c.108-.144.216-.252.216-.504.144-.72.216-1.656.324-2.268.108-.324.324-.576.288-.828l-.036-.396c-.144.036-.108.072-.216.072h-.036c-.144-.18 0-.432 0-.612-.396-.108-.648-.324-.9-.504.036.18.036.468-.108.612-.252-.324-.468-.54-.648-.792-.288.108-.684.504-1.008.792 0 .288.036.612.036.756-.972 2.556-1.98 5.436-2.664 7.416-.144.54-.108 1.188-.252 1.728a7.362 7.362 0 01-.468 1.116c-.036.72-.324 1.908-.324 2.088a.94.94 0 00.36.648c.144.144.288 1.944 1.188 1.836.252 0-.072-.108.216-.108.18-.036.36.324.612.324.18-.036.972-.828 1.296-1.26.468-.576.828-1.224 1.152-1.836-.036-.144-.036-.216 0-.252 1.008-1.188 2.16-2.844 3.132-3.96.108.036-.036.144.072.18.036 1.044.036 2.448.216 3.168.144 1.116.648 2.304 1.188 3.348.108.36 1.8 1.224 2.196 1.224.252 0 .972.108 1.44.072.108-.18.396-.684.648-.792.288-.324.936-.576 1.116-.9.036-.288.324-.432.504-.612-.144-.18-.036-.396-.144-.576.252-.18.144-.468.288-.612.036.036.072 0 .144-.072l.036-.036a.678.678 0 01-.288-.072c.108-.144.216-.216.324-.324.036-.036-.144-.216-.036-.324.036-.252.108-.504.252-.756zm-6.228-7.236l-.036-.18.252-.036.036.18-.252.036zm41.328 2.088c0-1.044-.396-2.592-.972-3.636-.252 0-.504-.072-.756-.216v-.288c-.108 0-.216.072-.324.216-.18-.18-.144-.396-.252-.432 0-.108-.396-.108-.432-.252-.108-.108-.144-.216-.144-.288 0 .612-.144 1.224-.144 1.548 0 .9.108 2.016.072 2.628-.108 1.332-.54 3.996-1.692 5.508-.18-.828-.576-1.764-.864-3.096-.288-1.332-1.116-1.908-2.088-2.088-.252-.144-.396-.504-.684-.504-.72 0-1.044.108-1.332.432-.252.288-.36.54-1.548 2.232-.792.9-2.34 2.88-2.844 3.276v-.144c-.468-.972.324-2.34 1.152-3.636l2.268-3.6v-.324c.324-.288.432-.684.684-.864-.18-.468-.324-1.116-.72-1.404-.756-.684-1.188-.504-1.872-.612-1.008 1.44-2.196 3.132-2.664 4.104-.54.9-1.476 2.34-2.232 3.888-.72 1.476-.648 3.132-.648 4.176 0 .504.684 2.196 1.116 2.448.288.288.936.612 1.224.612h1.26v-.396c.54-.288 1.584-.936 2.052-1.512.756-1.152 2.016-2.16 3.132-3.492.144 0 .252-.216.36-.072 0-.396.432-.648.54-.828.18-.324.468-.756.648-.936.288 1.044.504 2.088.828 3.06.18.828.468 1.692.792 2.556.144.324.324.54.504.684.252.216.612.432 1.08.648.468.18.72.288.828.288.252 0 .468-.072.576-.252.288-.396.72-.864 1.044-1.296.54-.864 1.116-1.98 1.368-3.24.324-1.692.684-3.168.684-4.896zm16.092 5.688c-.324.144-.72.324-1.044.36-.648.108-2.52 1.08-2.772 1.08-.252 0-.18-.144-.612 0-.18-.324-.216-.792-.216-.972l.612-5.076c0-1.008-.18-1.908-1.476-2.808-.324-.18-.864-.108-1.152-.144-.18-.036-.36-.396-.54-.396-.324 0-2.7 2.664-2.88 2.916-.288.324-.9.792-1.188 1.116-.252.252-.576.864-.9.864L366.974 6.3c.18-.396.288-1.044.288-1.296 0-.324-.072-1.368-.36-1.908-.036 0-.108-.072-.18-.216-.288 0-.648-.288-.936-.288-.972 0-1.116.648-1.656 1.764-.576 1.512-1.656 3.996-2.124 5.436.108.18.108.36.036.576-.396.9-.864 2.304-1.044 3.276-.036.072-.108.144-.216.252-.036.288-.288.684-.288 1.008 0 .036-.54 1.368-1.008 2.916-.252.756-.468 1.728-.648 2.952s-.288 2.016-.288 2.412c0 .288.18 1.116.18 1.656.324.324.36.756.54 1.044.252.396.468.612.648 1.008.324-.18.648-.396.828-.396.252 0 .108.036.252.036-.072 0-.108 0-.108-.036v-.036c.936-.828 1.8-2.016 2.592-3.492s1.692-2.556 2.736-3.24l.072.504c-.144.828-.144 1.548-.108 2.304.036.756.18 1.548.432 2.34.144.288.468.684.576.972.18.252.324.648.432.828.18.108 1.188.864 1.368.864.288 0 1.008.108 1.26.108.288 0 .972-.504 1.26-.648-.036 0-.108-.036-.216-.144.54-.396.756-.792 1.044-.936.108-.18.072-.54.216-.648.144-.288.504-.324.684-.504.252-.252.324-.792.612-.936-.288.144-.612.108-.9.288-.036-.036-.072-.036-.072-.072v-.072c.54-.324.936-.576 1.188-.828zm7.92.72a.516.516 0 01-.36-.144c-.72.18-1.62.504-2.592.792-.576-.252-.864.108-1.26.108-.252 0-.792.036-1.044-.108-.432-.18-1.08-.612-1.08-.9 0-.324 2.052-2.376 3.096-3.636.612-.756 1.368-1.836 1.656-2.412.288-.9.684-2.7.684-2.916 0-.936-.72-.144-.72-1.656-.144-.144-.252-.324-.432-.324-.252 0 .036.108-.252.108-.252 0-.144-.36-.252-.684-.324-.108-.828-.432-1.008-.432-.288 0 .072.108-.216.108-.108 0-.144-.036-.144-.108 0-.036.036-.036.072-.072.108.396-.648.612-.972.756-.72.432-.792.792-1.332 1.26-.252.468-.684 1.008-.936 1.332-.54.864-.9 1.692-1.188 2.268-.54 1.116-1.08 2.52-1.224 3.204-.144.576-.468 1.332-.288 2.772.684 2.88.36 1.98 1.008 2.556.9.972 1.188 1.224 2.232 1.476l.396.54c.108-.72 1.152 0 1.584 0 .108 0 .144-.036.144-.072v-.108c.396-.036.936-.36 1.332-.396-.144 0-.324-.036-.144-.144.54 0 .972-.072 1.404-.216 0-.576.324-1.368.936-1.224.144-.324.252-.684.396-.864-.252-.072-.396-.18-.396-.36.324-.108.504-.36.9-.504zm15.588-1.26c-.54.288-1.08.828-1.332.864h-.144l.036-.072c-.036-.036 0-.072.072-.072h.036c-.612.252-1.872 1.26-2.484 1.26-.18.036-.36 0-.468-.072-.036-.72-.18-1.404-.072-1.98-.108-1.476.18-4.356.072-4.608-.108-.972.108-.324-.756-2.016-.036 0-.216-.036-.216-.144.036-.036.072-.072.072-.108v-.036c-.288-.252-.756-.72-.936-.72-.252.036-.324.144-.504.252-.108-.18-.18-.36-.432-.54-.432.252-.828.144-1.152.288-.72.288-1.584 1.764-2.124 2.304a4.109 4.109 0 01.216-1.584c.108-.144.216-.252.216-.504.144-.72.216-1.656.324-2.268.108-.324.324-.576.288-.828l-.036-.396c-.144.036-.108.072-.216.072h-.036c-.144-.18 0-.432 0-.612-.396-.108-.648-.324-.9-.504.036.18.036.468-.108.612-.252-.324-.468-.54-.648-.792-.288.108-.684.504-1.008.792 0 .288.036.612.036.756-.972 2.556-1.98 5.436-2.664 7.416-.144.54-.108 1.188-.252 1.728a7.362 7.362 0 01-.468 1.116c-.036.72-.324 1.908-.324 2.088a.94.94 0 00.36.648c.144.144.288 1.944 1.188 1.836.252 0-.072-.108.216-.108.18-.036.36.324.612.324.18-.036.972-.828 1.296-1.26.468-.576.828-1.224 1.152-1.836-.036-.144-.036-.216 0-.252 1.008-1.188 2.16-2.844 3.132-3.96.108.036-.036.144.072.18.036 1.044.036 2.448.216 3.168.144 1.116.648 2.304 1.188 3.348.108.36 1.8 1.224 2.196 1.224.252 0 .972.108 1.44.072.108-.18.396-.684.648-.792.288-.324.936-.576 1.116-.9.036-.288.324-.432.504-.612-.144-.18-.036-.396-.144-.576.252-.18.144-.468.288-.612.036.036.072 0 .144-.072l.036-.036a.678.678 0 01-.288-.072c.108-.144.216-.216.324-.324.036-.036-.144-.216-.036-.324.036-.252.108-.504.252-.756zm-6.228-7.236l-.036-.18.252-.036.036.18-.252.036zM20.296 51.304c0-.252-.54-1.116-.864-1.548-.252.108-.432.144-.576.036.144-.18-.072-.216-.216-.468-.144.324-.252.396-.576.504-.144-.144-.324-.216-.432-.324.036.288-.324.72-.432 1.008-.144.18-.324.396-.36.54-1.404 2.304-1.98 5.976-2.304 7.74-.18.972-.396 2.124-.648 3.132l-.072.072-.072.036-2.664.36c-1.152.144-2.448.288-3.492.54-.108-.144-.036.036-.036-.216s1.584-6.444 2.088-7.812c-.108-.144-.144-.252-.108-.288.288-.792.396-2.988.396-3.168-.072-.072-.468-1.44-1.224-1.44-.18 0 .036.072-.216.072-.18 0-.396-.216-.54-.216-.288 0-.576.108-.684-.036 0 .144.108.252-.144.252s0-.072-.252-.072-.216.18-.36.288c.036.108 0 .108.108.144 0 .036 0 .036.036.036-.036.324 0 .792-.036 1.08a578.892 578.892 0 01-1.8 8.424c-.288 1.44-.576 2.412-.9 3.564-.972.288-1.944.468-2.7.756-.288.144-.468.432-.612.54v.288c.18.036.324.216.396.576.072.324.144.576.216.684.684.432 1.368.756 1.944 1.044-.18.864-.504 1.764-.612 2.592-.108.864-.36 2.808-.36 2.952 0 .252.108 1.296.108 1.908 0 .252.936 2.16 1.404 2.16.252 0-.036-.072.216-.072s.72.18.972.324c.108-.324.288-.684.288-.936 0-.18-.216-.396-.252-.576 0-.108.18-.432.18-.576-.252-.108-.36-.252-.36-.396 0-.18.144-.324.144-.432.144-2.196.828-4.824 1.368-6.804.036-.396.144-.648.252-.828-.036 0-.036 0-.036-.036 0-.072 0-.108.036-.144l6.372-1.116c.432-.036.288.756.288.9 0 .18-.18 1.224-.288 1.8-.108.756.072 1.764-.252 2.52.18.144.144.288.144.432 0 .432-.18.864-.216 1.152-.036.612 0 1.476 0 2.088v1.26c0 .18-.18.396-.18.576 0 .252.18.288.144.468.108.288.648.72.9.72s0-.144.252-.144.144.036.144.144c-.036-.18-.036-.288.036-.324.108.108.072.216.072.324.144-.18.396-.288.792-.396.432-3.132 1.188-7.524 1.404-9.18.108-.9.252-1.836.648-2.736.108-.252.396-.252.504-.36.108-.108.36-.468.648-.432-.108 0 0-.144-.036-.252l.108-.216c.108 0 .036.072.216.072.252 0 .9-.396 1.368-.54-.324 0-.54-.108-.612-.288.108-.108.288-.108.432-.216-.612.108-.828-.432-.684-.9a3.915 3.915 0 00-1.296 0v-.72c.18-.288.324-.72.36-.972.18-.576.504-1.224.612-1.656.288-.972.504-2.484.648-2.916.324-.756.54-1.404.684-1.944.18-.828.576-2.16.576-2.412zm-1.692 11.592c0 .108-.216.216-.324.216v-.36c.144 0 .252.036.324.144zm17.784 3.996c-.252-.144-.468-.324-.504-.576l.18-.216c-.144 0-.18-.144-.18-.252-1.008 0-1.944-.036-2.952-.18a.963.963 0 01-.396-.072l.576-4.14c.108-2.016.36-4.032.612-6.048.036-.468-.144-.864-.036-1.26.036-.324.144-.972.144-1.116 0-.252.072-1.872-.288-2.664-.108-.432-.684-.972-.864-.972-.252 0 .072.072-.18.072s-.288-.18-.324-.288c-.144.108-.252 0-.396 0-.252 0-.36-.108-.612-.108-.036 0-.108.036-.18.108l-.036.036c0 .396-.036.972-.216 1.26-.54.972-1.26 1.764-1.656 2.376a75.626 75.626 0 00-1.656 3.24c-1.548 2.988-2.988 6.696-4.536 9.972-.684.252-1.116.252-1.8.288-.468.252-1.368.504-1.62.504a.578.578 0 01-.396-.18c-.108.144-.468.432-.468.612s.648 1.296.828 1.548c.432.324 1.188.72 1.728 1.116-.324.72-.612 1.368-.828 1.98-.432 1.044-.792 2.232-.792 2.556 0 .252.108.756.396.9.252.18.576.216.684.396l.18-.18c.108.144.144.036.252.036 0-.216.072-.396.18-.54.108.108.036.252.18.252.144-.612.36-1.224.648-1.8.108-.288.36-.504.468-.612.756-1.296 1.152-2.484 1.692-3.492.144-.144 3.204-1.008 3.708-1.008h1.332l-.072 4.68c0 .432-.144.9-.036 1.332 0 1.404-.432 2.7.468 3.996.324.18.864.324 1.044.504.036-.144.144-.252.324-.288.144 0 .144-.108.252-.108 0-.252.036-.612.144-.864.756-1.548.18-2.268.468-3.708.288-1.296.108-2.88.216-4.032.036-.108.108-.036.216-.18-.108-.288-.216-.468-.072-.72.108-.324.18-.792.324-1.08.396-.036.72-.108.864-.144 1.008-.288 2.268-.648 2.988-.936zm-7.092-1.116c-1.44.288-2.268-.072-3.168-.072 1.152-2.34 2.232-5.472 3.78-7.884l-.612 7.956zm29.34-14.328c-.144-.036-.252-.216-.36-.324.216-.18.324-.288.288-.36-.108-.072-.144-.144-.036-.252-4.5-.972-6.12-.864-9.684-.864-.108 0-.18.036-.18.072v.108c-.576 0-1.368-.036-1.98.072l-8.136 1.044c-.288-.108-.612-.036-.9-.144a.077.077 0 01-.072-.072l-.036-.036c-.18.252-.648.324-1.188.324-.144 0-.864-.144-1.116-.144-.252 0-.288.252-.288.36.144.468.036 1.152.288 1.62.252.432.468.972.864 1.296.396.216 1.404.936 1.728.936.288 0 1.008-.216 1.44-.072l.144-.18c.288 0 .396.036.504.036 1.44-.108 3.672-.576 4.428-.684.468-.036.864-.036 1.26-.036L44.308 59.8c-.324 2.844-.72 5.724-1.008 8.496l-.072 2.304c-.108 1.404-.144 2.7-.252 4.104 0 .252-.396.504-.576.792.54.432 1.368 1.116 1.548 1.116.288 0 .324-.288.576-.54l.18.18c.144-.144.36-.396.684-.504l1.476-9.9c0-1.656.756-4.428 1.044-6.048.108-.756.324-1.476.504-2.304.108-.396.216-1.008.36-1.332.18-.9.252-1.944.36-2.7 1.836-.54 3.456-.72 5.58-.972.324 0 .936-.396 1.116-.396.18 0 .072.18.324.18.216 0 1.764-.504 2.484-.828zm10.44 18.54c-.072-.324-.288-.396-.648-.18-.144.144-.144.36-.252.396-.54.036-1.62.828-2.016 1.116-.108-.108.036-.252-.144-.252-.216 0-.36 0-.396.036a.993.993 0 01-.54.54c-.576.288-1.188.504-1.764.9-.144.108-.288.36-.432.396-.684.288-1.476.72-2.016.9-.828.324-1.872.54-2.628.828h-.648c-.288 0-.288-.144-.396-.252 0 .108.036.252-.216.252-.864 0-1.656-2.664-1.656-2.808-.036-.252-.036-.576-.036-.828 0-.18-.18-.36-.18-.612s.144-.432.144-.612c0-1.188.396-2.736.684-4.032.108-.54.36-1.152.468-1.62.468-1.116.72-2.232 1.116-3.24.432-.972 1.116-1.8 1.656-2.808.288-.576.756-1.224 1.08-1.764 0-.144 1.62-2.124 2.088-2.124.036 0 .036.036.072.036h.036v.54c0 .216-.648 1.656-.936 2.556.288.144.612.54.756.684.144.036.252-.036.36.072 0 .144-.108.18 0 .324.324-.144.612 0 .792 0 .18 0 .288-.396.576-.504.288-.432.612-.864.792-1.332.108-.288.18-.684.216-.864.108-.396.36-.288.36-.9 0-.252-.036-1.188-.324-1.764-.288-.576-.792-.792-1.332-1.08-.396-.18-.648-.576-.936-.612-.288-.108-1.044-.288-1.224-.288-.252 0 .036.072-.216.072s-.324-.252-.576-.252c-.18 0-.504.288-.684.432-1.62.756-4.32 4.68-5.436 6.732-.108.288-.252.756-.396 1.044-.288.612-.9 1.584-1.044 2.016-.792 2.16-1.62 5.148-1.62 7.128 0 .252.216 1.116.108 1.404.288 1.008.504 2.232 1.476 3.816.324.684.756 1.188 1.044 1.62.216.36 2.448 2.268 3.312 2.268.252 0 .072-.144.324-.144.144 0 .9.144 1.152.144.252 0 .072-.108.18-.252.18.144.432-.072.612-.072.108 0 1.404-.396 1.764-.468.036-.108.036-.18.18-.324.108.144-.036.108.216.108s.18-.072.288-.18c.144 0 .036-.144.036-.252 1.008-.72 2.124-1.476 3.132-2.016.144-.288.288-.468.468-.576.396-.288 1.008-.756 1.296-1.08.324-.432.9-.9 1.476-1.296l-.144-.54.576-.432zm-3.492 1.692l-.108-.072.324-.216.072.108-.288.18zm-.756.612l-.108-.108.108-.216.144.072-.144.252zm19.8-20.988c0-.252-.54-1.116-.864-1.548-.252.108-.432.144-.576.036.144-.18-.072-.216-.216-.468-.144.324-.252.396-.576.504-.144-.144-.324-.216-.432-.324.036.288-.324.72-.432 1.008-.144.18-.324.396-.36.54-1.404 2.304-1.98 5.976-2.304 7.74-.18.972-.396 2.124-.648 3.132l-.072.072-.072.036-2.664.36c-1.152.144-2.448.288-3.492.54-.108-.144-.036.036-.036-.216s1.584-6.444 2.088-7.812c-.108-.144-.144-.252-.108-.288.288-.792.396-2.988.396-3.168-.072-.072-.468-1.44-1.224-1.44-.18 0 .036.072-.216.072-.18 0-.396-.216-.54-.216-.288 0-.576.108-.684-.036 0 .144.108.252-.144.252s0-.072-.252-.072-.216.18-.36.288c.036.108 0 .108.108.144 0 .036 0 .036.036.036-.036.324 0 .792-.036 1.08a578.892 578.892 0 01-1.8 8.424c-.288 1.44-.576 2.412-.9 3.564-.972.288-1.944.468-2.7.756-.288.144-.468.432-.612.54v.288c.18.036.324.216.396.576.072.324.144.576.216.684.684.432 1.368.756 1.944 1.044-.18.864-.504 1.764-.612 2.592-.108.864-.36 2.808-.36 2.952 0 .252.108 1.296.108 1.908 0 .252.936 2.16 1.404 2.16.252 0-.036-.072.216-.072s.72.18.972.324c.108-.324.288-.684.288-.936 0-.18-.216-.396-.252-.576 0-.108.18-.432.18-.576-.252-.108-.36-.252-.36-.396 0-.18.144-.324.144-.432.144-2.196.828-4.824 1.368-6.804.036-.396.144-.648.252-.828-.036 0-.036 0-.036-.036 0-.072 0-.108.036-.144l6.372-1.116c.432-.036.288.756.288.9 0 .18-.18 1.224-.288 1.8-.108.756.072 1.764-.252 2.52.18.144.144.288.144.432 0 .432-.18.864-.216 1.152-.036.612 0 1.476 0 2.088v1.26c0 .18-.18.396-.18.576 0 .252.18.288.144.468.108.288.648.72.9.72s0-.144.252-.144.144.036.144.144c-.036-.18-.036-.288.036-.324.108.108.072.216.072.324.144-.18.396-.288.792-.396.432-3.132 1.188-7.524 1.404-9.18.108-.9.252-1.836.648-2.736.108-.252.396-.252.504-.36.108-.108.36-.468.648-.432-.108 0 0-.144-.036-.252l.108-.216c.108 0 .036.072.216.072.252 0 .9-.396 1.368-.54-.324 0-.54-.108-.612-.288.108-.108.288-.108.432-.216-.612.108-.828-.432-.684-.9a3.915 3.915 0 00-1.296 0v-.72c.18-.288.324-.72.36-.972.18-.576.504-1.224.612-1.656.288-.972.504-2.484.648-2.916.324-.756.54-1.404.684-1.944.18-.828.576-2.16.576-2.412zm-1.692 11.592c0 .108-.216.216-.324.216v-.36c.144 0 .252.036.324.144zm9.9 9.972a.516.516 0 01-.36-.144c-.72.18-1.62.504-2.592.792-.576-.252-.864.108-1.26.108-.252 0-.792.036-1.044-.108-.432-.18-1.08-.612-1.08-.9 0-.324 2.052-2.376 3.096-3.636.612-.756 1.368-1.836 1.656-2.412.288-.9.684-2.7.684-2.916 0-.936-.72-.144-.72-1.656-.144-.144-.252-.324-.432-.324-.252 0 .036.108-.252.108-.252 0-.144-.36-.252-.684-.324-.108-.828-.432-1.008-.432-.288 0 .072.108-.216.108-.108 0-.144-.036-.144-.108 0-.036.036-.036.072-.072.108.396-.648.612-.972.756-.72.432-.792.792-1.332 1.26-.252.468-.684 1.008-.936 1.332-.54.864-.9 1.692-1.188 2.268-.54 1.116-1.08 2.52-1.224 3.204-.144.576-.468 1.332-.288 2.772.684 2.88.36 1.98 1.008 2.556.9.972 1.188 1.224 2.232 1.476l.396.54c.108-.72 1.152 0 1.584 0 .108 0 .144-.036.144-.072v-.108c.396-.036.936-.36 1.332-.396-.144 0-.324-.036-.144-.144.54 0 .972-.072 1.404-.216 0-.576.324-1.368.936-1.224.144-.324.252-.684.396-.864-.252-.072-.396-.18-.396-.36.324-.108.504-.36.9-.504zm11.052-7.92c-.18-.288-.252-.612-.396-.792-.828-1.008-2.412-1.62-3.456-1.62-1.152 0-3.132 1.512-3.492 2.412 0-.54.144-.864.108-1.26-.036-.54-.18-1.044-.36-1.584-.18-.468-.9-1.008-1.296-1.008h-.432c-.18.684-.216 1.476-.324 2.16-.108 1.044-.252 2.124-.36 2.952-.108 1.404-.36 2.736-.684 4.068-.072.972-.648 2.952-.648 3.168 0 .576.36 1.116.612 1.872.396-.108.252.36.396.504.324.144.864.396 1.008.396.252 0 .468-.072.684-.216-.324-1.008.144-2.196.612-3.168.144-.288.108-.648.288-.9.252-.252.468-.432.612-.756.036-.036-.072-.108-.072-.252.36-.468.648-.936.864-1.332 0-.036-.252-.108-.144-.252 0-.036.036-.072.108-.072h.036c.144 0 .144-.072.252-.072 0-.144-.144-.18-.108-.288 0 0 .036-.036.108-.144.036-.036.072-.036.108-.036-.072-.072-.036-.216.072-.432.108 0 .144.072.144.18.9-1.404 2.088-3.096 3.528-3.636.108.468.144.792.18 1.044.684-.144 1.116 0 1.512 0-.144-.324.396-.612.54-.936zm8.424-3.276c0-.252-.288-.828-.576-1.008 0-.144 0-.252-.036-.396-.36-.36-.9-.756-1.584-1.152-.684-.432-1.296-.612-1.872-.54-.144-.108-.108-.144-.396-.144-.9 0-1.008 3.204-1.008 3.636-.108.756-.216 1.188-.216 1.656 0 .18.108.396.108.576 0 .576-.252 1.26-.252 1.8 0 1.62.18 5.328-.684 7.38-.18.54-.468 1.152-.9 1.548-.72-.468-.72-1.404-1.116-2.088a.497.497 0 00-.396.216l-.144-.144c.18-.396-.216-.684-.36-.972.036-.18 0-.396-.144-.648.324-.324.18-.252 0-.432 0-.324.108-.576-.036-.576-.144-.144-.216-.108-.324-.252.036-.252.18-.54.144-.72a.678.678 0 01-.288.072c-.432.612-.756 1.764-.756 2.196 0 1.476 1.62 4.248 2.772 4.932.144 0 1.008 1.008 1.656 1.008.288 0 .18-.144.288-.036.144.036.072.144.36.144 2.124 0 2.52-3.384 2.7-4.716.468-2.736.18-5.544.504-8.244a.43.43 0 01.288-.324c.324.324.9.576 1.08.576.252 0 .612-.108.756-.252.324-.684.396-1.944.288-2.664.108-.108.144-.18.144-.432zm-8.604 10.656h-.144v.54h.144v-.54zm35.208-2.232l-.684.828.036.072.684-.9h-.036zm-.936 1.044l-.396.432.108.036.396-.36-.108-.108zm5.472-6.228c-.036-.612-.756-1.26-.72-1.404a7.627 7.627 0 00-1.116-.504c-.252-.036-.504-.324-.648-.36-.108-.288-.252-.36-.144-.648-.18-.252-.684-.936-.864-.936-3.168.18-4.284 3.348-7.056 7.092-.828 1.224-2.376 4.212-2.268 5.904.036.576 0 .792.396 1.512l.108.18c.18.18.288.36.432.504.432.18 1.224.468 1.404.468.252 0 .648-.144.936-.288 0-.108-.108-.18-.108-.288.468-.468 1.044-1.08 1.332-1.332.72-.864 1.584-1.764 2.34-2.736.216-1.044 1.188-1.764 1.692-2.664.108.144 0 .396-.144.576.324-.396.468-.648.576-.756-.108.108-.144.252-.288.252.144-.324.288-.612.432-.72.036.036.036.036.036.072l.036.036c-1.44 6.948-3.096 12.456-3.24 18.684 0 .396-.036 1.008-.036 1.152 0 .252.144 1.26.324 1.944.036.468.468.972.756 1.44.144.036.468.18.576.324.252.18.576.396.72.396.18-.036.072-.144.18-.288.468.18.792.252 1.008.216l-.072-1.26c-.288-.324-.396-.54-.684-.792a.484.484 0 01-.252.216l-.144.108h-.144v-.036c0-.324-.144-.756-.144-.936-.036-.468.252-1.152.288-1.62.108-.252 0-.648 0-.828.288-2.052.936-4.752 1.224-6.336.036-.144-.036-.288-.036-.396a104.046 104.046 0 001.584-7.236c.54-2.124 1.08-4.212 1.368-6.264.108-.828.36-2.268.36-2.448zm-4.14.504c0 .468-2.448 3.888-2.556 3.996-.72.828-1.836 2.016-2.808 3.024.612-1.26 1.44-3.24 2.196-4.572.18-.432.828-.936 1.116-1.548.252-.54.9-1.512 1.368-1.944-.108.252-.144.432-.036.612l.144-.18.036.432c.108 0 .216.072.324.18.144-.144.072-.288.216-.288v.288zm11.988-8.424c-.432-.396-.18-.9-.36-1.08-.108-.252-.432-.432-.684-.756-.9.108-1.08.504-2.7.396.18.324.072.936.216 1.224.18.612.504 1.512 1.044 1.8.108.108.072.144.108.252.396.18.9.504 1.44.468 1.728-.108.324-1.404.936-2.304zm1.296 12.888c-1.188 1.188-2.88 2.52-4.572 3.276-.252-.864.072-1.332.504-2.808.108-.324.18-.972.324-1.296.252-.396.432-1.044.54-1.872.108-.864.252-1.512.36-1.944.036-.288.18-.504.18-.684-.036-.468-.324-.9-.864-1.296-.504-.396-.972-.612-1.44-.576-.288.036-.54.18-.828.18-.252.252-.288.54-.432.648-.036.252-.036.396-.036.504-.468.972-.864 2.232-1.188 3.78l-.396 1.512c-.18.684-.288 1.944-.252 2.376.108 1.584 1.368 4.608 3.78 4.428.252 0 1.008-.216 1.44-.468.288-.144.216-.396.216-.504.432-.54 1.296-1.332 1.872-1.656-.036-.252 0-.468.108-.612.144-.108.396-.324.432-.504-.108-.144-.252-.108-.36-.144.792-.684.144-1.944.612-2.34zm11.664-5.904l-.216.216.108.108.216-.288-.108-.036zm1.368-3.384c-.396-.144-.252-.288-.684-.036-.144.036-.936.504-1.368.756-.18.18-.216.324-.36.468-.792.36-2.232 2.088-2.7 2.448-1.332 1.476-2.736 3.42-3.996 5.4-.468-2.016-.756-3.204-.756-4.32-.252-.684-.36-1.404-.684-1.872-.36-.468-1.584-1.188-1.764-1.116-.18 0 .036.036-.144.036-.252.036-.144-.144-.396-.036l-.468.036.072.648c0 .288.252.576.288.72.288 1.476.36 2.988.396 4.176.18 2.016.432 6.084.432 6.228.108.504 1.476 3.06 2.736 2.88l.468-.072c.18-.036.396-.216.432-.252.18-.576.396-1.224.684-1.656.216-.792.972-2.556 1.368-2.88.576-.936 2.088-3.564 2.952-4.968.468-.576 1.332-1.98 1.872-2.88-.036.072-.144.072-.252-.036.288-.324.72-.756 1.008-1.152-.108-.468.468-1.044.864-1.476-.288-.108-.432-.144-.432-.18.036-.144.216-.252.18-.396h-.108c-.036 0-.072 0-.072-.036l.432-.432zm7.884 12.276a.516.516 0 01-.36-.144c-.72.18-1.62.504-2.592.792-.576-.252-.864.108-1.26.108-.252 0-.792.036-1.044-.108-.432-.18-1.08-.612-1.08-.9 0-.324 2.052-2.376 3.096-3.636.612-.756 1.368-1.836 1.656-2.412.288-.9.684-2.7.684-2.916 0-.936-.72-.144-.72-1.656-.144-.144-.252-.324-.432-.324-.252 0 .036.108-.252.108-.252 0-.144-.36-.252-.684-.324-.108-.828-.432-1.008-.432-.288 0 .072.108-.216.108-.108 0-.144-.036-.144-.108 0-.036.036-.036.072-.072.108.396-.648.612-.972.756-.72.432-.792.792-1.332 1.26-.252.468-.684 1.008-.936 1.332-.54.864-.9 1.692-1.188 2.268-.54 1.116-1.08 2.52-1.224 3.204-.144.576-.468 1.332-.288 2.772.684 2.88.36 1.98 1.008 2.556.9.972 1.188 1.224 2.232 1.476l.396.54c.108-.72 1.152 0 1.584 0 .108 0 .144-.036.144-.072v-.108c.396-.036.936-.36 1.332-.396-.144 0-.324-.036-.144-.144.54 0 .972-.072 1.404-.216 0-.576.324-1.368.936-1.224.144-.324.252-.684.396-.864-.252-.072-.396-.18-.396-.36.324-.108.504-.36.9-.504zm27.828-24.3c0-.036-1.008-1.332-1.26-1.26-.252 0-.648 0-.936.144-.432.756-.612 1.836-.864 2.556-1.26 4.32-3.24 11.16-4.68 15.948 0 .144-1.116 3.6-1.008 4.284-.036 0 1.152 2.448 1.656 2.412.252-.036.936.072 1.224.036.252-.036.648-.576.936-.828-.108.18-.216.18-.324.036.288-.72 1.728-2.196 1.548-2.736.144 0 .144.072.288.036.144-.468.432-.864 1.116-1.26.324-.18.396-.72.648-.72l.072.468c-.324.9-.72 2.376-1.188 3.348-.288.792-1.44 2.772-1.908 2.88-.684 0-.108-.504-.828-.9-.144.144-.468.972-.432 1.26 0 .54 1.044 1.764 1.188 1.908.144.144.288.36.54.36.252-.036-.036-.108.252-.144.252-.036.468.144.72.18v.108l-.072.036c.324-.108.756-.648.936-.684.288 0 .036.18.288.18.432-.108 2.088-3.132 2.484-3.708.288-.684.72-1.764.9-2.304.18-.756.396-1.944.36-2.124-.18-1.944-2.376-3.24-4.212-3.06-.576.108-1.044.216-1.476.648l-.144-.144c.396-1.152.9-2.304 1.08-3.204.972-3.492 2.196-8.064 2.772-10.728l.216-1.224c.108-.576.072-1.044-.108-1.404.108-.144.252-.108.216-.396zm18.936 23.508c-.216.108-4.212 1.98-4.752 1.98-.288 0-.684.18-1.08.036 0-.324-.108-.936-.108-1.116 0-.216.396-3.816.792-5.724.288-1.368 1.044-3.744 1.044-3.996 0-.288-.108 0-.108-.144.144-.144-.036-.648-.144-.828-.288-.324-1.152-.72-1.584-.72-.18 0 .072.108-.216.108-.252 0-.072-.288-.324-.288-.468 0-.18.252-.612.72-.18 0-.396-.072-.576-.072-.18 0-.36-.108-.612-.324h-.288a1.197 1.197 0 01-.432.504c-.18.144-.432.072-.756.216-.108.108.036.216-.072.324-.324.288-.72.756-1.044.9-.468.324-1.188 1.044-1.44 1.368-1.224 1.62-4.14 6.552-4.14 8.748 0 .18.252.792.288 1.08.684.576 1.08 1.332 2.268 1.332.18 0 .576-.144.756-.144 1.08 0 2.916-2.7 3.312-3.276.432-.72.828-1.224 1.224-1.908.108.684.108 1.404.108 1.836 0 .252 1.332 3.24 2.808 3.24h1.512c.324 0 1.548-1.116 2.304-1.224-.108 0-.288-.216-.288-.252.54-.396 1.08-.864 1.368-1.188-.108-.18-.036-.324.144-.504.108-.252.54-.396.648-.684zm-8.676-6.264c-1.044 1.728-2.016 3.744-3.168 5.148l-.216-.252c.864-1.692 1.98-3.636 3.168-5.076 0 .108-.144.252 0 .396l.216-.216zm18.324 3.744c-.864.396-2.016 1.044-2.448 1.296-1.692.864-3.348 1.404-4.644 1.944-.576.252-1.404.648-1.584.648-.18 0-.72-.108-1.044-.252v-.504c0-.18.612-2.268.972-3.096a25.556 25.556 0 012.988-4.896h.108v.036c-.144.396.18.72.324 1.116.144.54.432.972 1.008.972.252 0 .432-.036.54-.108.396-.216.792-2.34.792-2.7 0-.288-.18-.972-.36-1.368-.252-.576-1.008-1.152-1.404-1.404-.396-.18-1.332-.36-1.512-.36-.288 0-.36.252-.612.396-.288.144-.684.108-.828.36-.576.612-1.08 1.62-1.512 2.16 0-.036.036-.072.144-.18.036.036.036.072.036.108-.18.396-.504.648-.828.972-.468.576-.828 1.26-1.152 1.98-.036.18 0 .432-.108.468-.36.612-.612 1.404-.792 2.34-.18.9-.252 1.62-.252 2.16 0 .252.036.612.036.9.108 1.584 1.728 3.564 3.6 3.564.792 0 2.664-.648 3.06-.864.18-.144.288-.468.432-.612 1.296-.756 2.232-1.404 3.096-1.872v-.36c-.108 0-.18-.036-.18-.144.396-.396.972-.756 1.404-1.152-.108-.144.072-.54.216-.684-.144 0 0 .036-.252.036-.18 0-.036-.036-.036-.18.108-.144-.036 0 .216 0 .288 0 .396-.54.576-.72zm13.68 7.308c-.972-.576-1.836-1.296-2.664-1.692-.9-.54-2.232-1.116-2.916-1.584a19.648 19.648 0 01-1.944-1.404c-.216-.072-1.98-1.404-1.98-2.016-.072-.72 1.764-2.124 1.8-2.088.144-.108.432-.18.576-.324.756-.576 1.8-1.296 2.376-1.584l.18.18c.144-.396.324-.684.576-.864.144 0 .216-.072.36-.108.144-.324.36-.468.54-.612.108-.468-.036-1.08.144-1.476-.72-.324-1.656-1.44-2.052-1.44-1.836.108-2.988 1.476-3.24 1.548-.144 0-.396.144-.684.18-.252 0-.036.144-.18.144v-.252c.792-1.512.54-2.772 1.728-4.896.108-.144 0-.324.036-.468.036-.144.18-.288.288-.396.324-1.62.756-3.312 1.044-4.896.108-.468.18-1.116.18-1.26 0-.108-.072-.468-.252-1.044-.144-.576-.288-1.08-.468-1.476-.684-.576-1.296-.684-1.692-1.296-.144.324-.324.576-.432.864-.18 2.268-1.08 5.256-1.584 6.84-.972 3.636-2.16 7.56-3.276 11.196a.397.397 0 010 .288c-.684 2.484-1.44 4.968-1.584 6.66.072.72-.18 2.16-.18 2.304.036.288.288 1.224.468 1.764.144.18.324.36.432.54.432.144.936.396 1.08.36.288 0 .468-.108.504-.36.144-.72.072-1.332.036-1.872l-.036-.036c.036-.072.072-.108.072-.144.036-.684.216-1.332.324-1.8.18-1.188.504-1.908.936-2.88 1.116 1.332 2.16 2.268 3.204 2.988.54.432 1.296.648 1.836.972.324.18 2.664 1.44 3.636 1.332.288-.036.18.144.36.144.252 0 .252-.18.432-.216.252 0 .864.18 1.26.432 0-.144-.108-.144.144-.144.144-.036.468.036.612-.108zm3.544-2.916c0-.252-.36-.648-.684-.972.072-.036.108-.144.108-.324-.324.144-1.008-.288-.9-.684-.396.18-.72.792-.9.792-.288 0 0-.108-.252-.108s-.864.828-1.152 1.152c-.108.18-.144.396-.144.648 0 .72.252 1.728 1.404 1.728.252 0 .9-.144 1.224-.324.468-.324.756-.936 1.152-1.26.036-.18.144-.36.144-.648zm35.98-18.504c0-1.368-.792-5.436-2.412-5.616-.432-.036-.972-.432-1.26-.576-.468-.108-1.656-.612-1.8-.612-.252 0-1.512.108-2.268.144-.324 0-1.008.828-1.26.828-.18 0 .144-.18-.108-.18-.18 0-.468.396-.756.504 0 .144.108.108.108.216-.468.828-.972 1.872-1.08 2.484-.072.324-.144.72-.18 1.188-.036.468-.036.756-.036.792 0 1.728 2.052 7.668 2.052 7.848 1.044 2.196 2.124 5.292 2.7 7.2.108.288.036.684 0 .972 0 .036.072-.072.072.18 0 .288.036.612-.072.9-.144.432-.54.828-.828 1.008-.18.108-.612.216-.72.324l-.18-.144a1.343 1.343 0 01-.432.072c-1.044 0-3.384-.828-3.672-1.512 0 .108.144.18-.036.18-.252 0-.54-.828-.792-1.08-.396-.396-.9-1.98-.9-2.952l-.18.18a3.747 3.747 0 01-.216-.792c-.396-.036-.216-.648-.36-.756-.036-.036-.108.036-.144-.108-.108-.288.036-.504.036-.756 0 .288-.144.468-.144.72-.144 0 .036-.072-.216-.072s-.072.18-.216.18c.144.396.288.828.144 1.224-.108-.18-.18-.288-.216-.288-.144.468 0 .828 0 1.152-.18-.108-.144-.252-.252-.252 0 .144-.108.108-.108.36s.216.288.216.468c0 .324.18.936.036 1.224.108.108.18.18.216.252.108.108-.108.216-.108.324.288.432.432.9.612 1.188.144.72 1.08 1.908 1.548 2.448.54.612 1.476.972 1.764 1.26.108.18.468.576.612.576.252 0-.072-.108.18-.108s1.62.612 1.872.612h.792c.54 0 1.404-.18 1.944-.468.108-.036.252-.036.288-.036.252-.18.468-.468.576-.576.576-.396 1.044-1.044 1.152-1.512.108-.18-.036-.36 0-.504.18-.576.288-1.584.288-1.728 0-1.332-.468-4.068-.936-4.932-.864-2.124-1.152-3.276-1.728-4.932-.108-.18-.252-.324-.252-.432l-.828-2.592c-.432-.576-.324-1.368-.468-1.908-.036-.288-.324-.576-.324-.756-.144-.54-.144-1.404-.144-1.656s.036-.468.144-.684c.108-.54.432-1.188.72-1.656.108-.18 1.728-1.332 2.088-1.332.216 0 .324 0 .36.036.144.036.108.216.36.216s-.036-.072.216-.072c.18 0 .936.432 1.26.72.468.36.9 1.98.9 2.628 0 .252-.072.072-.036.18l-.108.18c-.036.108-.108.036-.144.072-.108.252-.072.576-.072.756 0 .072.036.108.108.108h.072c-.108.18-.072.468-.108.612l.072.252c.252.288.612.684.864.792.036.108.036.216.036.36.18-.18.324-.324.612-.432.036.036.036.036.036.072v.036c-.036.036-.036.072-.036.108h-.036l.288-.324c.108.108.216.18.324.18.108-.288.252-.54.288-.648a8.972 8.972 0 00.216-1.332zm12.312 7.992c-2.268.18-4.068.324-5.688.612-.324.036-.648.216-.9.216-.288 0-.072-.18-.324-.18-.324 0-.576.036-.756.108-.324 0-.468.072-.72-.072v-.18c.288-1.044.576-2.196.72-3.168.72-2.268 1.476-4.644 2.196-7.092 0-.18-.036-.36-.108-.612.252-.468.432-1.332.432-1.512 0-.324-.684-1.404-.684-1.728v-.18s.036 0 .108-.036c-.144 0-.144.036-.396.036s-.504-.576-.792-.576c-.108 0-.468.108-.612.252-.72.468-.756 1.656-1.008 2.376-.324.9-.612 1.908-.792 2.664-.432 1.62-.972 3.24-1.368 4.824-.396 1.548-.828 4.932-1.224 6.012-.036.252-.324.54-.504.54-.288 0-.036-.108-.324-.108-.18 0-.288.108-.432.144 0 .036-.072.144-.18.252 0 .54-.18 1.26-.18 1.44 0 .216 1.008 1.404 1.008 1.656.036 1.764-.252 3.168-.108 3.708.144.9-.036 1.8 1.08 2.808.144.144.18.576.432.576.18 0 .468-.072.576-.072 0-.324.432-.576.432-.828 0-.18-.36-1.548-.36-1.8s.396-2.52.684-3.708c.288-.18.72-.54 1.044-.576l.288-.432c.576-.252 1.512-.576 1.656-.576.288 0 .18.072.288.072 0-.108-.108-.18 0-.216.864-.288 1.764-.648 2.484-.792 0-.216.036-.324.144-.324.144.108-.072.18.108.18.252 0 .684-.576.828-.828.72-.144 1.584-.324 1.836-.936-.144-.108-.288-.144-.288-.288.324-.18.828-.396 1.224-.576-.396-.324-.036-.252.072-.576-.108 0-.18-.036-.18-.144.144-.144.288-.216.288-.36zm6.948 4.104c0-1.548-.756-2.952-1.872-4.5-.108-.108-.252-.072-.36-.108a.773.773 0 01-.144-.252c-.036-.072-.072-.108-.072-.144-.324-.324-.936-.936-1.116-1.08-.396-.18-.684.072-.864-.324-.396.396-2.844.864-2.664 2.232-.072.072-.108.108-.144.108l-.072.036c.18 0 .252.072.252.252 0-.144.036-.252.108-.288.036.036.072.108.072.216.144-.252.36-.072.468-.072-.144.252-.072.54-.216.72-.252.324-.72.504-.9.828-.144.18-.072.396-.216.432-.144.036-.144 0-.288.108-.18.432-.576.864-.828 1.296-.144.144-.072.468-.18.576-.324.504-1.728 3.492-1.728 5.076 0 .18.18 1.008.288 1.44.432 0 .576.9.828 1.08.72.576 1.296 1.26 2.412 1.26.684 0 1.404-.252 2.232-.756.108-.144.144-.432.288-.54 2.628-2.304 4.716-4.968 4.716-7.596zm-3.996-2.772v-.54h.18v.54h-.18zm1.008 1.62c0 .072-.612 2.16-.828 2.484-.072.18-1.548 2.52-1.872 2.52-.288 0 .144-.216-.108-.216-.18 0-.972.756-1.44 1.08v-.324c0-.288 1.476-3.204 2.268-4.644.324-.54 1.152-1.476 1.548-2.232.18.396.432 1.044.432 1.332zm14.076-1.44c-.18-.288-.252-.612-.396-.792-.828-1.008-2.412-1.62-3.456-1.62-1.152 0-3.132 1.512-3.492 2.412 0-.54.144-.864.108-1.26-.036-.54-.18-1.044-.36-1.584-.18-.468-.9-1.008-1.296-1.008h-.432c-.18.684-.216 1.476-.324 2.16-.108 1.044-.252 2.124-.36 2.952-.108 1.404-.36 2.736-.684 4.068-.072.972-.648 2.952-.648 3.168 0 .576.36 1.116.612 1.872.396-.108.252.36.396.504.324.144.864.396 1.008.396.252 0 .468-.072.684-.216-.324-1.008.144-2.196.612-3.168.144-.288.108-.648.288-.9.252-.252.468-.432.612-.756.036-.036-.072-.108-.072-.252.36-.468.648-.936.864-1.332 0-.036-.252-.108-.144-.252 0-.036.036-.072.108-.072h.036c.144 0 .144-.072.252-.072 0-.144-.144-.18-.108-.288 0 0 .036-.036.108-.144.036-.036.072-.036.108-.036-.072-.072-.036-.216.072-.432.108 0 .144.072.144.18.9-1.404 2.088-3.096 3.528-3.636.108.468.144.792.18 1.044.684-.144 1.116 0 1.512 0-.144-.324.396-.612.54-.936zm12.312-.864c-.108-1.692-.756-2.052-3.096-2.88l-7.956 9.504c-.036-.396-.072-.612.036-.864.108-.252.216-.36.36-.54.684-1.548 1.296-3.204 1.836-4.356.288-.612.612-1.404.9-1.8 0-.036 0-.18-.036-.432 0-.612-1.08-1.476-1.908-1.188-.468.72-.936 1.62-1.368 2.232-.36.684-2.916 6.372-2.736 8.1.108 1.08.756 2.844 2.268 2.664.252-.036.612-.18 1.08-.468.468-.288.792-.54.972-.72 2.16-2.304 3.852-4.428 5.832-6.768.036.036.036.072.036.108l.036.036c-.432 1.62-3.42 13.5-2.988 18.324.108.864.792 1.908 1.188 2.376.144.252.396.72.648.828.252.108.864.396 1.044.396.252-.036.504-.36.792-.396.18 0 0 .072.252.072.36-.108-.18-.936.612-1.224l-.144-1.224c-.54.324-.972.756-1.548.864-.288 0-.144-.072-.288-.18l-.036-.54c-.072-.252.252-2.016.252-3.096.036-.18.144-.432.288-.684.036-.324-.108-.9 0-1.152.324-2.124.864-4.176 1.332-6.3l.252-.252c.324-1.584.828-3.384 1.152-5.004.108-.18.036-.432.036-.576.108-.612.432-1.188.54-1.728.036-.324.18-.756.036-1.152.288-.612.36-1.8.324-1.98zm32.904-.648c-2.268.18-4.068.324-5.688.612-.324.036-.648.216-.9.216-.288 0-.072-.18-.324-.18-.324 0-.576.036-.756.108-.324 0-.468.072-.72-.072v-.18c.288-1.044.576-2.196.72-3.168.72-2.268 1.476-4.644 2.196-7.092 0-.18-.036-.36-.108-.612.252-.468.432-1.332.432-1.512 0-.324-.684-1.404-.684-1.728v-.18s.036 0 .108-.036c-.144 0-.144.036-.396.036s-.504-.576-.792-.576c-.108 0-.468.108-.612.252-.72.468-.756 1.656-1.008 2.376-.324.9-.612 1.908-.792 2.664-.432 1.62-.972 3.24-1.368 4.824-.396 1.548-.828 4.932-1.224 6.012-.036.252-.324.54-.504.54-.288 0-.036-.108-.324-.108-.18 0-.288.108-.432.144 0 .036-.072.144-.18.252 0 .54-.18 1.26-.18 1.44 0 .216 1.008 1.404 1.008 1.656.036 1.764-.252 3.168-.108 3.708.144.9-.036 1.8 1.08 2.808.144.144.18.576.432.576.18 0 .468-.072.576-.072 0-.324.432-.576.432-.828 0-.18-.36-1.548-.36-1.8s.396-2.52.684-3.708c.288-.18.72-.54 1.044-.576l.288-.432c.576-.252 1.512-.576 1.656-.576.288 0 .18.072.288.072 0-.108-.108-.18 0-.216.864-.288 1.764-.648 2.484-.792 0-.216.036-.324.144-.324.144.108-.072.18.108.18.252 0 .684-.576.828-.828.72-.144 1.584-.324 1.836-.936-.144-.108-.288-.144-.288-.288.324-.18.828-.396 1.224-.576-.396-.324-.036-.252.072-.576-.108 0-.18-.036-.18-.144.144-.144.288-.216.288-.36zm2.988-6.444c-.432-.396-.18-.9-.36-1.08-.108-.252-.432-.432-.684-.756-.9.108-1.08.504-2.7.396.18.324.072.936.216 1.224.18.612.504 1.512 1.044 1.8.108.108.072.144.108.252.396.18.9.504 1.44.468 1.728-.108.324-1.404.936-2.304zm1.296 12.888c-1.188 1.188-2.88 2.52-4.572 3.276-.252-.864.072-1.332.504-2.808.108-.324.18-.972.324-1.296.252-.396.432-1.044.54-1.872.108-.864.252-1.512.36-1.944.036-.288.18-.504.18-.684-.036-.468-.324-.9-.864-1.296-.504-.396-.972-.612-1.44-.576-.288.036-.54.18-.828.18-.252.252-.288.54-.432.648-.036.252-.036.396-.036.504-.468.972-.864 2.232-1.188 3.78l-.396 1.512c-.18.684-.288 1.944-.252 2.376.108 1.584 1.368 4.608 3.78 4.428.252 0 1.008-.216 1.44-.468.288-.144.216-.396.216-.504.432-.54 1.296-1.332 1.872-1.656-.036-.252 0-.468.108-.612.144-.108.396-.324.432-.504-.108-.144-.252-.108-.36-.144.792-.684.144-1.944.612-2.34zm21.78 2.952c-.468.252-1.476.576-1.656.576-1.26.144-1.368-.288-1.476-1.26-.036-.144-.036-.468-.036-.972s0-.9.036-1.152c0-1.008.396-3.132.396-3.348-.036-.18-.18-.36-.072-.396-.324-.252-.252-.612-.504-.9-.252-.288-.432-.432-.612-.54-.144-.144-.432-.072-.468-.108-.144-.108-.468-.432-.648-.468-.324-.108-.684 0-.792-.036l-4.68 5.688c-.432 0-.396.18-.648.432-.036-.036-.036-.072-.036-.108v-.036c.036-.432 0-1.044.396-1.152.108-1.296.468-3.672.468-3.924-.036-.324-.36-1.116-.54-1.44-.468-.54-1.44-.9-1.836-1.008-.576-.108-1.116-.108-1.368 0-1.044 1.512-3.276 4.5-3.456 4.5-.288.036-.36.252-.396.252-.072-.612.756-2.232.864-2.952.144-.396.252-.936.36-1.548.108-.648.18-1.044.144-1.188 0-.18-.36-1.152-.9-1.26a.385.385 0 01-.108-.18.818.818 0 00-.648-.18c-.252 0-.576.18-.828.216-.612 1.404-.792 1.944-.792 2.988-.036.144-.144.18-.18.216-.108.54-.36 1.26-.468 1.656-.108.576-.72 2.16-1.296 3.996-.576 1.836-1.152 3.924-1.008 5.076.036.54.072 1.116.468 1.368.288.288.9.72 1.08.684.288 0 .864-.396 1.044-.54.432-.432.828-1.224 1.296-1.656v-.288l.792-.936c.108-.18.144-.396.18-.504 1.152-1.476 2.448-3.312 3.6-4.5 0 .18.108.252.144.396l-.108.144c0 .108.18.108.072.288-.072 1.08-1.008 3.816-.828 5.472.108.648 1.98 1.872 2.736 1.764.252 0 .864-.324 1.26-.576.144-.036 0-.108.108-.252.684-.396 1.152-1.116 1.62-1.692.72-1.044 1.98-2.376 2.376-2.952.288-.396.396-.72.684-1.044.252.468.18.864.216 1.188.288 1.332.396 2.736 1.152 3.564.468.468 1.476 1.188 1.656 1.188.252-.036-.072-.144.108-.18.252 0 .972.324 1.224.324.288-.036.9-.396 1.44-.648.072-.072.108-.18.072-.324.144-.144.324-.252.432-.432-.18-.072-.252-.18-.18-.36.036-.252.324-.612.144-.936zm-7.272-1.872l-.18-.108.216-.324h.108l-.144.432zm16.38 1.908a.516.516 0 01-.36-.144c-.72.18-1.62.504-2.592.792-.576-.252-.864.108-1.26.108-.252 0-.792.036-1.044-.108-.432-.18-1.08-.612-1.08-.9 0-.324 2.052-2.376 3.096-3.636.612-.756 1.368-1.836 1.656-2.412.288-.9.684-2.7.684-2.916 0-.936-.72-.144-.72-1.656-.144-.144-.252-.324-.432-.324-.252 0 .036.108-.252.108-.252 0-.144-.36-.252-.684-.324-.108-.828-.432-1.008-.432-.288 0 .072.108-.216.108-.108 0-.144-.036-.144-.108 0-.036.036-.036.072-.072.108.396-.648.612-.972.756-.72.432-.792.792-1.332 1.26-.252.468-.684 1.008-.936 1.332-.54.864-.9 1.692-1.188 2.268-.54 1.116-1.08 2.52-1.224 3.204-.144.576-.468 1.332-.288 2.772.684 2.88.36 1.98 1.008 2.556.9.972 1.188 1.224 2.232 1.476l.396.54c.108-.72 1.152 0 1.584 0 .108 0 .144-.036.144-.072v-.108c.396-.036.936-.36 1.332-.396-.144 0-.324-.036-.144-.144.54 0 .972-.072 1.404-.216 0-.576.324-1.368.936-1.224.144-.324.252-.684.396-.864-.252-.072-.396-.18-.396-.36.324-.108.504-.36.9-.504zM397.775 76v-3.463h3.463V76h-3.463zm12.006 0v-3.463h3.463V76h-3.463zm11.989 0v-3.463h3.48V76h-3.48z" fill="#222" fill-rule="evenodd"/></svg>