<?xml version="1.0" encoding="UTF-8" standalone="no"?>
<svg width="178px" height="30px" viewBox="0 0 178 30" version="1.1" xmlns="http://www.w3.org/2000/svg" xmlns:xlink="http://www.w3.org/1999/xlink">
    <!-- Generator: Sketch 3.7.2 (28276) - http://www.bohemiancoding.com/sketch -->
    <title>Group</title>
    <desc>Created with Sketch.</desc>
    <defs>
        <rect id="path-1" x="0" y="0" width="50" height="10"></rect>
    </defs>
    <g id="HATCHback" stroke="none" stroke-width="1" fill="none" fill-rule="evenodd">
        <g transform="translate(-282.000000, -183.000000)" id="SUBHEADER">
            <g transform="translate(0.000000, 138.000000)">
                <g id="HATCHBACK-LOGO" transform="translate(271.000000, 39.000000)">
                    <g id="Group" transform="translate(11.000000, 4.000000)">
                        <path d="M22.36,31 L22.36,3.028 L16.06,3.028 L16.06,14.158 L7.03,14.158 L7.03,3.028 L0.73,3.028 L0.73,31 L7.03,31 L7.03,19.744 L16.06,19.744 L16.06,31 L22.36,31 Z M42.436,3.028 L34.036,3.028 L25.51,31 L32.062,31 L33.574,25.54 L42.94,25.54 L44.452,31 L51.004,31 L42.436,3.028 Z M38.236,8.572 L41.428,20.29 L35.002,20.29 L38.236,8.572 Z M71.164,8.614 L71.164,3.028 L49.828,3.028 L49.828,8.614 L57.346,8.614 L57.346,31 L63.646,31 L63.646,8.614 L71.164,8.614 Z M79.648,12.184 C79.648,9.748 80.446,8.32 83.554,8.32 C85.57,8.32 88.342,8.572 90.778,8.992 L91.66,3.49 C88.888,2.902 86.368,2.608 83.554,2.608 C76.498,2.608 73.348,6.094 73.348,11.176 L73.348,22.852 C73.348,27.934 76.498,31.42 83.554,31.42 C86.368,31.42 88.888,31.126 91.66,30.538 L90.778,25.036 C88.342,25.456 85.57,25.708 83.554,25.708 C80.446,25.708 79.648,24.28 79.648,21.844 L79.648,12.184 Z M117.49,31 L117.49,3.028 L111.19,3.028 L111.19,14.158 L102.16,14.158 L102.16,3.028 L95.86,3.028 L95.86,31 L102.16,31 L102.16,19.744 L111.19,19.744 L111.19,31 L117.49,31 Z" id="HATCH" fill="#FFB100"></path>
                        <path d="M126.62,14.884 C126.62,15.514 127.106,16 127.736,16 L132.452,16 C135.26,16 137.114,14.794 137.114,12.544 L137.114,12.508 C137.114,10.798 136.088,9.952 134.612,9.448 C135.548,8.962 136.412,8.152 136.412,6.64 L136.412,6.604 C136.412,5.758 136.124,5.074 135.566,4.516 C134.846,3.796 133.712,3.4 132.272,3.4 L127.736,3.4 C127.106,3.4 126.62,3.886 126.62,4.516 L126.62,14.884 Z M128.798,8.71 L128.798,5.362 L131.984,5.362 C133.406,5.362 134.198,5.974 134.198,6.964 L134.198,7 C134.198,8.152 133.244,8.71 131.822,8.71 L128.798,8.71 Z M128.798,14.038 L128.798,10.582 L132.308,10.582 C134.054,10.582 134.9,11.212 134.9,12.274 L134.9,12.31 C134.9,13.444 133.982,14.038 132.47,14.038 L128.798,14.038 Z M138.752,15.064 C138.752,15.64 139.202,16.09 139.778,16.09 C140.246,16.09 140.624,15.838 140.804,15.388 L141.866,12.958 L147.986,12.958 L149.012,15.316 C149.21,15.784 149.57,16.09 150.092,16.09 C150.686,16.09 151.136,15.622 151.136,15.028 C151.136,14.884 151.1,14.722 151.01,14.56 L146.33,4.12 C146.078,3.562 145.646,3.22 145.016,3.22 L144.908,3.22 C144.278,3.22 143.828,3.562 143.576,4.12 L138.896,14.56 C138.806,14.74 138.752,14.902 138.752,15.064 L138.752,15.064 Z M142.712,10.996 L144.926,5.902 L147.14,10.996 L142.712,10.996 Z M158.84,16.216 C160.874,16.216 162.224,15.568 163.412,14.524 C163.61,14.344 163.772,14.074 163.772,13.732 C163.772,13.174 163.286,12.706 162.728,12.706 C162.458,12.706 162.224,12.814 162.062,12.958 C161.144,13.732 160.244,14.164 158.912,14.164 C156.5,14.164 154.754,12.166 154.754,9.7 L154.754,9.664 C154.754,7.198 156.518,5.218 158.912,5.218 C160.118,5.218 161.054,5.65 161.918,6.352 C162.062,6.46 162.278,6.568 162.584,6.568 C163.196,6.568 163.682,6.1 163.682,5.488 C163.682,5.092 163.484,4.786 163.25,4.606 C162.152,3.76 160.874,3.184 158.93,3.184 C155.114,3.184 152.432,6.118 152.432,9.7 L152.432,9.736 C152.432,13.354 155.168,16.216 158.84,16.216 L158.84,16.216 Z M166.274,14.992 C166.274,15.604 166.76,16.09 167.39,16.09 C168.002,16.09 168.488,15.604 168.488,14.992 L168.488,12.382 L170.54,10.402 L174.59,15.568 C174.824,15.874 175.094,16.09 175.526,16.09 C176.156,16.09 176.642,15.622 176.642,15.01 C176.642,14.668 176.516,14.452 176.336,14.218 L172.088,8.944 L176.012,5.164 C176.264,4.93 176.408,4.678 176.408,4.336 C176.408,3.796 175.994,3.31 175.382,3.31 C174.986,3.31 174.716,3.454 174.464,3.724 L168.488,9.736 L168.488,4.408 C168.488,3.796 168.002,3.31 167.39,3.31 C166.76,3.31 166.274,3.796 166.274,4.408 L166.274,14.992 Z" id="BACK" fill="#FFFFFF"></path>
                        <g id="Group-8" transform="translate(128.000000, 21.000000)">
                            <mask id="mask-2" fill="white">
                                <use xlink:href="#path-1"></use>
                            </mask>
                            <g id="Rectangle-18"></g>
                            <path d="M48.2714844,1.04101562 L48.2714844,4.05761719 C48.2714844,5.72364023 46.9222764,7.07421875 45.2490802,7.07421875 L1.93481325,7.07421875" id="Path-20" stroke="#FFFFFF" stroke-width="2" mask="url(#mask-2)"></path>
                        </g>
                        <polygon id="Triangle-1" fill="#FFFFFF" transform="translate(129.000000, 27.500000) scale(-1, 1) rotate(-270.000000) translate(-129.000000, -27.500000) " points="129 25 133 30 125 30"></polygon>
                    </g>
                </g>
            </g>
        </g>
    </g>
</svg>