<?xml version="1.0" encoding="UTF-8" standalone="no"?>
<svg width="426px" height="93px" viewBox="0 0 426 93" version="1.1" xmlns="http://www.w3.org/2000/svg" xmlns:xlink="http://www.w3.org/1999/xlink">
    <!-- Generator: Sketch 3.7.2 (28276) - http://www.bohemiancoding.com/sketch -->
    <title>Amazing things happe Copy@1x</title>
    <desc>Created with Sketch.</desc>
    <defs></defs>
    <g id="HATCHback" stroke="none" stroke-width="1" fill="none" fill-rule="evenodd">
        <g transform="translate(-335.000000, -744.000000)" id="STORIES" fill="#222222">
            <g transform="translate(329.000000, 742.000000)">
                <path d="M57.254,19.892 C57.002,19.748 56.786,19.568 56.75,19.316 L56.93,19.1 C56.786,19.1 56.75,18.956 56.75,18.848 C55.742,18.848 54.806,18.812 53.798,18.668 C53.618,18.668 53.474,18.632 53.402,18.596 L53.978,14.456 C54.086,12.44 54.338,10.424 54.59,8.408 C54.626,7.94 54.446,7.544 54.554,7.148 C54.59,6.824 54.698,6.176 54.698,6.032 C54.698,5.78 54.77,4.16 54.41,3.368 C54.302,2.936 53.726,2.396 53.546,2.396 C53.294,2.396 53.618,2.468 53.366,2.468 C53.114,2.468 53.078,2.288 53.042,2.18 C52.898,2.288 52.79,2.18 52.646,2.18 C52.394,2.18 52.286,2.072 52.034,2.072 C51.998,2.072 51.926,2.108 51.854,2.18 L51.818,2.216 C51.818,2.612 51.782,3.188 51.602,3.476 C51.062,4.448 50.342,5.24 49.946,5.852 C49.154,7.328 48.614,8.408 48.29,9.092 C46.742,12.08 45.302,15.788 43.754,19.064 C43.07,19.316 42.638,19.316 41.954,19.352 C41.486,19.604 40.586,19.856 40.334,19.856 C40.19,19.856 40.046,19.784 39.938,19.676 C39.83,19.82 39.47,20.108 39.47,20.288 C39.47,20.468 40.118,21.584 40.298,21.836 C40.73,22.16 41.486,22.556 42.026,22.952 C41.702,23.672 41.414,24.32 41.198,24.932 C40.766,25.976 40.406,27.164 40.406,27.488 C40.406,27.74 40.514,28.244 40.802,28.388 C41.054,28.568 41.378,28.604 41.486,28.784 L41.666,28.604 C41.774,28.748 41.81,28.64 41.918,28.64 C41.918,28.424 41.99,28.244 42.098,28.1 C42.206,28.208 42.134,28.352 42.278,28.352 C42.422,27.74 42.638,27.128 42.926,26.552 C43.034,26.264 43.286,26.048 43.394,25.94 C44.15,24.644 44.546,23.456 45.086,22.448 C45.23,22.304 48.29,21.44 48.794,21.44 L50.126,21.44 L50.054,26.12 C50.054,26.552 49.91,27.02 50.018,27.452 C50.018,28.856 49.586,30.152 50.486,31.448 C50.81,31.628 51.35,31.772 51.53,31.952 C51.566,31.808 51.674,31.7 51.854,31.664 C51.998,31.664 51.998,31.556 52.106,31.556 C52.106,31.304 52.142,30.944 52.25,30.692 C53.006,29.144 52.43,28.424 52.718,26.984 C53.006,25.688 52.826,24.104 52.934,22.952 C52.97,22.844 53.042,22.916 53.15,22.772 C53.042,22.484 52.934,22.304 53.078,22.052 C53.186,21.728 53.258,21.26 53.402,20.972 C53.798,20.936 54.122,20.864 54.266,20.828 C55.274,20.54 56.534,20.18 57.254,19.892 L57.254,19.892 Z M50.162,18.776 C48.722,19.064 47.894,18.704 46.994,18.704 C48.146,16.364 49.226,13.232 50.774,10.82 L50.162,18.776 Z M78.638,25.832 C78.17,26.084 77.162,26.408 76.982,26.408 C75.722,26.552 75.614,26.12 75.506,25.148 C75.47,25.004 75.47,24.68 75.47,24.176 C75.47,23.672 75.47,23.276 75.506,23.024 C75.506,22.016 75.902,19.892 75.902,19.676 C75.866,19.496 75.722,19.316 75.83,19.28 C75.506,19.028 75.578,18.668 75.326,18.38 C75.074,18.092 74.894,17.948 74.714,17.84 C74.57,17.696 74.282,17.768 74.246,17.732 C74.102,17.624 73.778,17.3 73.598,17.264 C73.274,17.156 72.914,17.264 72.806,17.228 L68.126,22.916 C67.694,22.916 67.73,23.096 67.478,23.348 C67.442,23.312 67.442,23.276 67.442,23.24 L67.442,23.204 C67.478,22.772 67.442,22.16 67.838,22.052 C67.946,20.756 68.306,18.38 68.306,18.128 C68.27,17.804 67.946,17.012 67.766,16.688 C67.298,16.148 66.326,15.788 65.93,15.68 C65.354,15.572 64.814,15.572 64.562,15.68 C63.518,17.192 61.286,20.18 61.106,20.18 C60.818,20.216 60.746,20.432 60.71,20.432 C60.638,19.82 61.466,18.2 61.574,17.48 C61.718,17.084 61.826,16.544 61.934,15.932 C62.042,15.284 62.114,14.888 62.078,14.744 C62.078,14.564 61.718,13.592 61.178,13.484 C61.142,13.448 61.106,13.412 61.07,13.304 C60.89,13.16 60.674,13.088 60.422,13.124 C60.17,13.124 59.846,13.304 59.594,13.34 C58.982,14.744 58.802,15.284 58.802,16.328 C58.766,16.472 58.658,16.508 58.622,16.544 C58.514,17.084 58.262,17.804 58.154,18.2 C58.046,18.776 57.434,20.36 56.858,22.196 C56.282,24.032 55.706,26.12 55.85,27.272 C55.886,27.812 55.922,28.388 56.318,28.64 C56.606,28.928 57.218,29.36 57.398,29.324 C57.686,29.324 58.262,28.928 58.442,28.784 C58.874,28.352 59.27,27.56 59.738,27.128 L59.738,26.84 L60.53,25.904 C60.638,25.724 60.674,25.508 60.71,25.4 C61.862,23.924 63.158,22.088 64.31,20.9 C64.31,21.08 64.418,21.152 64.454,21.296 L64.346,21.44 C64.346,21.548 64.526,21.548 64.418,21.728 C64.346,22.808 63.41,25.544 63.59,27.2 C63.698,27.848 65.57,29.072 66.326,28.964 C66.578,28.964 67.19,28.64 67.586,28.388 C67.73,28.352 67.586,28.28 67.694,28.136 C68.378,27.74 68.846,27.02 69.314,26.444 C70.034,25.4 71.294,24.068 71.69,23.492 C71.978,23.096 72.086,22.772 72.374,22.448 C72.626,22.916 72.554,23.312 72.59,23.636 C72.878,24.968 72.986,26.372 73.742,27.2 C74.21,27.668 75.218,28.388 75.398,28.388 C75.65,28.352 75.326,28.244 75.506,28.208 C75.758,28.208 76.478,28.532 76.73,28.532 C77.018,28.496 77.63,28.136 78.17,27.884 C78.242,27.812 78.278,27.704 78.242,27.56 C78.386,27.416 78.566,27.308 78.674,27.128 C78.494,27.056 78.422,26.948 78.494,26.768 C78.53,26.516 78.818,26.156 78.638,25.832 L78.638,25.832 Z M71.366,23.96 L71.186,23.852 L71.402,23.528 L71.51,23.528 L71.366,23.96 Z M94.334,25.076 C94.118,25.184 90.122,27.056 89.582,27.056 C89.294,27.056 88.898,27.236 88.502,27.092 C88.502,26.768 88.394,26.156 88.394,25.976 C88.394,25.76 88.79,22.16 89.186,20.252 C89.474,18.884 90.23,16.508 90.23,16.256 C90.23,15.968 90.122,16.256 90.122,16.112 C90.266,15.968 90.086,15.464 89.978,15.284 C89.69,14.96 88.826,14.564 88.394,14.564 C88.214,14.564 88.466,14.672 88.178,14.672 C87.926,14.672 88.106,14.384 87.854,14.384 C87.386,14.384 87.674,14.636 87.242,15.104 C87.062,15.104 86.846,15.032 86.666,15.032 C86.486,15.032 86.306,14.924 86.054,14.708 L85.766,14.708 C85.658,14.924 85.514,15.104 85.334,15.212 C85.154,15.356 84.902,15.284 84.578,15.428 C84.47,15.536 84.614,15.644 84.506,15.752 C84.182,16.04 83.786,16.508 83.462,16.652 C82.994,16.976 82.274,17.696 82.022,18.02 C80.798,19.64 77.882,24.572 77.882,26.768 C77.882,26.948 78.134,27.56 78.17,27.848 C78.854,28.424 79.25,29.18 80.438,29.18 C80.618,29.18 81.014,29.036 81.194,29.036 C82.274,29.036 84.11,26.336 84.506,25.76 C84.938,25.04 85.334,24.536 85.73,23.852 C85.838,24.536 85.838,25.256 85.838,25.688 C85.838,25.94 87.17,28.928 88.646,28.928 L90.158,28.928 C90.482,28.928 91.706,27.812 92.462,27.704 C92.354,27.704 92.174,27.488 92.174,27.452 C92.714,27.056 93.254,26.588 93.542,26.264 C93.434,26.084 93.506,25.94 93.686,25.76 C93.794,25.508 94.226,25.364 94.334,25.076 L94.334,25.076 Z M85.658,18.812 C84.614,20.54 83.642,22.556 82.49,23.96 L82.274,23.708 C83.138,22.016 84.254,20.072 85.442,18.632 C85.442,18.74 85.298,18.884 85.442,19.028 L85.658,18.812 Z M107.546,26.336 C105.206,25.364 103.082,24.932 100.454,24.932 L97.178,25.544 C97.034,25.544 96.962,25.652 96.854,25.508 C100.13,22.124 100.994,20.756 102.722,18.74 C103.046,18.308 103.694,16.796 103.694,16.256 C103.694,16.076 103.334,15.428 103.298,15.14 C103.01,14.816 102.29,14.528 102.038,14.132 C101.75,14.096 101.462,13.988 101.318,13.988 C101.066,13.988 98.186,14.636 96.818,15.104 C95.954,15.356 94.622,16.04 93.938,16.472 C93.542,16.652 93.578,17.012 93.578,17.408 C93.578,17.624 93.866,18.992 94.586,18.992 C94.802,18.992 95.018,18.92 95.27,18.812 C95.45,18.704 95.558,18.524 95.594,18.488 C95.918,18.38 96.278,18.056 96.53,18.056 C96.782,18.056 96.458,18.164 96.71,18.164 C96.89,18.164 97.034,17.768 97.178,17.732 L98.978,17.228 C99.59,17.012 99.986,16.904 100.094,16.904 C100.094,16.904 100.058,16.976 100.166,16.976 L100.202,16.976 C99.59,18.236 97.718,20.036 96.602,21.044 C95.558,22.16 94.442,23.132 93.542,24.284 C92.966,24.86 91.778,26.048 91.778,26.984 C91.778,27.308 91.814,27.308 91.922,27.488 C92.03,28.964 93.038,29.828 94.19,29.828 C94.37,29.828 95.306,29.648 95.738,29.504 C96.566,29.324 97.286,29.036 97.826,28.856 C98.006,28.856 98.15,28.64 98.294,28.532 C100.166,28.1 102.11,27.848 104.09,27.56 C104.774,27.452 105.458,27.596 105.638,27.596 C105.818,27.596 106.97,27.308 107.438,27.128 C107.294,27.02 107.33,26.948 107.546,26.912 L107.546,26.336 Z M111.002,9.992 C110.57,9.596 110.822,9.092 110.642,8.912 C110.534,8.66 110.21,8.48 109.958,8.156 C109.058,8.264 108.878,8.66 107.258,8.552 C107.438,8.876 107.33,9.488 107.474,9.776 C107.654,10.388 107.978,11.288 108.518,11.576 C108.626,11.684 108.59,11.72 108.626,11.828 C109.022,12.008 109.526,12.332 110.066,12.296 C111.794,12.188 110.39,10.892 111.002,9.992 L111.002,9.992 Z M112.298,22.88 C111.11,24.068 109.418,25.4 107.726,26.156 C107.474,25.292 107.798,24.824 108.23,23.348 C108.338,23.024 108.41,22.376 108.554,22.052 C108.806,21.656 108.986,21.008 109.094,20.18 C109.202,19.316 109.346,18.668 109.454,18.236 C109.49,17.948 109.634,17.732 109.634,17.552 C109.598,17.084 109.31,16.652 108.77,16.256 C108.266,15.86 107.798,15.644 107.33,15.68 C107.042,15.716 106.79,15.86 106.502,15.86 C106.25,16.112 106.214,16.4 106.07,16.508 C106.034,16.76 106.034,16.904 106.034,17.012 C105.566,17.984 105.17,19.244 104.846,20.792 L104.45,22.304 C104.27,22.988 104.162,24.248 104.198,24.68 C104.306,26.264 105.566,29.288 107.978,29.108 C108.23,29.108 108.986,28.892 109.418,28.64 C109.706,28.496 109.634,28.244 109.634,28.136 C110.066,27.596 110.93,26.804 111.506,26.48 C111.47,26.228 111.506,26.012 111.614,25.868 C111.758,25.76 112.01,25.544 112.046,25.364 C111.938,25.22 111.794,25.256 111.686,25.22 C112.478,24.536 111.83,23.276 112.298,22.88 L112.298,22.88 Z M127.166,24.608 C126.626,24.896 126.086,25.436 125.834,25.472 L125.69,25.472 L125.726,25.4 C125.69,25.364 125.726,25.328 125.798,25.328 L125.834,25.328 C125.222,25.58 123.962,26.588 123.35,26.588 C123.17,26.624 122.99,26.588 122.882,26.516 C122.846,25.796 122.702,25.112 122.81,24.536 C122.702,23.06 122.99,20.18 122.882,19.928 C122.774,18.956 122.99,19.604 122.126,17.912 C122.09,17.912 121.91,17.876 121.91,17.768 C121.946,17.732 121.982,17.696 121.982,17.66 L121.982,17.624 C121.694,17.372 121.226,16.904 121.046,16.904 C120.794,16.94 120.722,17.048 120.542,17.156 C120.434,16.976 120.362,16.796 120.11,16.616 C119.678,16.868 119.282,16.76 118.958,16.904 C118.238,17.192 117.374,18.668 116.834,19.208 C116.798,18.704 116.87,18.164 117.05,17.624 C117.158,17.48 117.266,17.372 117.266,17.12 C117.41,16.4 117.482,15.464 117.59,14.852 C117.698,14.528 117.914,14.276 117.878,14.024 L117.842,13.628 C117.698,13.664 117.734,13.7 117.626,13.7 L117.59,13.7 C117.446,13.52 117.59,13.268 117.59,13.088 C117.194,12.98 116.942,12.764 116.69,12.584 C116.726,12.764 116.726,13.052 116.582,13.196 C116.33,12.872 116.114,12.656 115.934,12.404 C115.646,12.512 115.25,12.908 114.926,13.196 C114.926,13.484 114.962,13.808 114.962,13.952 C113.99,16.508 112.982,19.388 112.298,21.368 C112.154,21.908 112.19,22.556 112.046,23.096 C111.938,23.42 111.758,23.888 111.578,24.212 C111.542,24.932 111.254,26.12 111.254,26.3 C111.29,26.624 111.47,26.84 111.614,26.948 C111.758,27.092 111.902,28.892 112.802,28.784 C113.054,28.784 112.73,28.676 113.018,28.676 C113.198,28.64 113.378,29 113.63,29 C113.81,28.964 114.602,28.172 114.926,27.74 C115.394,27.164 115.754,26.516 116.078,25.904 C116.042,25.76 116.042,25.688 116.078,25.652 C117.086,24.464 118.238,22.808 119.21,21.692 C119.318,21.728 119.174,21.836 119.282,21.872 C119.318,22.916 119.318,24.32 119.498,25.04 C119.642,26.156 120.146,27.344 120.686,28.388 C120.794,28.748 122.486,29.612 122.882,29.612 C123.134,29.612 123.854,29.72 124.322,29.684 C124.43,29.504 124.718,29 124.97,28.892 C125.258,28.568 125.906,28.316 126.086,27.992 C126.122,27.704 126.41,27.56 126.59,27.38 C126.446,27.2 126.554,26.984 126.446,26.804 C126.698,26.624 126.59,26.336 126.734,26.192 C126.77,26.228 126.806,26.192 126.878,26.12 L126.914,26.084 C126.806,26.084 126.698,26.048 126.626,26.012 C126.734,25.868 126.842,25.796 126.95,25.688 C126.986,25.652 126.806,25.472 126.914,25.364 C126.95,25.112 127.022,24.86 127.166,24.608 L127.166,24.608 Z M120.938,17.372 L120.902,17.192 L121.154,17.156 L121.19,17.336 L120.938,17.372 Z M134.51,23.096 L133.826,23.924 L133.862,23.996 L134.546,23.096 L134.51,23.096 Z M133.574,24.14 L133.178,24.572 L133.286,24.608 L133.682,24.248 L133.574,24.14 Z M139.046,17.912 C139.01,17.3 138.29,16.652 138.326,16.508 C138.002,16.328 137.534,16.112 137.21,16.004 C136.958,15.968 136.706,15.68 136.562,15.644 C136.454,15.356 136.31,15.284 136.418,14.996 C136.238,14.744 135.734,14.06 135.554,14.06 C132.386,14.24 131.27,17.408 128.498,21.152 C127.67,22.376 126.122,25.364 126.23,27.056 C126.266,27.632 126.23,27.848 126.626,28.568 L126.734,28.748 C126.914,28.928 127.022,29.108 127.166,29.252 C127.598,29.432 128.39,29.72 128.57,29.72 C128.822,29.72 129.218,29.576 129.506,29.432 C129.506,29.324 129.398,29.252 129.398,29.144 C129.866,28.676 130.442,28.064 130.73,27.812 C131.45,26.948 132.314,26.048 133.07,25.076 C133.286,24.032 134.258,23.312 134.762,22.412 C134.87,22.556 134.762,22.808 134.618,22.988 C134.942,22.592 135.086,22.34 135.194,22.232 C135.086,22.34 135.05,22.484 134.906,22.484 C135.05,22.16 135.194,21.872 135.338,21.764 C135.374,21.8 135.374,21.8 135.374,21.836 L135.41,21.872 C133.97,28.82 132.314,34.328 132.17,40.556 C132.17,40.952 132.134,41.564 132.134,41.708 C132.134,41.96 132.278,42.968 132.458,43.652 C132.494,44.12 132.926,44.624 133.214,45.092 C133.358,45.128 133.682,45.272 133.79,45.416 C134.042,45.596 134.366,45.812 134.51,45.812 C134.69,45.776 134.582,45.668 134.69,45.524 C135.158,45.704 135.482,45.776 135.698,45.74 L135.626,44.48 C135.338,44.156 135.23,43.94 134.942,43.688 C134.87,43.796 134.798,43.868 134.69,43.904 L134.546,44.012 L134.402,44.012 L134.402,43.976 C134.402,43.652 134.258,43.22 134.258,43.04 C134.222,42.572 134.51,41.888 134.546,41.42 C134.654,41.168 134.546,40.772 134.546,40.592 C134.834,38.54 135.482,35.84 135.77,34.256 C135.806,34.112 135.734,33.968 135.734,33.86 C136.346,31.448 136.886,29.036 137.318,26.624 C137.858,24.5 138.398,22.412 138.686,20.36 C138.794,19.532 139.046,18.092 139.046,17.912 L139.046,17.912 Z M134.906,18.416 C134.906,18.884 132.458,22.304 132.35,22.412 C131.63,23.24 130.514,24.428 129.542,25.436 C130.154,24.176 130.982,22.196 131.738,20.864 C131.918,20.432 132.566,19.928 132.854,19.316 C133.106,18.776 133.754,17.804 134.222,17.372 C134.114,17.624 134.078,17.804 134.186,17.984 L134.33,17.804 L134.366,18.236 C134.474,18.236 134.582,18.308 134.69,18.416 C134.834,18.272 134.762,18.128 134.906,18.128 L134.906,18.416 Z M172.202,16.436 C169.934,16.616 168.134,16.76 166.514,17.048 C166.19,17.084 165.866,17.264 165.614,17.264 C165.326,17.264 165.542,17.084 165.29,17.084 C164.966,17.084 164.714,17.12 164.534,17.192 C164.21,17.192 164.066,17.264 163.814,17.12 L163.814,16.94 C164.102,15.896 164.39,14.744 164.534,13.772 C165.254,11.504 166.01,9.128 166.73,6.68 C166.73,6.5 166.694,6.32 166.622,6.068 C166.874,5.6 167.054,4.736 167.054,4.556 C167.054,4.232 166.37,3.152 166.37,2.828 L166.37,2.648 C166.37,2.648 166.406,2.648 166.478,2.612 C166.334,2.612 166.334,2.648 166.082,2.648 C165.83,2.648 165.578,2.072 165.29,2.072 C165.182,2.072 164.822,2.18 164.678,2.324 C163.958,2.792 163.922,3.98 163.67,4.7 C163.346,5.6 163.058,6.608 162.878,7.364 C162.446,8.984 161.906,10.604 161.51,12.188 C161.114,13.736 160.682,17.12 160.286,18.2 C160.25,18.452 159.962,18.74 159.782,18.74 C159.494,18.74 159.746,18.632 159.458,18.632 C159.278,18.632 159.17,18.74 159.026,18.776 C159.026,18.812 158.954,18.92 158.846,19.028 C158.846,19.568 158.666,20.288 158.666,20.468 C158.666,20.684 159.674,21.872 159.674,22.124 C159.71,23.888 159.422,25.292 159.566,25.832 C159.71,26.732 159.53,27.632 160.646,28.64 C160.79,28.784 160.826,29.216 161.078,29.216 C161.258,29.216 161.546,29.144 161.654,29.144 C161.654,28.82 162.086,28.568 162.086,28.316 C162.086,28.136 161.726,26.768 161.726,26.516 C161.726,26.264 162.122,23.996 162.41,22.808 C162.698,22.628 163.13,22.268 163.454,22.232 L163.742,21.8 C164.318,21.548 165.254,21.224 165.398,21.224 C165.686,21.224 165.578,21.296 165.686,21.296 C165.686,21.188 165.578,21.116 165.686,21.08 C166.55,20.792 167.45,20.432 168.17,20.288 C168.17,20.072 168.206,19.964 168.314,19.964 C168.458,20.072 168.242,20.144 168.422,20.144 C168.674,20.144 169.106,19.568 169.25,19.316 C169.97,19.172 170.834,18.992 171.086,18.38 C170.942,18.272 170.798,18.236 170.798,18.092 C171.122,17.912 171.626,17.696 172.022,17.516 C171.626,17.192 171.986,17.264 172.094,16.94 C171.986,16.94 171.914,16.904 171.914,16.796 C172.058,16.652 172.202,16.58 172.202,16.436 L172.202,16.436 Z M183.938,25.148 C183.614,25.292 183.218,25.472 182.894,25.508 C182.246,25.616 180.374,26.588 180.122,26.588 C179.87,26.588 179.942,26.444 179.51,26.588 C179.33,26.264 179.294,25.796 179.294,25.616 L179.906,20.54 C179.906,19.532 179.726,18.632 178.43,17.732 C178.106,17.552 177.566,17.624 177.278,17.588 C177.098,17.552 176.918,17.192 176.738,17.192 C176.414,17.192 174.038,19.856 173.858,20.108 C173.57,20.432 172.958,20.9 172.67,21.224 C172.418,21.476 172.094,22.088 171.77,22.088 L176.846,8.3 C177.026,7.904 177.134,7.256 177.134,7.004 C177.134,6.68 177.062,5.636 176.774,5.096 C176.738,5.096 176.666,5.024 176.594,4.88 C176.306,4.88 175.946,4.592 175.658,4.592 C174.686,4.592 174.542,5.24 174.002,6.356 C173.426,7.868 172.346,10.352 171.878,11.792 C171.986,11.972 171.986,12.152 171.914,12.368 C171.518,13.268 171.05,14.672 170.87,15.644 C170.834,15.716 170.762,15.788 170.654,15.896 C170.618,16.184 170.366,16.58 170.366,16.904 C170.366,16.94 169.826,18.272 169.358,19.82 C169.106,20.576 168.89,21.548 168.71,22.772 C168.53,23.996 168.422,24.788 168.422,25.184 C168.422,25.472 168.602,26.3 168.602,26.84 C168.926,27.164 168.962,27.596 169.142,27.884 C169.394,28.28 169.61,28.496 169.79,28.892 C170.114,28.712 170.438,28.496 170.618,28.496 C170.87,28.496 170.726,28.532 170.87,28.532 C170.798,28.532 170.762,28.532 170.762,28.496 L170.762,28.46 C171.698,27.632 172.562,26.444 173.354,24.968 C174.146,23.492 175.046,22.412 176.09,21.728 L176.162,22.232 C176.018,23.06 176.018,23.78 176.054,24.536 C176.09,25.292 176.234,26.084 176.486,26.876 C176.63,27.164 176.954,27.56 177.062,27.848 C177.242,28.1 177.386,28.496 177.494,28.676 C177.674,28.784 178.682,29.54 178.862,29.54 C179.15,29.54 179.87,29.648 180.122,29.648 C180.41,29.648 181.094,29.144 181.382,29 C181.346,29 181.274,28.964 181.166,28.856 C181.706,28.46 181.922,28.064 182.21,27.92 C182.318,27.74 182.282,27.38 182.426,27.272 C182.57,26.984 182.93,26.948 183.11,26.768 C183.362,26.516 183.434,25.976 183.722,25.832 C183.434,25.976 183.11,25.94 182.822,26.12 C182.786,26.084 182.75,26.084 182.75,26.048 L182.75,25.976 C183.29,25.652 183.686,25.4 183.938,25.148 L183.938,25.148 Z M189.518,9.992 C189.086,9.596 189.338,9.092 189.158,8.912 C189.05,8.66 188.726,8.48 188.474,8.156 C187.574,8.264 187.394,8.66 185.774,8.552 C185.954,8.876 185.846,9.488 185.99,9.776 C186.17,10.388 186.494,11.288 187.034,11.576 C187.142,11.684 187.106,11.72 187.142,11.828 C187.538,12.008 188.042,12.332 188.582,12.296 C190.31,12.188 188.906,10.892 189.518,9.992 L189.518,9.992 Z M190.814,22.88 C189.626,24.068 187.934,25.4 186.242,26.156 C185.99,25.292 186.314,24.824 186.746,23.348 C186.854,23.024 186.926,22.376 187.07,22.052 C187.322,21.656 187.502,21.008 187.61,20.18 C187.718,19.316 187.862,18.668 187.97,18.236 C188.006,17.948 188.15,17.732 188.15,17.552 C188.114,17.084 187.826,16.652 187.286,16.256 C186.782,15.86 186.314,15.644 185.846,15.68 C185.558,15.716 185.306,15.86 185.018,15.86 C184.766,16.112 184.73,16.4 184.586,16.508 C184.55,16.76 184.55,16.904 184.55,17.012 C184.082,17.984 183.686,19.244 183.362,20.792 L182.966,22.304 C182.786,22.988 182.678,24.248 182.714,24.68 C182.822,26.264 184.082,29.288 186.494,29.108 C186.746,29.108 187.502,28.892 187.934,28.64 C188.222,28.496 188.15,28.244 188.15,28.136 C188.582,27.596 189.446,26.804 190.022,26.48 C189.986,26.228 190.022,26.012 190.13,25.868 C190.274,25.76 190.526,25.544 190.562,25.364 C190.454,25.22 190.31,25.256 190.202,25.22 C190.994,24.536 190.346,23.276 190.814,22.88 L190.814,22.88 Z M205.682,24.608 C205.142,24.896 204.602,25.436 204.35,25.472 L204.206,25.472 L204.242,25.4 C204.206,25.364 204.242,25.328 204.314,25.328 L204.35,25.328 C203.738,25.58 202.478,26.588 201.866,26.588 C201.686,26.624 201.506,26.588 201.398,26.516 C201.362,25.796 201.218,25.112 201.326,24.536 C201.218,23.06 201.506,20.18 201.398,19.928 C201.29,18.956 201.506,19.604 200.642,17.912 C200.606,17.912 200.426,17.876 200.426,17.768 C200.462,17.732 200.498,17.696 200.498,17.66 L200.498,17.624 C200.21,17.372 199.742,16.904 199.562,16.904 C199.31,16.94 199.238,17.048 199.058,17.156 C198.95,16.976 198.878,16.796 198.626,16.616 C198.194,16.868 197.798,16.76 197.474,16.904 C196.754,17.192 195.89,18.668 195.35,19.208 C195.314,18.704 195.386,18.164 195.566,17.624 C195.674,17.48 195.782,17.372 195.782,17.12 C195.926,16.4 195.998,15.464 196.106,14.852 C196.214,14.528 196.43,14.276 196.394,14.024 L196.358,13.628 C196.214,13.664 196.25,13.7 196.142,13.7 L196.106,13.7 C195.962,13.52 196.106,13.268 196.106,13.088 C195.71,12.98 195.458,12.764 195.206,12.584 C195.242,12.764 195.242,13.052 195.098,13.196 C194.846,12.872 194.63,12.656 194.45,12.404 C194.162,12.512 193.766,12.908 193.442,13.196 C193.442,13.484 193.478,13.808 193.478,13.952 C192.506,16.508 191.498,19.388 190.814,21.368 C190.67,21.908 190.706,22.556 190.562,23.096 C190.454,23.42 190.274,23.888 190.094,24.212 C190.058,24.932 189.77,26.12 189.77,26.3 C189.806,26.624 189.986,26.84 190.13,26.948 C190.274,27.092 190.418,28.892 191.318,28.784 C191.57,28.784 191.246,28.676 191.534,28.676 C191.714,28.64 191.894,29 192.146,29 C192.326,28.964 193.118,28.172 193.442,27.74 C193.91,27.164 194.27,26.516 194.594,25.904 C194.558,25.76 194.558,25.688 194.594,25.652 C195.602,24.464 196.754,22.808 197.726,21.692 C197.834,21.728 197.69,21.836 197.798,21.872 C197.834,22.916 197.834,24.32 198.014,25.04 C198.158,26.156 198.662,27.344 199.202,28.388 C199.31,28.748 201.002,29.612 201.398,29.612 C201.65,29.612 202.37,29.72 202.838,29.684 C202.946,29.504 203.234,29 203.486,28.892 C203.774,28.568 204.422,28.316 204.602,27.992 C204.638,27.704 204.926,27.56 205.106,27.38 C204.962,27.2 205.07,26.984 204.962,26.804 C205.214,26.624 205.106,26.336 205.25,26.192 C205.286,26.228 205.322,26.192 205.394,26.12 L205.43,26.084 C205.322,26.084 205.214,26.048 205.142,26.012 C205.25,25.868 205.358,25.796 205.466,25.688 C205.502,25.652 205.322,25.472 205.43,25.364 C205.466,25.112 205.538,24.86 205.682,24.608 L205.682,24.608 Z M199.454,17.372 L199.418,17.192 L199.67,17.156 L199.706,17.336 L199.454,17.372 Z M213.026,23.096 L212.342,23.924 L212.378,23.996 L213.062,23.096 L213.026,23.096 Z M212.09,24.14 L211.694,24.572 L211.802,24.608 L212.198,24.248 L212.09,24.14 Z M217.562,17.912 C217.526,17.3 216.806,16.652 216.842,16.508 C216.518,16.328 216.05,16.112 215.726,16.004 C215.474,15.968 215.222,15.68 215.078,15.644 C214.97,15.356 214.826,15.284 214.934,14.996 C214.754,14.744 214.25,14.06 214.07,14.06 C210.902,14.24 209.786,17.408 207.014,21.152 C206.186,22.376 204.638,25.364 204.746,27.056 C204.782,27.632 204.746,27.848 205.142,28.568 L205.25,28.748 C205.43,28.928 205.538,29.108 205.682,29.252 C206.114,29.432 206.906,29.72 207.086,29.72 C207.338,29.72 207.734,29.576 208.022,29.432 C208.022,29.324 207.914,29.252 207.914,29.144 C208.382,28.676 208.958,28.064 209.246,27.812 C209.966,26.948 210.83,26.048 211.586,25.076 C211.802,24.032 212.774,23.312 213.278,22.412 C213.386,22.556 213.278,22.808 213.134,22.988 C213.458,22.592 213.602,22.34 213.71,22.232 C213.602,22.34 213.566,22.484 213.422,22.484 C213.566,22.16 213.71,21.872 213.854,21.764 C213.89,21.8 213.89,21.8 213.89,21.836 L213.926,21.872 C212.486,28.82 210.83,34.328 210.686,40.556 C210.686,40.952 210.65,41.564 210.65,41.708 C210.65,41.96 210.794,42.968 210.974,43.652 C211.01,44.12 211.442,44.624 211.73,45.092 C211.874,45.128 212.198,45.272 212.306,45.416 C212.558,45.596 212.882,45.812 213.026,45.812 C213.206,45.776 213.098,45.668 213.206,45.524 C213.674,45.704 213.998,45.776 214.214,45.74 L214.142,44.48 C213.854,44.156 213.746,43.94 213.458,43.688 C213.386,43.796 213.314,43.868 213.206,43.904 L213.062,44.012 L212.918,44.012 L212.918,43.976 C212.918,43.652 212.774,43.22 212.774,43.04 C212.738,42.572 213.026,41.888 213.062,41.42 C213.17,41.168 213.062,40.772 213.062,40.592 C213.35,38.54 213.998,35.84 214.286,34.256 C214.322,34.112 214.25,33.968 214.25,33.86 C214.862,31.448 215.402,29.036 215.834,26.624 C216.374,24.5 216.914,22.412 217.202,20.36 C217.31,19.532 217.562,18.092 217.562,17.912 L217.562,17.912 Z M213.422,18.416 C213.422,18.884 210.974,22.304 210.866,22.412 C210.146,23.24 209.03,24.428 208.058,25.436 C208.67,24.176 209.498,22.196 210.254,20.864 C210.434,20.432 211.082,19.928 211.37,19.316 C211.622,18.776 212.27,17.804 212.738,17.372 C212.63,17.624 212.594,17.804 212.702,17.984 L212.846,17.804 L212.882,18.236 C212.99,18.236 213.098,18.308 213.206,18.416 C213.35,18.272 213.278,18.128 213.422,18.128 L213.422,18.416 Z M229.082,14.672 C229.082,14.42 228.794,13.844 228.506,13.664 C228.506,13.52 228.506,13.412 228.47,13.268 C228.11,12.908 227.57,12.512 226.886,12.116 C226.202,11.684 225.59,11.504 225.014,11.576 C224.87,11.468 224.906,11.432 224.618,11.432 C223.718,11.432 223.61,14.636 223.61,15.068 C223.502,15.824 223.394,16.256 223.394,16.724 C223.394,16.904 223.502,17.12 223.502,17.3 C223.502,17.876 223.25,18.56 223.25,19.1 C223.25,20.72 223.43,24.428 222.566,26.48 C222.386,27.02 222.098,27.632 221.666,28.028 C220.946,27.56 220.946,26.624 220.55,25.94 C220.406,25.94 220.262,26.012 220.154,26.156 L220.01,26.012 C220.19,25.616 219.794,25.328 219.65,25.04 C219.686,24.86 219.65,24.644 219.506,24.392 C219.83,24.068 219.686,24.14 219.506,23.96 C219.506,23.636 219.614,23.384 219.47,23.384 C219.326,23.24 219.254,23.276 219.146,23.132 C219.182,22.88 219.326,22.592 219.29,22.412 C219.218,22.448 219.11,22.484 219.002,22.484 C218.57,23.096 218.246,24.248 218.246,24.68 C218.246,26.156 219.866,28.928 221.018,29.612 C221.162,29.612 222.026,30.62 222.674,30.62 C222.962,30.62 222.854,30.476 222.962,30.584 C223.106,30.62 223.034,30.728 223.322,30.728 C225.446,30.728 225.842,27.344 226.022,26.012 C226.49,23.276 226.202,20.468 226.526,17.768 C226.562,17.624 226.634,17.516 226.814,17.444 C227.138,17.768 227.714,18.02 227.894,18.02 C228.146,18.02 228.506,17.912 228.65,17.768 C228.974,17.084 229.046,15.824 228.938,15.104 C229.046,14.996 229.082,14.924 229.082,14.672 L229.082,14.672 Z M220.478,25.328 L220.334,25.328 L220.334,25.868 L220.478,25.868 L220.478,25.328 Z M262.958,25.148 C262.634,25.292 262.238,25.472 261.914,25.508 C261.266,25.616 259.394,26.588 259.142,26.588 C258.89,26.588 258.962,26.444 258.53,26.588 C258.35,26.264 258.314,25.796 258.314,25.616 L258.926,20.54 C258.926,19.532 258.746,18.632 257.45,17.732 C257.126,17.552 256.586,17.624 256.298,17.588 C256.118,17.552 255.938,17.192 255.758,17.192 C255.434,17.192 253.058,19.856 252.878,20.108 C252.59,20.432 251.978,20.9 251.69,21.224 C251.438,21.476 251.114,22.088 250.79,22.088 L255.866,8.3 C256.046,7.904 256.154,7.256 256.154,7.004 C256.154,6.68 256.082,5.636 255.794,5.096 C255.758,5.096 255.686,5.024 255.614,4.88 C255.326,4.88 254.966,4.592 254.678,4.592 C253.706,4.592 253.562,5.24 253.022,6.356 C252.446,7.868 251.366,10.352 250.898,11.792 C251.006,11.972 251.006,12.152 250.934,12.368 C250.538,13.268 250.07,14.672 249.89,15.644 C249.854,15.716 249.782,15.788 249.674,15.896 C249.638,16.184 249.386,16.58 249.386,16.904 C249.386,16.94 248.846,18.272 248.378,19.82 C248.126,20.576 247.91,21.548 247.73,22.772 C247.55,23.996 247.442,24.788 247.442,25.184 C247.442,25.472 247.622,26.3 247.622,26.84 C247.946,27.164 247.982,27.596 248.162,27.884 C248.414,28.28 248.63,28.496 248.81,28.892 C249.134,28.712 249.458,28.496 249.638,28.496 C249.89,28.496 249.746,28.532 249.89,28.532 C249.818,28.532 249.782,28.532 249.782,28.496 L249.782,28.46 C250.718,27.632 251.582,26.444 252.374,24.968 C253.166,23.492 254.066,22.412 255.11,21.728 L255.182,22.232 C255.038,23.06 255.038,23.78 255.074,24.536 C255.11,25.292 255.254,26.084 255.506,26.876 C255.65,27.164 255.974,27.56 256.082,27.848 C256.262,28.1 256.406,28.496 256.514,28.676 C256.694,28.784 257.702,29.54 257.882,29.54 C258.17,29.54 258.89,29.648 259.142,29.648 C259.43,29.648 260.114,29.144 260.402,29 C260.366,29 260.294,28.964 260.186,28.856 C260.726,28.46 260.942,28.064 261.23,27.92 C261.338,27.74 261.302,27.38 261.446,27.272 C261.59,26.984 261.95,26.948 262.13,26.768 C262.382,26.516 262.454,25.976 262.742,25.832 C262.454,25.976 262.13,25.94 261.842,26.12 C261.806,26.084 261.77,26.084 261.77,26.048 L261.77,25.976 C262.31,25.652 262.706,25.4 262.958,25.148 L262.958,25.148 Z M278.186,25.076 C277.97,25.184 273.974,27.056 273.434,27.056 C273.146,27.056 272.75,27.236 272.354,27.092 C272.354,26.768 272.246,26.156 272.246,25.976 C272.246,25.76 272.642,22.16 273.038,20.252 C273.326,18.884 274.082,16.508 274.082,16.256 C274.082,15.968 273.974,16.256 273.974,16.112 C274.118,15.968 273.938,15.464 273.83,15.284 C273.542,14.96 272.678,14.564 272.246,14.564 C272.066,14.564 272.318,14.672 272.03,14.672 C271.778,14.672 271.958,14.384 271.706,14.384 C271.238,14.384 271.526,14.636 271.094,15.104 C270.914,15.104 270.698,15.032 270.518,15.032 C270.338,15.032 270.158,14.924 269.906,14.708 L269.618,14.708 C269.51,14.924 269.366,15.104 269.186,15.212 C269.006,15.356 268.754,15.284 268.43,15.428 C268.322,15.536 268.466,15.644 268.358,15.752 C268.034,16.04 267.638,16.508 267.314,16.652 C266.846,16.976 266.126,17.696 265.874,18.02 C264.65,19.64 261.734,24.572 261.734,26.768 C261.734,26.948 261.986,27.56 262.022,27.848 C262.706,28.424 263.102,29.18 264.29,29.18 C264.47,29.18 264.866,29.036 265.046,29.036 C266.126,29.036 267.962,26.336 268.358,25.76 C268.79,25.04 269.186,24.536 269.582,23.852 C269.69,24.536 269.69,25.256 269.69,25.688 C269.69,25.94 271.022,28.928 272.498,28.928 L274.01,28.928 C274.334,28.928 275.558,27.812 276.314,27.704 C276.206,27.704 276.026,27.488 276.026,27.452 C276.566,27.056 277.106,26.588 277.394,26.264 C277.286,26.084 277.358,25.94 277.538,25.76 C277.646,25.508 278.078,25.364 278.186,25.076 L278.186,25.076 Z M269.51,18.812 C268.466,20.54 267.494,22.556 266.342,23.96 L266.126,23.708 C266.99,22.016 268.106,20.072 269.294,18.632 C269.294,18.74 269.15,18.884 269.294,19.028 L269.51,18.812 Z M289.13,19.604 C289.13,18.776 288.914,17.516 287.798,16.976 C287.618,16.832 287.258,16.472 287.006,16.328 C286.394,16.184 285.422,15.932 285.134,15.932 C284.126,15.932 282.038,17.984 281.606,18.704 C281.57,18.668 281.534,18.668 281.534,18.632 L281.534,18.56 C281.714,18.164 282.146,17.768 282.326,17.516 C282.29,17.516 282.182,17.552 282.146,17.552 L282.002,17.552 L281.822,17.408 C282.29,15.932 282.902,13.088 282.902,12.944 C282.902,12.62 282.578,11.252 282.47,10.604 C281.93,10.208 281.39,9.632 281.21,9.632 C280.958,9.632 280.958,9.92 280.778,9.92 C280.49,9.92 280.562,9.812 280.418,9.812 C280.562,10.064 280.598,10.244 280.526,10.388 C279.986,12.512 279.194,15.032 278.474,17.156 C278.582,17.444 278.582,17.912 278.474,18.092 C278.186,18.848 277.934,19.604 277.754,20.36 C277.718,20.684 277.898,20.972 277.79,21.26 C277.178,24.248 276.53,27.452 275.918,30.08 C275.45,30.224 275.126,31.412 274.982,31.736 C274.838,32.132 274.982,32.636 274.838,32.816 C274.694,32.96 274.586,33.068 274.586,33.212 C274.55,33.788 274.694,34.184 274.658,34.508 C274.55,34.76 274.442,35.048 274.298,35.228 C274.694,35.552 274.946,35.84 275.27,36.164 C275.234,36.308 275.27,36.416 275.27,36.452 C275.45,36.488 275.666,36.812 275.846,36.812 C276.134,36.812 276.026,36.596 276.314,36.596 C276.566,36.596 276.242,36.812 276.494,36.812 L276.746,36.812 C277.034,36.488 277.286,35.84 277.322,35.516 C277.646,34.04 277.79,32.528 278.258,31.124 C278.438,30.512 278.798,29.612 278.906,29.036 C279.302,27.2 280.022,24.176 280.526,23.204 C280.706,22.664 281.21,22.16 281.39,21.764 C281.534,21.908 281.246,21.98 281.498,21.98 C281.714,21.98 282.47,20.432 283.01,20.072 C283.982,19.244 284.81,18.848 285.494,18.956 C285.17,20.648 284.234,22.808 282.362,24.356 C281.93,24.68 281.426,25.328 281.174,25.328 C280.994,25.328 280.814,25.184 280.778,25.184 C280.958,25.184 281.03,25.256 281.03,25.436 C280.706,25.616 280.418,25.976 280.418,26.156 C280.418,26.3 281.39,27.884 281.894,28.568 L282.182,28.568 C282.434,28.568 282.47,28.496 282.614,28.64 L282.614,28.712 C282.794,28.712 283.37,28.748 283.55,28.64 C286.358,27.092 289.13,22.52 289.13,19.604 L289.13,19.604 Z M303.026,19.604 C303.026,18.776 302.81,17.516 301.694,16.976 C301.514,16.832 301.154,16.472 300.902,16.328 C300.29,16.184 299.318,15.932 299.03,15.932 C298.022,15.932 295.934,17.984 295.502,18.704 C295.466,18.668 295.43,18.668 295.43,18.632 L295.43,18.56 C295.61,18.164 296.042,17.768 296.222,17.516 C296.186,17.516 296.078,17.552 296.042,17.552 L295.898,17.552 L295.718,17.408 C296.186,15.932 296.798,13.088 296.798,12.944 C296.798,12.62 296.474,11.252 296.366,10.604 C295.826,10.208 295.286,9.632 295.106,9.632 C294.854,9.632 294.854,9.92 294.674,9.92 C294.386,9.92 294.458,9.812 294.314,9.812 C294.458,10.064 294.494,10.244 294.422,10.388 C293.882,12.512 293.09,15.032 292.37,17.156 C292.478,17.444 292.478,17.912 292.37,18.092 C292.082,18.848 291.83,19.604 291.65,20.36 C291.614,20.684 291.794,20.972 291.686,21.26 C291.074,24.248 290.426,27.452 289.814,30.08 C289.346,30.224 289.022,31.412 288.878,31.736 C288.734,32.132 288.878,32.636 288.734,32.816 C288.59,32.96 288.482,33.068 288.482,33.212 C288.446,33.788 288.59,34.184 288.554,34.508 C288.446,34.76 288.338,35.048 288.194,35.228 C288.59,35.552 288.842,35.84 289.166,36.164 C289.13,36.308 289.166,36.416 289.166,36.452 C289.346,36.488 289.562,36.812 289.742,36.812 C290.03,36.812 289.922,36.596 290.21,36.596 C290.462,36.596 290.138,36.812 290.39,36.812 L290.642,36.812 C290.93,36.488 291.182,35.84 291.218,35.516 C291.542,34.04 291.686,32.528 292.154,31.124 C292.334,30.512 292.694,29.612 292.802,29.036 C293.198,27.2 293.918,24.176 294.422,23.204 C294.602,22.664 295.106,22.16 295.286,21.764 C295.43,21.908 295.142,21.98 295.394,21.98 C295.61,21.98 296.366,20.432 296.906,20.072 C297.878,19.244 298.706,18.848 299.39,18.956 C299.066,20.648 298.13,22.808 296.258,24.356 C295.826,24.68 295.322,25.328 295.07,25.328 C294.89,25.328 294.71,25.184 294.674,25.184 C294.854,25.184 294.926,25.256 294.926,25.436 C294.602,25.616 294.314,25.976 294.314,26.156 C294.314,26.3 295.286,27.884 295.79,28.568 L296.078,28.568 C296.33,28.568 296.366,28.496 296.51,28.64 L296.51,28.712 C296.69,28.712 297.266,28.748 297.446,28.64 C300.254,27.092 303.026,22.52 303.026,19.604 L303.026,19.604 Z M313.286,25.868 C313.178,25.868 313.034,25.832 312.926,25.724 C312.206,25.904 311.306,26.228 310.334,26.516 C309.758,26.264 309.47,26.624 309.074,26.624 C308.822,26.624 308.282,26.66 308.03,26.516 C307.598,26.336 306.95,25.904 306.95,25.616 C306.95,25.292 309.002,23.24 310.046,21.98 C310.658,21.224 311.414,20.144 311.702,19.568 C311.99,18.668 312.386,16.868 312.386,16.652 C312.386,15.716 311.666,16.508 311.666,14.996 C311.522,14.852 311.414,14.672 311.234,14.672 C310.982,14.672 311.27,14.78 310.982,14.78 C310.73,14.78 310.838,14.42 310.73,14.096 C310.406,13.988 309.902,13.664 309.722,13.664 C309.434,13.664 309.794,13.772 309.506,13.772 C309.398,13.772 309.362,13.736 309.362,13.664 C309.362,13.628 309.398,13.628 309.434,13.592 C309.542,13.988 308.786,14.204 308.462,14.348 C307.742,14.78 307.67,15.14 307.13,15.608 C306.878,16.076 306.446,16.616 306.194,16.94 C305.654,17.804 305.294,18.632 305.006,19.208 C304.466,20.324 303.926,21.728 303.782,22.412 C303.638,22.988 303.314,23.744 303.494,25.184 C304.178,28.064 303.854,27.164 304.502,27.74 C305.402,28.712 305.69,28.964 306.734,29.216 L307.13,29.756 C307.238,29.036 308.282,29.756 308.714,29.756 C308.822,29.756 308.858,29.72 308.858,29.684 L308.858,29.576 C309.254,29.54 309.794,29.216 310.19,29.18 C310.046,29.18 309.866,29.144 310.046,29.036 C310.586,29.036 311.018,28.964 311.45,28.82 C311.45,28.244 311.774,27.452 312.386,27.596 C312.53,27.272 312.638,26.912 312.782,26.732 C312.53,26.66 312.386,26.552 312.386,26.372 C312.71,26.264 312.89,26.012 313.286,25.868 L313.286,25.868 Z M328.874,24.608 C328.334,24.896 327.794,25.436 327.542,25.472 L327.398,25.472 L327.434,25.4 C327.398,25.364 327.434,25.328 327.506,25.328 L327.542,25.328 C326.93,25.58 325.67,26.588 325.058,26.588 C324.878,26.624 324.698,26.588 324.59,26.516 C324.554,25.796 324.41,25.112 324.518,24.536 C324.41,23.06 324.698,20.18 324.59,19.928 C324.482,18.956 324.698,19.604 323.834,17.912 C323.798,17.912 323.618,17.876 323.618,17.768 C323.654,17.732 323.69,17.696 323.69,17.66 L323.69,17.624 C323.402,17.372 322.934,16.904 322.754,16.904 C322.502,16.94 322.43,17.048 322.25,17.156 C322.142,16.976 322.07,16.796 321.818,16.616 C321.386,16.868 320.99,16.76 320.666,16.904 C319.946,17.192 319.082,18.668 318.542,19.208 C318.506,18.704 318.578,18.164 318.758,17.624 C318.866,17.48 318.974,17.372 318.974,17.12 C319.118,16.4 319.19,15.464 319.298,14.852 C319.406,14.528 319.622,14.276 319.586,14.024 L319.55,13.628 C319.406,13.664 319.442,13.7 319.334,13.7 L319.298,13.7 C319.154,13.52 319.298,13.268 319.298,13.088 C318.902,12.98 318.65,12.764 318.398,12.584 C318.434,12.764 318.434,13.052 318.29,13.196 C318.038,12.872 317.822,12.656 317.642,12.404 C317.354,12.512 316.958,12.908 316.634,13.196 C316.634,13.484 316.67,13.808 316.67,13.952 C315.698,16.508 314.69,19.388 314.006,21.368 C313.862,21.908 313.898,22.556 313.754,23.096 C313.646,23.42 313.466,23.888 313.286,24.212 C313.25,24.932 312.962,26.12 312.962,26.3 C312.998,26.624 313.178,26.84 313.322,26.948 C313.466,27.092 313.61,28.892 314.51,28.784 C314.762,28.784 314.438,28.676 314.726,28.676 C314.906,28.64 315.086,29 315.338,29 C315.518,28.964 316.31,28.172 316.634,27.74 C317.102,27.164 317.462,26.516 317.786,25.904 C317.75,25.76 317.75,25.688 317.786,25.652 C318.794,24.464 319.946,22.808 320.918,21.692 C321.026,21.728 320.882,21.836 320.99,21.872 C321.026,22.916 321.026,24.32 321.206,25.04 C321.35,26.156 321.854,27.344 322.394,28.388 C322.502,28.748 324.194,29.612 324.59,29.612 C324.842,29.612 325.562,29.72 326.03,29.684 C326.138,29.504 326.426,29 326.678,28.892 C326.966,28.568 327.614,28.316 327.794,27.992 C327.83,27.704 328.118,27.56 328.298,27.38 C328.154,27.2 328.262,26.984 328.154,26.804 C328.406,26.624 328.298,26.336 328.442,26.192 C328.478,26.228 328.514,26.192 328.586,26.12 L328.622,26.084 C328.514,26.084 328.406,26.048 328.334,26.012 C328.442,25.868 328.55,25.796 328.658,25.688 C328.694,25.652 328.514,25.472 328.622,25.364 C328.658,25.112 328.73,24.86 328.874,24.608 L328.874,24.608 Z M322.646,17.372 L322.61,17.192 L322.862,17.156 L322.898,17.336 L322.646,17.372 Z M363.974,19.46 C363.974,18.416 363.578,16.868 363.002,15.824 C362.75,15.824 362.498,15.752 362.246,15.608 L362.246,15.32 C362.138,15.32 362.03,15.392 361.922,15.536 C361.742,15.356 361.778,15.14 361.67,15.104 C361.67,14.996 361.274,14.996 361.238,14.852 C361.13,14.744 361.094,14.636 361.094,14.564 C361.094,15.176 360.95,15.788 360.95,16.112 C360.95,17.012 361.058,18.128 361.022,18.74 C360.914,20.072 360.482,22.736 359.33,24.248 C359.15,23.42 358.754,22.484 358.466,21.152 C358.178,19.82 357.35,19.244 356.378,19.064 C356.126,18.92 355.982,18.56 355.694,18.56 C354.974,18.56 354.65,18.668 354.362,18.992 C354.11,19.28 354.002,19.532 352.814,21.224 C352.022,22.124 350.474,24.104 349.97,24.5 L349.97,24.356 C349.502,23.384 350.294,22.016 351.122,20.72 L353.39,17.12 L353.39,16.796 C353.714,16.508 353.822,16.112 354.074,15.932 C353.894,15.464 353.75,14.816 353.354,14.528 C352.598,13.844 352.166,14.024 351.482,13.916 C350.474,15.356 349.286,17.048 348.818,18.02 C348.278,18.92 347.342,20.36 346.586,21.908 C345.866,23.384 345.938,25.04 345.938,26.084 C345.938,26.588 346.622,28.28 347.054,28.532 C347.342,28.82 347.99,29.144 348.278,29.144 L349.538,29.144 L349.538,28.748 C350.078,28.46 351.122,27.812 351.59,27.236 C352.346,26.084 353.606,25.076 354.722,23.744 C354.866,23.744 354.974,23.528 355.082,23.672 C355.082,23.276 355.514,23.024 355.622,22.844 C355.802,22.52 356.09,22.088 356.27,21.908 C356.558,22.952 356.774,23.996 357.098,24.968 C357.278,25.796 357.566,26.66 357.89,27.524 C358.034,27.848 358.214,28.064 358.394,28.208 C358.646,28.424 359.006,28.64 359.474,28.856 C359.942,29.036 360.194,29.144 360.302,29.144 C360.554,29.144 360.77,29.072 360.878,28.892 C361.166,28.496 361.598,28.028 361.922,27.596 C362.462,26.732 363.038,25.616 363.29,24.356 C363.614,22.664 363.974,21.188 363.974,19.46 L363.974,19.46 Z M380.066,25.148 C379.742,25.292 379.346,25.472 379.022,25.508 C378.374,25.616 376.502,26.588 376.25,26.588 C375.998,26.588 376.07,26.444 375.638,26.588 C375.458,26.264 375.422,25.796 375.422,25.616 L376.034,20.54 C376.034,19.532 375.854,18.632 374.558,17.732 C374.234,17.552 373.694,17.624 373.406,17.588 C373.226,17.552 373.046,17.192 372.866,17.192 C372.542,17.192 370.166,19.856 369.986,20.108 C369.698,20.432 369.086,20.9 368.798,21.224 C368.546,21.476 368.222,22.088 367.898,22.088 L372.974,8.3 C373.154,7.904 373.262,7.256 373.262,7.004 C373.262,6.68 373.19,5.636 372.902,5.096 C372.866,5.096 372.794,5.024 372.722,4.88 C372.434,4.88 372.074,4.592 371.786,4.592 C370.814,4.592 370.67,5.24 370.13,6.356 C369.554,7.868 368.474,10.352 368.006,11.792 C368.114,11.972 368.114,12.152 368.042,12.368 C367.646,13.268 367.178,14.672 366.998,15.644 C366.962,15.716 366.89,15.788 366.782,15.896 C366.746,16.184 366.494,16.58 366.494,16.904 C366.494,16.94 365.954,18.272 365.486,19.82 C365.234,20.576 365.018,21.548 364.838,22.772 C364.658,23.996 364.55,24.788 364.55,25.184 C364.55,25.472 364.73,26.3 364.73,26.84 C365.054,27.164 365.09,27.596 365.27,27.884 C365.522,28.28 365.738,28.496 365.918,28.892 C366.242,28.712 366.566,28.496 366.746,28.496 C366.998,28.496 366.854,28.532 366.998,28.532 C366.926,28.532 366.89,28.532 366.89,28.496 L366.89,28.46 C367.826,27.632 368.69,26.444 369.482,24.968 C370.274,23.492 371.174,22.412 372.218,21.728 L372.29,22.232 C372.146,23.06 372.146,23.78 372.182,24.536 C372.218,25.292 372.362,26.084 372.614,26.876 C372.758,27.164 373.082,27.56 373.19,27.848 C373.37,28.1 373.514,28.496 373.622,28.676 C373.802,28.784 374.81,29.54 374.99,29.54 C375.278,29.54 375.998,29.648 376.25,29.648 C376.538,29.648 377.222,29.144 377.51,29 C377.474,29 377.402,28.964 377.294,28.856 C377.834,28.46 378.05,28.064 378.338,27.92 C378.446,27.74 378.41,27.38 378.554,27.272 C378.698,26.984 379.058,26.948 379.238,26.768 C379.49,26.516 379.562,25.976 379.85,25.832 C379.562,25.976 379.238,25.94 378.95,26.12 C378.914,26.084 378.878,26.084 378.878,26.048 L378.878,25.976 C379.418,25.652 379.814,25.4 380.066,25.148 L380.066,25.148 Z M387.986,25.868 C387.878,25.868 387.734,25.832 387.626,25.724 C386.906,25.904 386.006,26.228 385.034,26.516 C384.458,26.264 384.17,26.624 383.774,26.624 C383.522,26.624 382.982,26.66 382.73,26.516 C382.298,26.336 381.65,25.904 381.65,25.616 C381.65,25.292 383.702,23.24 384.746,21.98 C385.358,21.224 386.114,20.144 386.402,19.568 C386.69,18.668 387.086,16.868 387.086,16.652 C387.086,15.716 386.366,16.508 386.366,14.996 C386.222,14.852 386.114,14.672 385.934,14.672 C385.682,14.672 385.97,14.78 385.682,14.78 C385.43,14.78 385.538,14.42 385.43,14.096 C385.106,13.988 384.602,13.664 384.422,13.664 C384.134,13.664 384.494,13.772 384.206,13.772 C384.098,13.772 384.062,13.736 384.062,13.664 C384.062,13.628 384.098,13.628 384.134,13.592 C384.242,13.988 383.486,14.204 383.162,14.348 C382.442,14.78 382.37,15.14 381.83,15.608 C381.578,16.076 381.146,16.616 380.894,16.94 C380.354,17.804 379.994,18.632 379.706,19.208 C379.166,20.324 378.626,21.728 378.482,22.412 C378.338,22.988 378.014,23.744 378.194,25.184 C378.878,28.064 378.554,27.164 379.202,27.74 C380.102,28.712 380.39,28.964 381.434,29.216 L381.83,29.756 C381.938,29.036 382.982,29.756 383.414,29.756 C383.522,29.756 383.558,29.72 383.558,29.684 L383.558,29.576 C383.954,29.54 384.494,29.216 384.89,29.18 C384.746,29.18 384.566,29.144 384.746,29.036 C385.286,29.036 385.718,28.964 386.15,28.82 C386.15,28.244 386.474,27.452 387.086,27.596 C387.23,27.272 387.338,26.912 387.482,26.732 C387.23,26.66 387.086,26.552 387.086,26.372 C387.41,26.264 387.59,26.012 387.986,25.868 L387.986,25.868 Z M403.574,24.608 C403.034,24.896 402.494,25.436 402.242,25.472 L402.098,25.472 L402.134,25.4 C402.098,25.364 402.134,25.328 402.206,25.328 L402.242,25.328 C401.63,25.58 400.37,26.588 399.758,26.588 C399.578,26.624 399.398,26.588 399.29,26.516 C399.254,25.796 399.11,25.112 399.218,24.536 C399.11,23.06 399.398,20.18 399.29,19.928 C399.182,18.956 399.398,19.604 398.534,17.912 C398.498,17.912 398.318,17.876 398.318,17.768 C398.354,17.732 398.39,17.696 398.39,17.66 L398.39,17.624 C398.102,17.372 397.634,16.904 397.454,16.904 C397.202,16.94 397.13,17.048 396.95,17.156 C396.842,16.976 396.77,16.796 396.518,16.616 C396.086,16.868 395.69,16.76 395.366,16.904 C394.646,17.192 393.782,18.668 393.242,19.208 C393.206,18.704 393.278,18.164 393.458,17.624 C393.566,17.48 393.674,17.372 393.674,17.12 C393.818,16.4 393.89,15.464 393.998,14.852 C394.106,14.528 394.322,14.276 394.286,14.024 L394.25,13.628 C394.106,13.664 394.142,13.7 394.034,13.7 L393.998,13.7 C393.854,13.52 393.998,13.268 393.998,13.088 C393.602,12.98 393.35,12.764 393.098,12.584 C393.134,12.764 393.134,13.052 392.99,13.196 C392.738,12.872 392.522,12.656 392.342,12.404 C392.054,12.512 391.658,12.908 391.334,13.196 C391.334,13.484 391.37,13.808 391.37,13.952 C390.398,16.508 389.39,19.388 388.706,21.368 C388.562,21.908 388.598,22.556 388.454,23.096 C388.346,23.42 388.166,23.888 387.986,24.212 C387.95,24.932 387.662,26.12 387.662,26.3 C387.698,26.624 387.878,26.84 388.022,26.948 C388.166,27.092 388.31,28.892 389.21,28.784 C389.462,28.784 389.138,28.676 389.426,28.676 C389.606,28.64 389.786,29 390.038,29 C390.218,28.964 391.01,28.172 391.334,27.74 C391.802,27.164 392.162,26.516 392.486,25.904 C392.45,25.76 392.45,25.688 392.486,25.652 C393.494,24.464 394.646,22.808 395.618,21.692 C395.726,21.728 395.582,21.836 395.69,21.872 C395.726,22.916 395.726,24.32 395.906,25.04 C396.05,26.156 396.554,27.344 397.094,28.388 C397.202,28.748 398.894,29.612 399.29,29.612 C399.542,29.612 400.262,29.72 400.73,29.684 C400.838,29.504 401.126,29 401.378,28.892 C401.666,28.568 402.314,28.316 402.494,27.992 C402.53,27.704 402.818,27.56 402.998,27.38 C402.854,27.2 402.962,26.984 402.854,26.804 C403.106,26.624 402.998,26.336 403.142,26.192 C403.178,26.228 403.214,26.192 403.286,26.12 L403.322,26.084 C403.214,26.084 403.106,26.048 403.034,26.012 C403.142,25.868 403.25,25.796 403.358,25.688 C403.394,25.652 403.214,25.472 403.322,25.364 C403.358,25.112 403.43,24.86 403.574,24.608 L403.574,24.608 Z M397.346,17.372 L397.31,17.192 L397.562,17.156 L397.598,17.336 L397.346,17.372 Z M26.296,53.304 C26.296,53.052 25.756,52.188 25.432,51.756 C25.18,51.864 25,51.9 24.856,51.792 C25,51.612 24.784,51.576 24.64,51.324 C24.496,51.648 24.388,51.72 24.064,51.828 C23.92,51.684 23.74,51.612 23.632,51.504 C23.668,51.792 23.308,52.224 23.2,52.512 C23.056,52.692 22.876,52.908 22.84,53.052 C21.436,55.356 20.86,59.028 20.536,60.792 C20.356,61.764 20.14,62.916 19.888,63.924 C19.852,63.96 19.816,63.996 19.816,63.996 L19.744,64.032 L17.08,64.392 C15.928,64.536 14.632,64.68 13.588,64.932 C13.48,64.788 13.552,64.968 13.552,64.716 C13.552,64.464 15.136,58.272 15.64,56.904 C15.532,56.76 15.496,56.652 15.532,56.616 C15.82,55.824 15.928,53.628 15.928,53.448 C15.856,53.376 15.46,52.008 14.704,52.008 C14.524,52.008 14.74,52.08 14.488,52.08 C14.308,52.08 14.092,51.864 13.948,51.864 C13.66,51.864 13.372,51.972 13.264,51.828 C13.264,51.972 13.372,52.08 13.12,52.08 C12.868,52.08 13.12,52.008 12.868,52.008 C12.616,52.008 12.652,52.188 12.508,52.296 C12.544,52.404 12.508,52.404 12.616,52.44 C12.616,52.476 12.616,52.476 12.652,52.476 C12.616,52.8 12.652,53.268 12.616,53.556 C12.076,56.148 11.392,59.424 10.816,61.98 C10.528,63.42 10.24,64.392 9.916,65.544 C8.944,65.832 7.972,66.012 7.216,66.3 C6.928,66.444 6.748,66.732 6.604,66.84 L6.604,67.128 C6.784,67.164 6.928,67.344 7,67.704 C7.072,68.028 7.144,68.28 7.216,68.388 C7.9,68.82 8.584,69.144 9.16,69.432 C8.98,70.296 8.656,71.196 8.548,72.024 C8.44,72.888 8.188,74.832 8.188,74.976 C8.188,75.228 8.296,76.272 8.296,76.884 C8.296,77.136 9.232,79.044 9.7,79.044 C9.952,79.044 9.664,78.972 9.916,78.972 C10.168,78.972 10.636,79.152 10.888,79.296 C10.996,78.972 11.176,78.612 11.176,78.36 C11.176,78.18 10.96,77.964 10.924,77.784 C10.924,77.676 11.104,77.352 11.104,77.208 C10.852,77.1 10.744,76.956 10.744,76.812 C10.744,76.632 10.888,76.488 10.888,76.38 C11.032,74.184 11.716,71.556 12.256,69.576 C12.292,69.18 12.4,68.928 12.508,68.748 C12.472,68.748 12.472,68.748 12.472,68.712 C12.472,68.64 12.472,68.604 12.508,68.568 L18.88,67.452 C19.312,67.416 19.168,68.208 19.168,68.352 C19.168,68.532 18.988,69.576 18.88,70.152 C18.772,70.908 18.952,71.916 18.628,72.672 C18.808,72.816 18.772,72.96 18.772,73.104 C18.772,73.536 18.592,73.968 18.556,74.256 C18.52,74.868 18.556,75.732 18.556,76.344 L18.556,77.604 C18.556,77.784 18.376,78 18.376,78.18 C18.376,78.432 18.556,78.468 18.52,78.648 C18.628,78.936 19.168,79.368 19.42,79.368 C19.672,79.368 19.42,79.224 19.672,79.224 C19.924,79.224 19.816,79.26 19.816,79.368 C19.78,79.188 19.78,79.08 19.852,79.044 C19.96,79.152 19.924,79.26 19.924,79.368 C20.068,79.188 20.32,79.08 20.716,78.972 C21.148,75.84 21.904,71.448 22.12,69.792 C22.228,68.892 22.372,67.956 22.768,67.056 C22.876,66.804 23.164,66.804 23.272,66.696 C23.38,66.588 23.632,66.228 23.92,66.264 C23.812,66.264 23.92,66.12 23.884,66.012 L23.992,65.796 C24.1,65.796 24.028,65.868 24.208,65.868 C24.46,65.868 25.108,65.472 25.576,65.328 C25.252,65.328 25.036,65.22 24.964,65.04 C25.072,64.932 25.252,64.932 25.396,64.824 C24.784,64.932 24.568,64.392 24.712,63.924 C24.28,63.852 23.848,63.852 23.416,63.924 L23.416,63.204 C23.596,62.916 23.74,62.484 23.776,62.232 C23.956,61.656 24.28,61.008 24.388,60.576 C24.676,59.604 24.892,58.092 25.036,57.66 C25.36,56.904 25.576,56.256 25.72,55.716 C25.9,54.888 26.296,53.556 26.296,53.304 L26.296,53.304 Z M24.604,64.896 C24.604,65.004 24.388,65.112 24.28,65.112 L24.28,64.752 C24.424,64.752 24.532,64.788 24.604,64.896 L24.604,64.896 Z M42.388,68.892 C42.136,68.748 41.92,68.568 41.884,68.316 L42.064,68.1 C41.92,68.1 41.884,67.956 41.884,67.848 C40.876,67.848 39.94,67.812 38.932,67.668 C38.752,67.668 38.608,67.632 38.536,67.596 L39.112,63.456 C39.22,61.44 39.472,59.424 39.724,57.408 C39.76,56.94 39.58,56.544 39.688,56.148 C39.724,55.824 39.832,55.176 39.832,55.032 C39.832,54.78 39.904,53.16 39.544,52.368 C39.436,51.936 38.86,51.396 38.68,51.396 C38.428,51.396 38.752,51.468 38.5,51.468 C38.248,51.468 38.212,51.288 38.176,51.18 C38.032,51.288 37.924,51.18 37.78,51.18 C37.528,51.18 37.42,51.072 37.168,51.072 C37.132,51.072 37.06,51.108 36.988,51.18 L36.952,51.216 C36.952,51.612 36.916,52.188 36.736,52.476 C36.196,53.448 35.476,54.24 35.08,54.852 C34.288,56.328 33.748,57.408 33.424,58.092 C31.876,61.08 30.436,64.788 28.888,68.064 C28.204,68.316 27.772,68.316 27.088,68.352 C26.62,68.604 25.72,68.856 25.468,68.856 C25.324,68.856 25.18,68.784 25.072,68.676 C24.964,68.82 24.604,69.108 24.604,69.288 C24.604,69.468 25.252,70.584 25.432,70.836 C25.864,71.16 26.62,71.556 27.16,71.952 C26.836,72.672 26.548,73.32 26.332,73.932 C25.9,74.976 25.54,76.164 25.54,76.488 C25.54,76.74 25.648,77.244 25.936,77.388 C26.188,77.568 26.512,77.604 26.62,77.784 L26.8,77.604 C26.908,77.748 26.944,77.64 27.052,77.64 C27.052,77.424 27.124,77.244 27.232,77.1 C27.34,77.208 27.268,77.352 27.412,77.352 C27.556,76.74 27.772,76.128 28.06,75.552 C28.168,75.264 28.42,75.048 28.528,74.94 C29.284,73.644 29.68,72.456 30.22,71.448 C30.364,71.304 33.424,70.44 33.928,70.44 L35.26,70.44 L35.188,75.12 C35.188,75.552 35.044,76.02 35.152,76.452 C35.152,77.856 34.72,79.152 35.62,80.448 C35.944,80.628 36.484,80.772 36.664,80.952 C36.7,80.808 36.808,80.7 36.988,80.664 C37.132,80.664 37.132,80.556 37.24,80.556 C37.24,80.304 37.276,79.944 37.384,79.692 C38.14,78.144 37.564,77.424 37.852,75.984 C38.14,74.688 37.96,73.104 38.068,71.952 C38.104,71.844 38.176,71.916 38.284,71.772 C38.176,71.484 38.068,71.304 38.212,71.052 C38.32,70.728 38.392,70.26 38.536,69.972 C38.932,69.936 39.256,69.864 39.4,69.828 C40.408,69.54 41.668,69.18 42.388,68.892 L42.388,68.892 Z M35.296,67.776 C33.856,68.064 33.028,67.704 32.128,67.704 C33.28,65.364 34.36,62.232 35.908,59.82 L35.296,67.776 Z M64.636,53.448 C64.492,53.412 64.384,53.232 64.276,53.124 C64.492,52.944 64.6,52.836 64.564,52.764 C64.456,52.692 64.42,52.62 64.528,52.512 C60.028,51.54 58.408,51.648 54.844,51.648 C54.736,51.648 54.664,51.684 54.664,51.72 L54.664,51.828 C54.088,51.828 53.296,51.792 52.684,51.9 L44.548,52.944 C44.26,52.836 43.936,52.908 43.648,52.8 C43.612,52.8 43.576,52.764 43.576,52.728 L43.54,52.692 C43.36,52.944 42.892,53.016 42.352,53.016 C42.208,53.016 41.488,52.872 41.236,52.872 C40.984,52.872 40.948,53.124 40.948,53.232 C41.092,53.7 40.984,54.384 41.236,54.852 C41.488,55.284 41.704,55.824 42.1,56.148 C42.496,56.364 43.504,57.084 43.828,57.084 C44.116,57.084 44.836,56.868 45.268,57.012 L45.412,56.832 C45.7,56.832 45.808,56.868 45.916,56.868 C47.356,56.76 49.588,56.292 50.344,56.184 C50.812,56.148 51.208,56.148 51.604,56.148 L50.308,61.8 C49.984,64.644 49.588,67.524 49.3,70.296 L49.228,72.6 C49.12,74.004 49.084,75.3 48.976,76.704 C48.976,76.956 48.58,77.208 48.4,77.496 C48.94,77.928 49.768,78.612 49.948,78.612 C50.236,78.612 50.272,78.324 50.524,78.072 L50.704,78.252 C50.848,78.108 51.064,77.856 51.388,77.748 L52.864,67.848 C52.864,66.192 53.62,63.42 53.908,61.8 C54.016,61.044 54.232,60.324 54.412,59.496 C54.52,59.1 54.628,58.488 54.772,58.164 C54.952,57.264 55.024,56.22 55.132,55.464 C56.968,54.924 58.588,54.744 60.712,54.492 C61.036,54.492 61.648,54.096 61.828,54.096 C62.008,54.096 61.9,54.276 62.152,54.276 C62.368,54.276 63.916,53.772 64.636,53.448 L64.636,53.448 Z M75.076,71.988 C75.004,71.664 74.788,71.592 74.428,71.808 C74.284,71.952 74.284,72.168 74.176,72.204 C73.636,72.24 72.556,73.032 72.16,73.32 C72.052,73.212 72.196,73.068 72.016,73.068 C71.8,73.068 71.656,73.068 71.62,73.104 C71.512,73.356 71.332,73.536 71.08,73.644 C70.504,73.932 69.892,74.148 69.316,74.544 C69.172,74.652 69.028,74.904 68.884,74.94 C68.2,75.228 67.408,75.66 66.868,75.84 C66.04,76.164 64.996,76.38 64.24,76.668 L63.592,76.668 C63.304,76.668 63.304,76.524 63.196,76.416 C63.196,76.524 63.232,76.668 62.98,76.668 C62.116,76.668 61.324,74.004 61.324,73.86 C61.288,73.608 61.288,73.284 61.288,73.032 C61.288,72.852 61.108,72.672 61.108,72.42 C61.108,72.168 61.252,71.988 61.252,71.808 C61.252,70.62 61.648,69.072 61.936,67.776 C62.044,67.236 62.296,66.624 62.404,66.156 C62.872,65.04 63.124,63.924 63.52,62.916 C63.952,61.944 64.636,61.116 65.176,60.108 C65.464,59.532 65.932,58.884 66.256,58.344 C66.256,58.2 67.876,56.22 68.344,56.22 C68.38,56.22 68.38,56.256 68.416,56.256 L68.452,56.256 L68.452,56.328 L68.452,56.796 C68.452,57.012 67.804,58.452 67.516,59.352 C67.804,59.496 68.128,59.892 68.272,60.036 C68.416,60.072 68.524,60 68.632,60.108 C68.632,60.252 68.524,60.288 68.632,60.432 C68.956,60.288 69.244,60.432 69.424,60.432 C69.604,60.432 69.712,60.036 70,59.928 C70.288,59.496 70.612,59.064 70.792,58.596 C70.9,58.308 70.972,57.912 71.008,57.732 C71.116,57.336 71.368,57.444 71.368,56.832 C71.368,56.58 71.332,55.644 71.044,55.068 C70.756,54.492 70.252,54.276 69.712,53.988 C69.316,53.808 69.064,53.412 68.776,53.376 C68.488,53.268 67.732,53.088 67.552,53.088 C67.3,53.088 67.588,53.16 67.336,53.16 C67.084,53.16 67.012,52.908 66.76,52.908 C66.58,52.908 66.256,53.196 66.076,53.34 C64.456,54.096 61.756,58.02 60.64,60.072 C60.532,60.36 60.388,60.828 60.244,61.116 C59.956,61.728 59.344,62.7 59.2,63.132 C58.408,65.292 57.58,68.28 57.58,70.26 C57.58,70.512 57.796,71.376 57.688,71.664 C57.976,72.672 58.192,73.896 59.164,75.48 C59.488,76.164 59.92,76.668 60.208,77.1 C60.424,77.46 62.656,79.368 63.52,79.368 C63.772,79.368 63.592,79.224 63.844,79.224 C63.988,79.224 64.744,79.368 64.996,79.368 C65.248,79.368 65.068,79.26 65.176,79.116 C65.356,79.26 65.608,79.044 65.788,79.044 C65.896,79.044 67.192,78.648 67.552,78.576 C67.588,78.468 67.588,78.396 67.732,78.252 C67.84,78.396 67.696,78.36 67.948,78.36 C68.2,78.36 68.128,78.288 68.236,78.18 C68.38,78.18 68.272,78.036 68.272,77.928 C69.28,77.208 70.396,76.452 71.404,75.912 C71.548,75.624 71.692,75.444 71.872,75.336 C72.268,75.048 72.88,74.58 73.168,74.256 C73.492,73.824 74.068,73.356 74.644,72.96 L74.5,72.42 L75.076,71.988 Z M71.584,73.68 L71.476,73.608 L71.8,73.392 L71.872,73.5 L71.584,73.68 Z M70.828,74.292 L70.72,74.184 L70.828,73.968 L70.972,74.04 L70.828,74.292 Z M90.628,53.304 C90.628,53.052 90.088,52.188 89.764,51.756 C89.512,51.864 89.332,51.9 89.188,51.792 C89.332,51.612 89.116,51.576 88.972,51.324 C88.828,51.648 88.72,51.72 88.396,51.828 C88.252,51.684 88.072,51.612 87.964,51.504 C88,51.792 87.64,52.224 87.532,52.512 C87.388,52.692 87.208,52.908 87.172,53.052 C85.768,55.356 85.192,59.028 84.868,60.792 C84.688,61.764 84.472,62.916 84.22,63.924 C84.184,63.96 84.148,63.996 84.148,63.996 L84.076,64.032 L81.412,64.392 C80.26,64.536 78.964,64.68 77.92,64.932 C77.812,64.788 77.884,64.968 77.884,64.716 C77.884,64.464 79.468,58.272 79.972,56.904 C79.864,56.76 79.828,56.652 79.864,56.616 C80.152,55.824 80.26,53.628 80.26,53.448 C80.188,53.376 79.792,52.008 79.036,52.008 C78.856,52.008 79.072,52.08 78.82,52.08 C78.64,52.08 78.424,51.864 78.28,51.864 C77.992,51.864 77.704,51.972 77.596,51.828 C77.596,51.972 77.704,52.08 77.452,52.08 C77.2,52.08 77.452,52.008 77.2,52.008 C76.948,52.008 76.984,52.188 76.84,52.296 C76.876,52.404 76.84,52.404 76.948,52.44 C76.948,52.476 76.948,52.476 76.984,52.476 C76.948,52.8 76.984,53.268 76.948,53.556 C76.408,56.148 75.724,59.424 75.148,61.98 C74.86,63.42 74.572,64.392 74.248,65.544 C73.276,65.832 72.304,66.012 71.548,66.3 C71.26,66.444 71.08,66.732 70.936,66.84 L70.936,67.128 C71.116,67.164 71.26,67.344 71.332,67.704 C71.404,68.028 71.476,68.28 71.548,68.388 C72.232,68.82 72.916,69.144 73.492,69.432 C73.312,70.296 72.988,71.196 72.88,72.024 C72.772,72.888 72.52,74.832 72.52,74.976 C72.52,75.228 72.628,76.272 72.628,76.884 C72.628,77.136 73.564,79.044 74.032,79.044 C74.284,79.044 73.996,78.972 74.248,78.972 C74.5,78.972 74.968,79.152 75.22,79.296 C75.328,78.972 75.508,78.612 75.508,78.36 C75.508,78.18 75.292,77.964 75.256,77.784 C75.256,77.676 75.436,77.352 75.436,77.208 C75.184,77.1 75.076,76.956 75.076,76.812 C75.076,76.632 75.22,76.488 75.22,76.38 C75.364,74.184 76.048,71.556 76.588,69.576 C76.624,69.18 76.732,68.928 76.84,68.748 C76.804,68.748 76.804,68.748 76.804,68.712 C76.804,68.64 76.804,68.604 76.84,68.568 L83.212,67.452 C83.644,67.416 83.5,68.208 83.5,68.352 C83.5,68.532 83.32,69.576 83.212,70.152 C83.104,70.908 83.284,71.916 82.96,72.672 C83.14,72.816 83.104,72.96 83.104,73.104 C83.104,73.536 82.924,73.968 82.888,74.256 C82.852,74.868 82.888,75.732 82.888,76.344 L82.888,77.604 C82.888,77.784 82.708,78 82.708,78.18 C82.708,78.432 82.888,78.468 82.852,78.648 C82.96,78.936 83.5,79.368 83.752,79.368 C84.004,79.368 83.752,79.224 84.004,79.224 C84.256,79.224 84.148,79.26 84.148,79.368 C84.112,79.188 84.112,79.08 84.184,79.044 C84.292,79.152 84.256,79.26 84.256,79.368 C84.4,79.188 84.652,79.08 85.048,78.972 C85.48,75.84 86.236,71.448 86.452,69.792 C86.56,68.892 86.704,67.956 87.1,67.056 C87.208,66.804 87.496,66.804 87.604,66.696 C87.712,66.588 87.964,66.228 88.252,66.264 C88.144,66.264 88.252,66.12 88.216,66.012 L88.324,65.796 C88.432,65.796 88.36,65.868 88.54,65.868 C88.792,65.868 89.44,65.472 89.908,65.328 C89.584,65.328 89.368,65.22 89.296,65.04 C89.404,64.932 89.584,64.932 89.728,64.824 C89.116,64.932 88.9,64.392 89.044,63.924 C88.612,63.852 88.18,63.852 87.748,63.924 L87.748,63.204 C87.928,62.916 88.072,62.484 88.108,62.232 C88.288,61.656 88.612,61.008 88.72,60.576 C89.008,59.604 89.224,58.092 89.368,57.66 C89.692,56.904 89.908,56.256 90.052,55.716 C90.232,54.888 90.628,53.556 90.628,53.304 L90.628,53.304 Z M88.936,64.896 C88.936,65.004 88.72,65.112 88.612,65.112 L88.612,64.752 C88.756,64.752 88.864,64.788 88.936,64.896 L88.936,64.896 Z M98.836,74.868 C98.728,74.868 98.584,74.832 98.476,74.724 C97.756,74.904 96.856,75.228 95.884,75.516 C95.308,75.264 95.02,75.624 94.624,75.624 C94.372,75.624 93.832,75.66 93.58,75.516 C93.148,75.336 92.5,74.904 92.5,74.616 C92.5,74.292 94.552,72.24 95.596,70.98 C96.208,70.224 96.964,69.144 97.252,68.568 C97.54,67.668 97.936,65.868 97.936,65.652 C97.936,64.716 97.216,65.508 97.216,63.996 C97.072,63.852 96.964,63.672 96.784,63.672 C96.532,63.672 96.82,63.78 96.532,63.78 C96.28,63.78 96.388,63.42 96.28,63.096 C95.956,62.988 95.452,62.664 95.272,62.664 C94.984,62.664 95.344,62.772 95.056,62.772 C94.948,62.772 94.912,62.736 94.912,62.664 C94.912,62.628 94.948,62.628 94.984,62.592 C95.092,62.988 94.336,63.204 94.012,63.348 C93.292,63.78 93.22,64.14 92.68,64.608 C92.428,65.076 91.996,65.616 91.744,65.94 C91.204,66.804 90.844,67.632 90.556,68.208 C90.016,69.324 89.476,70.728 89.332,71.412 C89.188,71.988 88.864,72.744 89.044,74.184 C89.728,77.064 89.404,76.164 90.052,76.74 C90.952,77.712 91.24,77.964 92.284,78.216 L92.68,78.756 C92.788,78.036 93.832,78.756 94.264,78.756 C94.372,78.756 94.408,78.72 94.408,78.684 L94.408,78.576 C94.804,78.54 95.344,78.216 95.74,78.18 C95.596,78.18 95.416,78.144 95.596,78.036 C96.136,78.036 96.568,77.964 97,77.82 C97,77.244 97.324,76.452 97.936,76.596 C98.08,76.272 98.188,75.912 98.332,75.732 C98.08,75.66 97.936,75.552 97.936,75.372 C98.26,75.264 98.44,75.012 98.836,74.868 L98.836,74.868 Z M109.888,66.948 C109.708,66.66 109.636,66.336 109.492,66.156 C108.664,65.148 107.08,64.536 106.036,64.536 C104.884,64.536 102.904,66.048 102.544,66.948 C102.544,66.408 102.688,66.084 102.652,65.688 C102.616,65.148 102.472,64.644 102.292,64.104 C102.112,63.636 101.392,63.096 100.996,63.096 L100.564,63.096 C100.384,63.78 100.348,64.572 100.24,65.256 C100.132,66.3 99.988,67.38 99.88,68.208 C99.772,69.612 99.52,70.944 99.196,72.276 C99.124,73.248 98.548,75.228 98.548,75.444 C98.548,76.02 98.908,76.56 99.16,77.316 C99.556,77.208 99.412,77.676 99.556,77.82 C99.88,77.964 100.42,78.216 100.564,78.216 C100.816,78.216 101.032,78.144 101.248,78 C100.924,76.992 101.392,75.804 101.86,74.832 C102.004,74.544 101.968,74.184 102.148,73.932 C102.4,73.68 102.616,73.5 102.76,73.176 C102.796,73.14 102.688,73.068 102.688,72.924 C103.048,72.456 103.336,71.988 103.552,71.592 C103.552,71.556 103.3,71.484 103.408,71.34 C103.408,71.304 103.444,71.268 103.516,71.268 L103.552,71.268 C103.696,71.268 103.696,71.196 103.804,71.196 C103.804,71.052 103.66,71.016 103.696,70.908 C103.696,70.908 103.732,70.872 103.804,70.764 C103.84,70.728 103.876,70.728 103.912,70.728 C103.84,70.656 103.876,70.512 103.984,70.296 C104.092,70.296 104.128,70.368 104.128,70.476 C105.028,69.072 106.216,67.38 107.656,66.84 C107.764,67.308 107.8,67.632 107.836,67.884 C108.52,67.74 108.952,67.884 109.348,67.884 C109.204,67.56 109.744,67.272 109.888,66.948 L109.888,66.948 Z M118.312,63.672 C118.312,63.42 118.024,62.844 117.736,62.664 C117.736,62.52 117.736,62.412 117.7,62.268 C117.34,61.908 116.8,61.512 116.116,61.116 C115.432,60.684 114.82,60.504 114.244,60.576 C114.1,60.468 114.136,60.432 113.848,60.432 C112.948,60.432 112.84,63.636 112.84,64.068 C112.732,64.824 112.624,65.256 112.624,65.724 C112.624,65.904 112.732,66.12 112.732,66.3 C112.732,66.876 112.48,67.56 112.48,68.1 C112.48,69.72 112.66,73.428 111.796,75.48 C111.616,76.02 111.328,76.632 110.896,77.028 C110.176,76.56 110.176,75.624 109.78,74.94 C109.636,74.94 109.492,75.012 109.384,75.156 L109.24,75.012 C109.42,74.616 109.024,74.328 108.88,74.04 C108.916,73.86 108.88,73.644 108.736,73.392 C109.06,73.068 108.916,73.14 108.736,72.96 C108.736,72.636 108.844,72.384 108.7,72.384 C108.556,72.24 108.484,72.276 108.376,72.132 C108.412,71.88 108.556,71.592 108.52,71.412 C108.448,71.448 108.34,71.484 108.232,71.484 C107.8,72.096 107.476,73.248 107.476,73.68 C107.476,75.156 109.096,77.928 110.248,78.612 C110.392,78.612 111.256,79.62 111.904,79.62 C112.192,79.62 112.084,79.476 112.192,79.584 C112.336,79.62 112.264,79.728 112.552,79.728 C114.676,79.728 115.072,76.344 115.252,75.012 C115.72,72.276 115.432,69.468 115.756,66.768 C115.792,66.624 115.864,66.516 116.044,66.444 C116.368,66.768 116.944,67.02 117.124,67.02 C117.376,67.02 117.736,66.912 117.88,66.768 C118.204,66.084 118.276,64.824 118.168,64.104 C118.276,63.996 118.312,63.924 118.312,63.672 L118.312,63.672 Z M109.708,74.328 L109.564,74.328 L109.564,74.868 L109.708,74.868 L109.708,74.328 Z M144.916,72.096 L144.232,72.924 L144.268,72.996 L144.952,72.096 L144.916,72.096 Z M143.98,73.14 L143.584,73.572 L143.692,73.608 L144.088,73.248 L143.98,73.14 Z M149.452,66.912 C149.416,66.3 148.696,65.652 148.732,65.508 C148.408,65.328 147.94,65.112 147.616,65.004 C147.364,64.968 147.112,64.68 146.968,64.644 C146.86,64.356 146.716,64.284 146.824,63.996 C146.644,63.744 146.14,63.06 145.96,63.06 C142.792,63.24 141.676,66.408 138.904,70.152 C138.076,71.376 136.528,74.364 136.636,76.056 C136.672,76.632 136.636,76.848 137.032,77.568 L137.14,77.748 C137.32,77.928 137.428,78.108 137.572,78.252 C138.004,78.432 138.796,78.72 138.976,78.72 C139.228,78.72 139.624,78.576 139.912,78.432 C139.912,78.324 139.804,78.252 139.804,78.144 C140.272,77.676 140.848,77.064 141.136,76.812 C141.856,75.948 142.72,75.048 143.476,74.076 C143.692,73.032 144.664,72.312 145.168,71.412 C145.276,71.556 145.168,71.808 145.024,71.988 C145.348,71.592 145.492,71.34 145.6,71.232 C145.492,71.34 145.456,71.484 145.312,71.484 C145.456,71.16 145.6,70.872 145.744,70.764 C145.78,70.8 145.78,70.8 145.78,70.836 L145.816,70.872 C144.376,77.82 142.72,83.328 142.576,89.556 C142.576,89.952 142.54,90.564 142.54,90.708 C142.54,90.96 142.684,91.968 142.864,92.652 C142.9,93.12 143.332,93.624 143.62,94.092 C143.764,94.128 144.088,94.272 144.196,94.416 C144.448,94.596 144.772,94.812 144.916,94.812 C145.096,94.776 144.988,94.668 145.096,94.524 C145.564,94.704 145.888,94.776 146.104,94.74 L146.032,93.48 C145.744,93.156 145.636,92.94 145.348,92.688 C145.276,92.796 145.204,92.868 145.096,92.904 L144.952,93.012 L144.808,93.012 L144.808,92.976 C144.808,92.652 144.664,92.22 144.664,92.04 C144.628,91.572 144.916,90.888 144.952,90.42 C145.06,90.168 144.952,89.772 144.952,89.592 C145.24,87.54 145.888,84.84 146.176,83.256 C146.212,83.112 146.14,82.968 146.14,82.86 C146.752,80.448 147.292,78.036 147.724,75.624 C148.264,73.5 148.804,71.412 149.092,69.36 C149.2,68.532 149.452,67.092 149.452,66.912 L149.452,66.912 Z M145.312,67.416 C145.312,67.884 142.864,71.304 142.756,71.412 C142.036,72.24 140.92,73.428 139.948,74.436 C140.56,73.176 141.388,71.196 142.144,69.864 C142.324,69.432 142.972,68.928 143.26,68.316 C143.512,67.776 144.16,66.804 144.628,66.372 C144.52,66.624 144.484,66.804 144.592,66.984 L144.736,66.804 L144.772,67.236 C144.88,67.236 144.988,67.308 145.096,67.416 C145.24,67.272 145.168,67.128 145.312,67.128 L145.312,67.416 Z M157.3,58.992 C156.868,58.596 157.12,58.092 156.94,57.912 C156.832,57.66 156.508,57.48 156.256,57.156 C155.356,57.264 155.176,57.66 153.556,57.552 C153.736,57.876 153.628,58.488 153.772,58.776 C153.952,59.388 154.276,60.288 154.816,60.576 C154.924,60.684 154.888,60.72 154.924,60.828 C155.32,61.008 155.824,61.332 156.364,61.296 C158.092,61.188 156.688,59.892 157.3,58.992 L157.3,58.992 Z M158.596,71.88 C157.408,73.068 155.716,74.4 154.024,75.156 C153.772,74.292 154.096,73.824 154.528,72.348 C154.636,72.024 154.708,71.376 154.852,71.052 C155.104,70.656 155.284,70.008 155.392,69.18 C155.5,68.316 155.644,67.668 155.752,67.236 C155.788,66.948 155.932,66.732 155.932,66.552 C155.896,66.084 155.608,65.652 155.068,65.256 C154.564,64.86 154.096,64.644 153.628,64.68 C153.34,64.716 153.088,64.86 152.8,64.86 C152.548,65.112 152.512,65.4 152.368,65.508 C152.332,65.76 152.332,65.904 152.332,66.012 C151.864,66.984 151.468,68.244 151.144,69.792 L150.748,71.304 C150.568,71.988 150.46,73.248 150.496,73.68 C150.604,75.264 151.864,78.288 154.276,78.108 C154.528,78.108 155.284,77.892 155.716,77.64 C156.004,77.496 155.932,77.244 155.932,77.136 C156.364,76.596 157.228,75.804 157.804,75.48 C157.768,75.228 157.804,75.012 157.912,74.868 C158.056,74.76 158.308,74.544 158.344,74.364 C158.236,74.22 158.092,74.256 157.984,74.22 C158.776,73.536 158.128,72.276 158.596,71.88 L158.596,71.88 Z M170.26,65.976 L170.044,66.192 L170.152,66.3 L170.368,66.012 L170.26,65.976 Z M171.628,62.592 C171.232,62.448 171.376,62.304 170.944,62.556 C170.8,62.592 170.008,63.06 169.576,63.312 C169.396,63.492 169.36,63.636 169.216,63.78 C168.424,64.14 166.984,65.868 166.516,66.228 C165.184,67.704 163.78,69.648 162.52,71.628 C162.052,69.612 161.764,68.424 161.764,67.308 C161.512,66.624 161.404,65.904 161.08,65.436 C160.72,64.968 159.496,64.248 159.316,64.32 C159.136,64.32 159.352,64.356 159.172,64.356 C158.92,64.392 159.028,64.212 158.776,64.32 L158.308,64.356 L158.38,65.004 C158.38,65.292 158.632,65.58 158.668,65.724 C158.956,67.2 159.028,68.712 159.064,69.9 C159.244,71.916 159.496,75.984 159.496,76.128 C159.604,76.632 160.972,79.188 162.232,79.008 L162.7,78.936 C162.88,78.9 163.096,78.72 163.132,78.684 C163.312,78.108 163.528,77.46 163.816,77.028 C164.032,76.236 164.788,74.472 165.184,74.148 C165.76,73.212 167.272,70.584 168.136,69.18 C168.604,68.604 169.468,67.2 170.008,66.3 C169.972,66.372 169.864,66.372 169.756,66.264 C170.044,65.94 170.476,65.508 170.764,65.112 C170.656,64.644 171.232,64.068 171.628,63.636 C171.34,63.528 171.196,63.492 171.196,63.456 C171.232,63.312 171.412,63.204 171.376,63.06 L171.268,63.06 C171.232,63.06 171.196,63.06 171.196,63.024 L171.628,62.592 Z M179.512,74.868 C179.404,74.868 179.26,74.832 179.152,74.724 C178.432,74.904 177.532,75.228 176.56,75.516 C175.984,75.264 175.696,75.624 175.3,75.624 C175.048,75.624 174.508,75.66 174.256,75.516 C173.824,75.336 173.176,74.904 173.176,74.616 C173.176,74.292 175.228,72.24 176.272,70.98 C176.884,70.224 177.64,69.144 177.928,68.568 C178.216,67.668 178.612,65.868 178.612,65.652 C178.612,64.716 177.892,65.508 177.892,63.996 C177.748,63.852 177.64,63.672 177.46,63.672 C177.208,63.672 177.496,63.78 177.208,63.78 C176.956,63.78 177.064,63.42 176.956,63.096 C176.632,62.988 176.128,62.664 175.948,62.664 C175.66,62.664 176.02,62.772 175.732,62.772 C175.624,62.772 175.588,62.736 175.588,62.664 C175.588,62.628 175.624,62.628 175.66,62.592 C175.768,62.988 175.012,63.204 174.688,63.348 C173.968,63.78 173.896,64.14 173.356,64.608 C173.104,65.076 172.672,65.616 172.42,65.94 C171.88,66.804 171.52,67.632 171.232,68.208 C170.692,69.324 170.152,70.728 170.008,71.412 C169.864,71.988 169.54,72.744 169.72,74.184 C170.404,77.064 170.08,76.164 170.728,76.74 C171.628,77.712 171.916,77.964 172.96,78.216 L173.356,78.756 C173.464,78.036 174.508,78.756 174.94,78.756 C175.048,78.756 175.084,78.72 175.084,78.684 L175.084,78.576 C175.48,78.54 176.02,78.216 176.416,78.18 C176.272,78.18 176.092,78.144 176.272,78.036 C176.812,78.036 177.244,77.964 177.676,77.82 C177.676,77.244 178,76.452 178.612,76.596 C178.756,76.272 178.864,75.912 179.008,75.732 C178.756,75.66 178.612,75.552 178.612,75.372 C178.936,75.264 179.116,75.012 179.512,74.868 L179.512,74.868 Z M207.34,50.568 C207.34,50.532 206.332,49.236 206.08,49.308 C205.828,49.308 205.432,49.308 205.144,49.452 C204.712,50.208 204.532,51.288 204.28,52.008 C203.02,56.328 201.04,63.168 199.6,67.956 C199.6,68.1 198.484,71.556 198.592,72.24 C198.556,72.24 199.744,74.688 200.248,74.652 C200.5,74.616 201.184,74.724 201.472,74.688 C201.724,74.652 202.12,74.112 202.408,73.86 C202.3,74.04 202.192,74.04 202.084,73.896 C202.372,73.176 203.812,71.7 203.632,71.16 C203.776,71.16 203.776,71.232 203.92,71.196 C204.064,70.728 204.352,70.332 205.036,69.936 C205.36,69.756 205.432,69.216 205.684,69.216 L205.756,69.684 C205.432,70.584 205.036,72.06 204.568,73.032 C204.28,73.824 203.128,75.804 202.66,75.912 C201.976,75.912 202.552,75.408 201.832,75.012 C201.688,75.156 201.364,75.984 201.4,76.272 C201.4,76.812 202.444,78.036 202.588,78.18 C202.732,78.324 202.876,78.54 203.128,78.54 C203.38,78.504 203.092,78.432 203.38,78.396 C203.632,78.36 203.848,78.54 204.1,78.576 L204.1,78.684 L204.028,78.72 C204.352,78.612 204.784,78.072 204.964,78.036 C205.252,78.036 205,78.216 205.252,78.216 C205.684,78.108 207.34,75.084 207.736,74.508 C208.024,73.824 208.456,72.744 208.636,72.204 C208.816,71.448 209.032,70.26 208.996,70.08 C208.816,68.136 206.62,66.84 204.784,67.02 C204.208,67.128 203.74,67.236 203.308,67.668 L203.164,67.524 C203.56,66.372 204.064,65.22 204.244,64.32 C205.216,60.828 206.44,56.256 207.016,53.592 L207.232,52.368 C207.34,51.792 207.304,51.324 207.124,50.964 C207.232,50.82 207.376,50.856 207.34,50.568 L207.34,50.568 Z M226.276,74.076 C226.06,74.184 222.064,76.056 221.524,76.056 C221.236,76.056 220.84,76.236 220.444,76.092 C220.444,75.768 220.336,75.156 220.336,74.976 C220.336,74.76 220.732,71.16 221.128,69.252 C221.416,67.884 222.172,65.508 222.172,65.256 C222.172,64.968 222.064,65.256 222.064,65.112 C222.208,64.968 222.028,64.464 221.92,64.284 C221.632,63.96 220.768,63.564 220.336,63.564 C220.156,63.564 220.408,63.672 220.12,63.672 C219.868,63.672 220.048,63.384 219.796,63.384 C219.328,63.384 219.616,63.636 219.184,64.104 C219.004,64.104 218.788,64.032 218.608,64.032 C218.428,64.032 218.248,63.924 217.996,63.708 L217.708,63.708 C217.6,63.924 217.456,64.104 217.276,64.212 C217.096,64.356 216.844,64.284 216.52,64.428 C216.412,64.536 216.556,64.644 216.448,64.752 C216.124,65.04 215.728,65.508 215.404,65.652 C214.936,65.976 214.216,66.696 213.964,67.02 C212.74,68.64 209.824,73.572 209.824,75.768 C209.824,75.948 210.076,76.56 210.112,76.848 C210.796,77.424 211.192,78.18 212.38,78.18 C212.56,78.18 212.956,78.036 213.136,78.036 C214.216,78.036 216.052,75.336 216.448,74.76 C216.88,74.04 217.276,73.536 217.672,72.852 C217.78,73.536 217.78,74.256 217.78,74.688 C217.78,74.94 219.112,77.928 220.588,77.928 L222.1,77.928 C222.424,77.928 223.648,76.812 224.404,76.704 C224.296,76.704 224.116,76.488 224.116,76.452 C224.656,76.056 225.196,75.588 225.484,75.264 C225.376,75.084 225.448,74.94 225.628,74.76 C225.736,74.508 226.168,74.364 226.276,74.076 L226.276,74.076 Z M217.6,67.812 C216.556,69.54 215.584,71.556 214.432,72.96 L214.216,72.708 C215.08,71.016 216.196,69.072 217.384,67.632 C217.384,67.74 217.24,67.884 217.384,68.028 L217.6,67.812 Z M235.924,71.556 C235.06,71.952 233.908,72.6 233.476,72.852 C231.784,73.716 230.128,74.256 228.832,74.796 C228.256,75.048 227.428,75.444 227.248,75.444 C227.068,75.444 226.528,75.336 226.204,75.192 L226.204,74.688 C226.204,74.508 226.816,72.42 227.176,71.592 C227.788,70.26 228.832,68.388 230.164,66.696 L230.272,66.696 L230.272,66.732 C230.128,67.128 230.452,67.452 230.596,67.848 C230.74,68.388 231.028,68.82 231.604,68.82 C231.856,68.82 232.036,68.784 232.144,68.712 C232.54,68.496 232.936,66.372 232.936,66.012 C232.936,65.724 232.756,65.04 232.576,64.644 C232.324,64.068 231.568,63.492 231.172,63.24 C230.776,63.06 229.84,62.88 229.66,62.88 C229.372,62.88 229.3,63.132 229.048,63.276 C228.76,63.42 228.364,63.384 228.22,63.636 C227.644,64.248 227.14,65.256 226.708,65.796 C226.708,65.76 226.744,65.724 226.852,65.616 C226.888,65.652 226.888,65.688 226.888,65.724 C226.708,66.12 226.384,66.372 226.06,66.696 C225.592,67.272 225.232,67.956 224.908,68.676 C224.872,68.856 224.908,69.108 224.8,69.144 C224.44,69.756 224.188,70.548 224.008,71.484 C223.828,72.384 223.756,73.104 223.756,73.644 C223.756,73.896 223.792,74.256 223.792,74.544 C223.9,76.128 225.52,78.108 227.392,78.108 C228.184,78.108 230.056,77.46 230.452,77.244 C230.632,77.1 230.74,76.776 230.884,76.632 C232.18,75.876 233.116,75.228 233.98,74.76 L233.98,74.4 C233.872,74.4 233.8,74.364 233.8,74.256 C234.196,73.86 234.772,73.5 235.204,73.104 C235.096,72.96 235.276,72.564 235.42,72.42 C235.276,72.42 235.42,72.456 235.168,72.456 C234.988,72.456 235.132,72.42 235.132,72.276 C235.24,72.132 235.096,72.276 235.348,72.276 C235.636,72.276 235.744,71.736 235.924,71.556 L235.924,71.556 Z M249.604,78.864 C248.632,78.288 247.768,77.568 246.94,77.172 C246.04,76.632 244.708,76.056 244.024,75.588 C243.34,75.156 242.548,74.58 242.08,74.184 C241.864,74.112 240.1,72.78 240.1,72.168 C240.028,71.448 241.864,70.044 241.9,70.08 C242.044,69.972 242.332,69.9 242.476,69.756 C243.232,69.18 244.276,68.46 244.852,68.172 L245.032,68.352 C245.176,67.956 245.356,67.668 245.608,67.488 C245.752,67.488 245.824,67.416 245.968,67.38 C246.112,67.056 246.328,66.912 246.508,66.768 C246.616,66.3 246.472,65.688 246.652,65.292 C245.932,64.968 244.996,63.852 244.6,63.852 C242.764,63.96 241.612,65.328 241.36,65.4 C241.216,65.4 240.964,65.544 240.676,65.58 C240.424,65.58 240.64,65.724 240.496,65.724 L240.496,65.472 C241.288,63.96 241.036,62.7 242.224,60.576 C242.332,60.432 242.224,60.252 242.26,60.108 C242.296,59.964 242.44,59.82 242.548,59.712 C242.872,58.092 243.304,56.4 243.592,54.816 C243.7,54.348 243.772,53.7 243.772,53.556 C243.772,53.448 243.7,53.088 243.52,52.512 C243.376,51.936 243.232,51.432 243.052,51.036 C242.368,50.46 241.756,50.352 241.36,49.74 C241.216,50.064 241.036,50.316 240.928,50.604 C240.748,52.872 239.848,55.86 239.344,57.444 C238.372,61.08 237.184,65.004 236.068,68.64 C236.104,68.748 236.104,68.82 236.068,68.928 C235.384,71.412 234.628,73.896 234.484,75.588 C234.556,76.308 234.304,77.748 234.304,77.892 C234.34,78.18 234.592,79.116 234.772,79.656 C234.916,79.836 235.096,80.016 235.204,80.196 C235.636,80.34 236.14,80.592 236.284,80.556 C236.572,80.556 236.752,80.448 236.788,80.196 C236.932,79.476 236.86,78.864 236.824,78.324 L236.788,78.288 C236.824,78.216 236.86,78.18 236.86,78.144 C236.896,77.46 237.076,76.812 237.184,76.344 C237.364,75.156 237.688,74.436 238.12,73.464 C239.236,74.796 240.28,75.732 241.324,76.452 C241.864,76.884 242.62,77.1 243.16,77.424 C243.484,77.604 245.824,78.864 246.796,78.756 C247.084,78.72 246.976,78.9 247.156,78.9 C247.408,78.9 247.408,78.72 247.588,78.684 C247.84,78.684 248.452,78.864 248.848,79.116 C248.848,78.972 248.74,78.972 248.992,78.972 C249.136,78.936 249.46,79.008 249.604,78.864 L249.604,78.864 Z M253.148,75.948 C253.148,75.696 252.788,75.3 252.464,74.976 C252.536,74.94 252.572,74.832 252.572,74.652 C252.248,74.796 251.564,74.364 251.672,73.968 C251.276,74.148 250.952,74.76 250.772,74.76 C250.484,74.76 250.772,74.652 250.52,74.652 C250.268,74.652 249.656,75.48 249.368,75.804 C249.26,75.984 249.224,76.2 249.224,76.452 C249.224,77.172 249.476,78.18 250.628,78.18 C250.88,78.18 251.528,78.036 251.852,77.856 C252.32,77.532 252.608,76.92 253.004,76.596 C253.04,76.416 253.148,76.236 253.148,75.948 L253.148,75.948 Z M289.128,57.444 C289.128,56.076 288.336,52.008 286.716,51.828 C286.284,51.792 285.744,51.396 285.456,51.252 C284.988,51.144 283.8,50.64 283.656,50.64 C283.404,50.64 282.144,50.748 281.388,50.784 C281.064,50.784 280.38,51.612 280.128,51.612 C279.948,51.612 280.272,51.432 280.02,51.432 C279.84,51.432 279.552,51.828 279.264,51.936 C279.264,52.08 279.372,52.044 279.372,52.152 C278.904,52.98 278.4,54.024 278.292,54.636 C278.22,54.96 278.148,55.356 278.112,55.824 C278.076,56.292 278.076,56.58 278.076,56.616 C278.076,58.344 280.128,64.284 280.128,64.464 C281.172,66.66 282.252,69.756 282.828,71.664 C282.936,71.952 282.864,72.348 282.828,72.636 C282.828,72.672 282.9,72.564 282.9,72.816 C282.9,73.104 282.936,73.428 282.828,73.716 C282.684,74.148 282.288,74.544 282,74.724 C281.82,74.832 281.388,74.94 281.28,75.048 L281.1,74.904 C280.992,74.94 280.848,74.976 280.668,74.976 C279.624,74.976 277.284,74.148 276.996,73.464 C276.996,73.572 277.14,73.644 276.96,73.644 C276.708,73.644 276.42,72.816 276.168,72.564 C275.772,72.168 275.268,70.584 275.268,69.612 L275.088,69.792 C274.98,69.504 274.908,69.252 274.872,69 C274.476,68.964 274.656,68.352 274.512,68.244 C274.476,68.208 274.404,68.28 274.368,68.136 C274.26,67.848 274.404,67.632 274.404,67.38 C274.404,67.668 274.26,67.848 274.26,68.1 C274.116,68.1 274.296,68.028 274.044,68.028 C273.792,68.028 273.972,68.208 273.828,68.208 C273.972,68.604 274.116,69.036 273.972,69.432 C273.864,69.252 273.792,69.144 273.756,69.144 C273.612,69.612 273.756,69.972 273.756,70.296 C273.576,70.188 273.612,70.044 273.504,70.044 C273.504,70.188 273.396,70.152 273.396,70.404 C273.396,70.656 273.612,70.692 273.612,70.872 C273.612,71.196 273.792,71.808 273.648,72.096 C273.756,72.204 273.828,72.276 273.864,72.348 C273.972,72.456 273.756,72.564 273.756,72.672 C274.044,73.104 274.188,73.572 274.368,73.86 C274.512,74.58 275.448,75.768 275.916,76.308 C276.456,76.92 277.392,77.28 277.68,77.568 C277.788,77.748 278.148,78.144 278.292,78.144 C278.544,78.144 278.22,78.036 278.472,78.036 C278.724,78.036 280.092,78.648 280.344,78.648 L281.136,78.648 C281.676,78.648 282.54,78.468 283.08,78.18 C283.188,78.144 283.332,78.144 283.368,78.144 C283.62,77.964 283.836,77.676 283.944,77.568 C284.52,77.172 284.988,76.524 285.096,76.056 C285.204,75.876 285.06,75.696 285.096,75.552 C285.276,74.976 285.384,73.968 285.384,73.824 C285.384,72.492 284.916,69.756 284.448,68.892 C283.584,66.768 283.296,65.616 282.72,63.96 C282.612,63.78 282.468,63.636 282.468,63.528 L281.64,60.936 C281.208,60.36 281.316,59.568 281.172,59.028 C281.136,58.74 280.848,58.452 280.848,58.272 C280.704,57.732 280.704,56.868 280.704,56.616 C280.704,56.364 280.74,56.148 280.848,55.932 C280.956,55.392 281.28,54.744 281.568,54.276 C281.676,54.096 283.296,52.944 283.656,52.944 C283.872,52.944 283.98,52.944 284.016,52.98 C284.16,53.016 284.124,53.196 284.376,53.196 C284.628,53.196 284.34,53.124 284.592,53.124 C284.772,53.124 285.528,53.556 285.852,53.844 C286.32,54.204 286.752,55.824 286.752,56.472 C286.752,56.724 286.68,56.544 286.716,56.652 L286.608,56.832 C286.572,56.94 286.5,56.868 286.464,56.904 C286.356,57.156 286.392,57.48 286.392,57.66 C286.392,57.732 286.428,57.768 286.5,57.768 L286.572,57.768 C286.464,57.948 286.5,58.236 286.464,58.38 L286.536,58.632 C286.788,58.92 287.148,59.316 287.4,59.424 C287.436,59.532 287.436,59.64 287.436,59.784 C287.616,59.604 287.76,59.46 288.048,59.352 C288.084,59.388 288.084,59.388 288.084,59.424 L288.084,59.46 C288.048,59.496 288.048,59.532 288.048,59.568 L288.012,59.568 L288.3,59.244 C288.408,59.352 288.516,59.424 288.624,59.424 C288.732,59.136 288.876,58.884 288.912,58.776 C289.02,58.38 289.128,57.588 289.128,57.444 L289.128,57.444 Z M301.44,65.436 C299.172,65.616 297.372,65.76 295.752,66.048 C295.428,66.084 295.104,66.264 294.852,66.264 C294.564,66.264 294.78,66.084 294.528,66.084 C294.204,66.084 293.952,66.12 293.772,66.192 C293.448,66.192 293.304,66.264 293.052,66.12 L293.052,65.94 C293.34,64.896 293.628,63.744 293.772,62.772 C294.492,60.504 295.248,58.128 295.968,55.68 C295.968,55.5 295.932,55.32 295.86,55.068 C296.112,54.6 296.292,53.736 296.292,53.556 C296.292,53.232 295.608,52.152 295.608,51.828 L295.608,51.648 C295.608,51.648 295.644,51.648 295.716,51.612 C295.572,51.612 295.572,51.648 295.32,51.648 C295.068,51.648 294.816,51.072 294.528,51.072 C294.42,51.072 294.06,51.18 293.916,51.324 C293.196,51.792 293.16,52.98 292.908,53.7 C292.584,54.6 292.296,55.608 292.116,56.364 C291.684,57.984 291.144,59.604 290.748,61.188 C290.352,62.736 289.92,66.12 289.524,67.2 C289.488,67.452 289.2,67.74 289.02,67.74 C288.732,67.74 288.984,67.632 288.696,67.632 C288.516,67.632 288.408,67.74 288.264,67.776 C288.264,67.812 288.192,67.92 288.084,68.028 C288.084,68.568 287.904,69.288 287.904,69.468 C287.904,69.684 288.912,70.872 288.912,71.124 C288.948,72.888 288.66,74.292 288.804,74.832 C288.948,75.732 288.768,76.632 289.884,77.64 C290.028,77.784 290.064,78.216 290.316,78.216 C290.496,78.216 290.784,78.144 290.892,78.144 C290.892,77.82 291.324,77.568 291.324,77.316 C291.324,77.136 290.964,75.768 290.964,75.516 C290.964,75.264 291.36,72.996 291.648,71.808 C291.936,71.628 292.368,71.268 292.692,71.232 L292.98,70.8 C293.556,70.548 294.492,70.224 294.636,70.224 C294.924,70.224 294.816,70.296 294.924,70.296 C294.924,70.188 294.816,70.116 294.924,70.08 C295.788,69.792 296.688,69.432 297.408,69.288 C297.408,69.072 297.444,68.964 297.552,68.964 C297.696,69.072 297.48,69.144 297.66,69.144 C297.912,69.144 298.344,68.568 298.488,68.316 C299.208,68.172 300.072,67.992 300.324,67.38 C300.18,67.272 300.036,67.236 300.036,67.092 C300.36,66.912 300.864,66.696 301.26,66.516 C300.864,66.192 301.224,66.264 301.332,65.94 C301.224,65.94 301.152,65.904 301.152,65.796 C301.296,65.652 301.44,65.58 301.44,65.436 L301.44,65.436 Z M308.388,69.54 C308.388,67.992 307.632,66.588 306.516,65.04 C306.408,64.932 306.264,64.968 306.156,64.932 C306.12,64.896 306.048,64.788 306.012,64.68 C305.976,64.608 305.94,64.572 305.94,64.536 C305.616,64.212 305.004,63.6 304.824,63.456 C304.428,63.276 304.14,63.528 303.96,63.132 C303.564,63.528 301.116,63.996 301.296,65.364 C301.224,65.436 301.188,65.472 301.152,65.472 L301.08,65.508 C301.26,65.508 301.332,65.58 301.332,65.76 C301.332,65.616 301.368,65.508 301.44,65.472 C301.476,65.508 301.512,65.58 301.512,65.688 C301.656,65.436 301.872,65.616 301.98,65.616 C301.836,65.868 301.908,66.156 301.764,66.336 C301.512,66.66 301.044,66.84 300.864,67.164 C300.72,67.344 300.792,67.56 300.648,67.596 C300.504,67.632 300.504,67.596 300.36,67.704 C300.18,68.136 299.784,68.568 299.532,69 C299.388,69.144 299.46,69.468 299.352,69.576 C299.028,70.08 297.624,73.068 297.624,74.652 C297.624,74.832 297.804,75.66 297.912,76.092 C298.344,76.092 298.488,76.992 298.74,77.172 C299.46,77.748 300.036,78.432 301.152,78.432 C301.836,78.432 302.556,78.18 303.384,77.676 C303.492,77.532 303.528,77.244 303.672,77.136 C306.3,74.832 308.388,72.168 308.388,69.54 L308.388,69.54 Z M304.392,66.768 L304.392,66.228 L304.572,66.228 L304.572,66.768 L304.392,66.768 Z M305.4,68.388 C305.4,68.46 304.788,70.548 304.572,70.872 C304.5,71.052 303.024,73.392 302.7,73.392 C302.412,73.392 302.844,73.176 302.592,73.176 C302.412,73.176 301.62,73.932 301.152,74.256 L301.152,73.932 C301.152,73.644 302.628,70.728 303.42,69.288 C303.744,68.748 304.572,67.812 304.968,67.056 C305.148,67.452 305.4,68.1 305.4,68.388 L305.4,68.388 Z M319.476,66.948 C319.296,66.66 319.224,66.336 319.08,66.156 C318.252,65.148 316.668,64.536 315.624,64.536 C314.472,64.536 312.492,66.048 312.132,66.948 C312.132,66.408 312.276,66.084 312.24,65.688 C312.204,65.148 312.06,64.644 311.88,64.104 C311.7,63.636 310.98,63.096 310.584,63.096 L310.152,63.096 C309.972,63.78 309.936,64.572 309.828,65.256 C309.72,66.3 309.576,67.38 309.468,68.208 C309.36,69.612 309.108,70.944 308.784,72.276 C308.712,73.248 308.136,75.228 308.136,75.444 C308.136,76.02 308.496,76.56 308.748,77.316 C309.144,77.208 309,77.676 309.144,77.82 C309.468,77.964 310.008,78.216 310.152,78.216 C310.404,78.216 310.62,78.144 310.836,78 C310.512,76.992 310.98,75.804 311.448,74.832 C311.592,74.544 311.556,74.184 311.736,73.932 C311.988,73.68 312.204,73.5 312.348,73.176 C312.384,73.14 312.276,73.068 312.276,72.924 C312.636,72.456 312.924,71.988 313.14,71.592 C313.14,71.556 312.888,71.484 312.996,71.34 C312.996,71.304 313.032,71.268 313.104,71.268 L313.14,71.268 C313.284,71.268 313.284,71.196 313.392,71.196 C313.392,71.052 313.248,71.016 313.284,70.908 C313.284,70.908 313.32,70.872 313.392,70.764 C313.428,70.728 313.464,70.728 313.5,70.728 C313.428,70.656 313.464,70.512 313.572,70.296 C313.68,70.296 313.716,70.368 313.716,70.476 C314.616,69.072 315.804,67.38 317.244,66.84 C317.352,67.308 317.388,67.632 317.424,67.884 C318.108,67.74 318.54,67.884 318.936,67.884 C318.792,67.56 319.332,67.272 319.476,66.948 L319.476,66.948 Z M331.788,66.084 C331.68,64.392 331.032,64.032 328.692,63.204 L320.736,72.708 C320.7,72.312 320.664,72.096 320.772,71.844 C320.88,71.592 320.988,71.484 321.132,71.304 C321.816,69.756 322.428,68.1 322.968,66.948 C323.256,66.336 323.58,65.544 323.868,65.148 C323.868,65.112 323.868,64.968 323.832,64.716 C323.832,64.104 322.752,63.24 321.924,63.528 C321.456,64.248 320.988,65.148 320.556,65.76 C320.196,66.444 317.64,72.132 317.82,73.86 C317.928,74.94 318.576,76.704 320.088,76.524 C320.34,76.488 320.7,76.344 321.168,76.056 C321.636,75.768 321.96,75.516 322.14,75.336 C324.3,73.032 325.992,70.908 327.972,68.568 C328.008,68.604 328.008,68.64 328.008,68.676 L328.044,68.712 C327.612,70.332 324.624,82.212 325.056,87.036 C325.164,87.9 325.848,88.944 326.244,89.412 C326.388,89.664 326.64,90.132 326.892,90.24 C327.144,90.348 327.756,90.636 327.936,90.636 C328.188,90.6 328.44,90.276 328.728,90.24 C328.908,90.24 328.728,90.312 328.98,90.312 C329.34,90.204 328.8,89.376 329.592,89.088 L329.448,87.864 C328.908,88.188 328.476,88.62 327.9,88.728 C327.612,88.728 327.756,88.656 327.612,88.548 L327.576,88.008 C327.504,87.756 327.828,85.992 327.828,84.912 C327.864,84.732 327.972,84.48 328.116,84.228 C328.152,83.904 328.008,83.328 328.116,83.076 C328.44,80.952 328.98,78.9 329.448,76.776 L329.7,76.524 C330.024,74.94 330.528,73.14 330.852,71.52 C330.96,71.34 330.888,71.088 330.888,70.944 C330.996,70.332 331.32,69.756 331.428,69.216 C331.464,68.892 331.608,68.46 331.464,68.064 C331.752,67.452 331.824,66.264 331.788,66.084 L331.788,66.084 Z M364.692,65.436 C362.424,65.616 360.624,65.76 359.004,66.048 C358.68,66.084 358.356,66.264 358.104,66.264 C357.816,66.264 358.032,66.084 357.78,66.084 C357.456,66.084 357.204,66.12 357.024,66.192 C356.7,66.192 356.556,66.264 356.304,66.12 L356.304,65.94 C356.592,64.896 356.88,63.744 357.024,62.772 C357.744,60.504 358.5,58.128 359.22,55.68 C359.22,55.5 359.184,55.32 359.112,55.068 C359.364,54.6 359.544,53.736 359.544,53.556 C359.544,53.232 358.86,52.152 358.86,51.828 L358.86,51.648 C358.86,51.648 358.896,51.648 358.968,51.612 C358.824,51.612 358.824,51.648 358.572,51.648 C358.32,51.648 358.068,51.072 357.78,51.072 C357.672,51.072 357.312,51.18 357.168,51.324 C356.448,51.792 356.412,52.98 356.16,53.7 C355.836,54.6 355.548,55.608 355.368,56.364 C354.936,57.984 354.396,59.604 354,61.188 C353.604,62.736 353.172,66.12 352.776,67.2 C352.74,67.452 352.452,67.74 352.272,67.74 C351.984,67.74 352.236,67.632 351.948,67.632 C351.768,67.632 351.66,67.74 351.516,67.776 C351.516,67.812 351.444,67.92 351.336,68.028 C351.336,68.568 351.156,69.288 351.156,69.468 C351.156,69.684 352.164,70.872 352.164,71.124 C352.2,72.888 351.912,74.292 352.056,74.832 C352.2,75.732 352.02,76.632 353.136,77.64 C353.28,77.784 353.316,78.216 353.568,78.216 C353.748,78.216 354.036,78.144 354.144,78.144 C354.144,77.82 354.576,77.568 354.576,77.316 C354.576,77.136 354.216,75.768 354.216,75.516 C354.216,75.264 354.612,72.996 354.9,71.808 C355.188,71.628 355.62,71.268 355.944,71.232 L356.232,70.8 C356.808,70.548 357.744,70.224 357.888,70.224 C358.176,70.224 358.068,70.296 358.176,70.296 C358.176,70.188 358.068,70.116 358.176,70.08 C359.04,69.792 359.94,69.432 360.66,69.288 C360.66,69.072 360.696,68.964 360.804,68.964 C360.948,69.072 360.732,69.144 360.912,69.144 C361.164,69.144 361.596,68.568 361.74,68.316 C362.46,68.172 363.324,67.992 363.576,67.38 C363.432,67.272 363.288,67.236 363.288,67.092 C363.612,66.912 364.116,66.696 364.512,66.516 C364.116,66.192 364.476,66.264 364.584,65.94 C364.476,65.94 364.404,65.904 364.404,65.796 C364.548,65.652 364.692,65.58 364.692,65.436 L364.692,65.436 Z M367.68,58.992 C367.248,58.596 367.5,58.092 367.32,57.912 C367.212,57.66 366.888,57.48 366.636,57.156 C365.736,57.264 365.556,57.66 363.936,57.552 C364.116,57.876 364.008,58.488 364.152,58.776 C364.332,59.388 364.656,60.288 365.196,60.576 C365.304,60.684 365.268,60.72 365.304,60.828 C365.7,61.008 366.204,61.332 366.744,61.296 C368.472,61.188 367.068,59.892 367.68,58.992 L367.68,58.992 Z M368.976,71.88 C367.788,73.068 366.096,74.4 364.404,75.156 C364.152,74.292 364.476,73.824 364.908,72.348 C365.016,72.024 365.088,71.376 365.232,71.052 C365.484,70.656 365.664,70.008 365.772,69.18 C365.88,68.316 366.024,67.668 366.132,67.236 C366.168,66.948 366.312,66.732 366.312,66.552 C366.276,66.084 365.988,65.652 365.448,65.256 C364.944,64.86 364.476,64.644 364.008,64.68 C363.72,64.716 363.468,64.86 363.18,64.86 C362.928,65.112 362.892,65.4 362.748,65.508 C362.712,65.76 362.712,65.904 362.712,66.012 C362.244,66.984 361.848,68.244 361.524,69.792 L361.128,71.304 C360.948,71.988 360.84,73.248 360.876,73.68 C360.984,75.264 362.244,78.288 364.656,78.108 C364.908,78.108 365.664,77.892 366.096,77.64 C366.384,77.496 366.312,77.244 366.312,77.136 C366.744,76.596 367.608,75.804 368.184,75.48 C368.148,75.228 368.184,75.012 368.292,74.868 C368.436,74.76 368.688,74.544 368.724,74.364 C368.616,74.22 368.472,74.256 368.364,74.22 C369.156,73.536 368.508,72.276 368.976,71.88 L368.976,71.88 Z M390.756,74.832 C390.288,75.084 389.28,75.408 389.1,75.408 C387.84,75.552 387.732,75.12 387.624,74.148 C387.588,74.004 387.588,73.68 387.588,73.176 C387.588,72.672 387.588,72.276 387.624,72.024 C387.624,71.016 388.02,68.892 388.02,68.676 C387.984,68.496 387.84,68.316 387.948,68.28 C387.624,68.028 387.696,67.668 387.444,67.38 C387.192,67.092 387.012,66.948 386.832,66.84 C386.688,66.696 386.4,66.768 386.364,66.732 C386.22,66.624 385.896,66.3 385.716,66.264 C385.392,66.156 385.032,66.264 384.924,66.228 L380.244,71.916 C379.812,71.916 379.848,72.096 379.596,72.348 C379.56,72.312 379.56,72.276 379.56,72.24 L379.56,72.204 C379.596,71.772 379.56,71.16 379.956,71.052 C380.064,69.756 380.424,67.38 380.424,67.128 C380.388,66.804 380.064,66.012 379.884,65.688 C379.416,65.148 378.444,64.788 378.048,64.68 C377.472,64.572 376.932,64.572 376.68,64.68 C375.636,66.192 373.404,69.18 373.224,69.18 C372.936,69.216 372.864,69.432 372.828,69.432 C372.756,68.82 373.584,67.2 373.692,66.48 C373.836,66.084 373.944,65.544 374.052,64.932 C374.16,64.284 374.232,63.888 374.196,63.744 C374.196,63.564 373.836,62.592 373.296,62.484 C373.26,62.448 373.224,62.412 373.188,62.304 C373.008,62.16 372.792,62.088 372.54,62.124 C372.288,62.124 371.964,62.304 371.712,62.34 C371.1,63.744 370.92,64.284 370.92,65.328 C370.884,65.472 370.776,65.508 370.74,65.544 C370.632,66.084 370.38,66.804 370.272,67.2 C370.164,67.776 369.552,69.36 368.976,71.196 C368.4,73.032 367.824,75.12 367.968,76.272 C368.004,76.812 368.04,77.388 368.436,77.64 C368.724,77.928 369.336,78.36 369.516,78.324 C369.804,78.324 370.38,77.928 370.56,77.784 C370.992,77.352 371.388,76.56 371.856,76.128 L371.856,75.84 L372.648,74.904 C372.756,74.724 372.792,74.508 372.828,74.4 C373.98,72.924 375.276,71.088 376.428,69.9 C376.428,70.08 376.536,70.152 376.572,70.296 L376.464,70.44 C376.464,70.548 376.644,70.548 376.536,70.728 C376.464,71.808 375.528,74.544 375.708,76.2 C375.816,76.848 377.688,78.072 378.444,77.964 C378.696,77.964 379.308,77.64 379.704,77.388 C379.848,77.352 379.704,77.28 379.812,77.136 C380.496,76.74 380.964,76.02 381.432,75.444 C382.152,74.4 383.412,73.068 383.808,72.492 C384.096,72.096 384.204,71.772 384.492,71.448 C384.744,71.916 384.672,72.312 384.708,72.636 C384.996,73.968 385.104,75.372 385.86,76.2 C386.328,76.668 387.336,77.388 387.516,77.388 C387.768,77.352 387.444,77.244 387.624,77.208 C387.876,77.208 388.596,77.532 388.848,77.532 C389.136,77.496 389.748,77.136 390.288,76.884 C390.36,76.812 390.396,76.704 390.36,76.56 C390.504,76.416 390.684,76.308 390.792,76.128 C390.612,76.056 390.54,75.948 390.612,75.768 C390.648,75.516 390.936,75.156 390.756,74.832 L390.756,74.832 Z M383.484,72.96 L383.304,72.852 L383.52,72.528 L383.628,72.528 L383.484,72.96 Z M399.864,74.868 C399.756,74.868 399.612,74.832 399.504,74.724 C398.784,74.904 397.884,75.228 396.912,75.516 C396.336,75.264 396.048,75.624 395.652,75.624 C395.4,75.624 394.86,75.66 394.608,75.516 C394.176,75.336 393.528,74.904 393.528,74.616 C393.528,74.292 395.58,72.24 396.624,70.98 C397.236,70.224 397.992,69.144 398.28,68.568 C398.568,67.668 398.964,65.868 398.964,65.652 C398.964,64.716 398.244,65.508 398.244,63.996 C398.1,63.852 397.992,63.672 397.812,63.672 C397.56,63.672 397.848,63.78 397.56,63.78 C397.308,63.78 397.416,63.42 397.308,63.096 C396.984,62.988 396.48,62.664 396.3,62.664 C396.012,62.664 396.372,62.772 396.084,62.772 C395.976,62.772 395.94,62.736 395.94,62.664 C395.94,62.628 395.976,62.628 396.012,62.592 C396.12,62.988 395.364,63.204 395.04,63.348 C394.32,63.78 394.248,64.14 393.708,64.608 C393.456,65.076 393.024,65.616 392.772,65.94 C392.232,66.804 391.872,67.632 391.584,68.208 C391.044,69.324 390.504,70.728 390.36,71.412 C390.216,71.988 389.892,72.744 390.072,74.184 C390.756,77.064 390.432,76.164 391.08,76.74 C391.98,77.712 392.268,77.964 393.312,78.216 L393.708,78.756 C393.816,78.036 394.86,78.756 395.292,78.756 C395.4,78.756 395.436,78.72 395.436,78.684 L395.436,78.576 C395.832,78.54 396.372,78.216 396.768,78.18 C396.624,78.18 396.444,78.144 396.624,78.036 C397.164,78.036 397.596,77.964 398.028,77.82 C398.028,77.244 398.352,76.452 398.964,76.596 C399.108,76.272 399.216,75.912 399.36,75.732 C399.108,75.66 398.964,75.552 398.964,75.372 C399.288,75.264 399.468,75.012 399.864,74.868 L399.864,74.868 Z M403.775484,78 L403.775484,74.5371094 L407.238375,74.5371094 L407.238375,78 L403.775484,78 Z M415.781344,78 L415.781344,74.5371094 L419.244234,74.5371094 L419.244234,78 L415.781344,78 Z M427.769625,78 L427.769625,74.5371094 L431.250094,74.5371094 L431.250094,78 L427.769625,78 Z" id="Amazing-things-happe-Copy"></path>
            </g>
        </g>
    </g>
</svg>